<svg width="16" height="16" viewBox="0 0 16 16" fill="none" xmlns="http://www.w3.org/2000/svg">
<path d="M0.13118 6.28123C-0.12384 6.04937 0.0146872 5.63022 0.359624 5.59002L5.24721 5.02008C5.38779 5.00369 5.5099 4.9169 5.5692 4.79052L7.63071 0.396661C7.7762 0.0865693 8.2246 0.0865098 8.37009 0.396602L10.4316 4.79043C10.4909 4.91681 10.6122 5.00383 10.7528 5.02022L15.6407 5.59002C15.9856 5.63022 16.1237 6.0495 15.8687 6.28135L12.2556 9.56685C12.1517 9.66135 12.1054 9.802 12.133 9.93851L13.0919 14.6844C13.1596 15.0194 12.797 15.2789 12.4939 15.1121L8.19918 12.7481C8.07565 12.6801 7.92557 12.6804 7.80204 12.7484L3.50688 15.1115C3.20378 15.2783 2.84053 15.0194 2.90823 14.6844L3.86729 9.9388C3.89488 9.80229 3.84872 9.66132 3.74479 9.56682L0.13118 6.28123Z" fill="#F79E1B"/>
</svg>
