<svg width="36" height="24" viewBox="0 0 36 24" fill="none" xmlns="http://www.w3.org/2000/svg">
<g clip-path="url(#clip0_24_2381)">
<path d="M35.5191 21.7953C35.5191 22.466 34.9926 23.0135 34.3377 23.0135H1.30062C0.645716 23.0135 0.119141 22.4706 0.119141 21.7953V1.41843C0.119141 0.743153 0.645716 0.200195 1.30062 0.200195H34.3421C34.9926 0.200195 35.5191 0.743153 35.5191 1.41843V21.7953Z" fill="#016FD0"/>
<path fill-rule="evenodd" clip-rule="evenodd" d="M8.74805 17.1505V12.3506H13.6775L14.2085 13.0624L14.7528 12.3506H32.6475V16.822C32.6475 16.822 32.1784 17.1505 31.6386 17.1551H21.731L21.1336 16.3977V17.1551H19.1778V15.8638C19.1778 15.8638 18.9123 16.0463 18.3326 16.0463H17.6688V17.1596H14.7085L14.1819 16.4342L13.6465 17.1596L8.74805 17.1505Z" fill="white"/>
<path fill-rule="evenodd" clip-rule="evenodd" d="M2.99023 8.73215L4.10091 6.06299H6.02136L6.65413 7.55954V6.06299H9.04363L9.41976 7.14434L9.78261 6.06299H20.5088V6.60595C20.5088 6.60595 21.0708 6.06299 22 6.06299L25.4825 6.07668L26.102 7.55498V6.06299H28.1021L28.6508 6.91164V6.06299H30.6686V10.8629H28.6508L28.1287 10.0097V10.8629H25.1905L24.894 10.1055H24.1019L23.8099 10.8629H21.8186C21.0221 10.8629 20.5132 10.3291 20.5132 10.3291V10.8629H17.5087L16.9113 10.1055V10.8629H5.73816L5.44168 10.1055H4.65403L4.36198 10.8629H2.99023V8.73215Z" fill="white"/>
<path fill-rule="evenodd" clip-rule="evenodd" d="M4.49422 6.65137L2.99414 10.2467H3.97207L4.25084 9.52585H5.85712L6.13147 10.2467H7.12709L5.62702 6.65137H4.49422ZM5.05177 7.4909L5.54294 8.75019H4.56059L5.05177 7.4909Z" fill="#016FD0"/>
<path fill-rule="evenodd" clip-rule="evenodd" d="M7.23438 10.2467V6.65137L8.6194 6.65593L9.42918 8.97376L10.2168 6.65137H11.593V10.2467H10.7213V7.59584L9.79645 10.2467H9.03092L8.1061 7.59584V10.2467H7.23438Z" fill="#016FD0"/>
<path fill-rule="evenodd" clip-rule="evenodd" d="M12.1895 10.2467V6.65137H15.0303V7.4544H13.07V8.07036H14.9861V8.82776H13.07V9.46653H15.0303V10.2467H12.1895Z" fill="#016FD0"/>
<path fill-rule="evenodd" clip-rule="evenodd" d="M15.5352 6.65161V10.247H16.4069V8.96945H16.7742L17.8185 10.247H18.8849L17.7388 8.92382C18.2079 8.88276 18.6946 8.46755 18.6946 7.81965C18.6946 7.06225 18.1194 6.65161 17.4777 6.65161H15.5352ZM16.4069 7.45464H17.4025C17.6415 7.45464 17.814 7.64627 17.814 7.83334C17.814 8.0706 17.5884 8.21204 17.4158 8.21204H16.4069V7.45464Z" fill="#016FD0"/>
<path fill-rule="evenodd" clip-rule="evenodd" d="M19.9383 10.2467H19.0488V6.65137H19.9383V10.2467Z" fill="#016FD0"/>
<path fill-rule="evenodd" clip-rule="evenodd" d="M22.0492 10.2467H21.8589C20.9297 10.2467 20.3633 9.49391 20.3633 8.46275C20.3633 7.40877 20.9208 6.65137 22.0935 6.65137H23.0581V7.50459H22.0581C21.5802 7.50459 21.2439 7.88785 21.2439 8.47643C21.2439 9.17452 21.6288 9.46653 22.1864 9.46653H22.4165L22.0492 10.2467Z" fill="#016FD0"/>
<path fill-rule="evenodd" clip-rule="evenodd" d="M23.9473 6.65137L22.4473 10.2467H23.4252L23.704 9.52585H25.3102L25.5846 10.2467H26.5802L25.0801 6.65137H23.9473ZM24.5005 7.4909L24.9916 8.75019H24.0093L24.5005 7.4909Z" fill="#016FD0"/>
<path fill-rule="evenodd" clip-rule="evenodd" d="M26.6816 10.247V6.65161H27.7923L29.2083 8.91013V6.65161H30.0756V10.247H29.0048L27.5534 7.92916V10.247H26.6816Z" fill="#016FD0"/>
<path fill-rule="evenodd" clip-rule="evenodd" d="M9.34375 16.5387V12.9434H12.189V13.7464H10.2243V14.3623H12.1403V15.1198H10.2243V15.7585H12.189V16.5387H9.34375Z" fill="#016FD0"/>
<path fill-rule="evenodd" clip-rule="evenodd" d="M23.2793 16.5387V12.9434H26.1246V13.7464H24.1599V14.3623H26.067V15.1198H24.1599V15.7585H26.1246V16.5387H23.2793Z" fill="#016FD0"/>
<path fill-rule="evenodd" clip-rule="evenodd" d="M12.2966 16.5387L13.6816 14.7639L12.2656 12.9434H13.363L14.2082 14.0658L15.0534 12.9434H16.1109L14.7126 14.7411L16.0977 16.5387H15.0003L14.1816 15.43L13.3807 16.5387H12.2966Z" fill="#016FD0"/>
<path fill-rule="evenodd" clip-rule="evenodd" d="M16.2031 12.9436V16.539H17.097V15.4029H18.0129C18.7873 15.4029 19.3759 14.9786 19.3759 14.1527C19.3759 13.4683 18.9156 12.9436 18.1236 12.9436H16.2031ZM17.097 13.7558H18.0616C18.3139 13.7558 18.4909 13.9155 18.4909 14.171C18.4909 14.4128 18.3139 14.5862 18.0572 14.5862H17.0926V13.7558H17.097Z" fill="#016FD0"/>
<path fill-rule="evenodd" clip-rule="evenodd" d="M19.7559 12.9434V16.5387H20.6276V15.2612H20.9949L22.0392 16.5387H23.1056L21.9595 15.2156C22.4286 15.1745 22.9153 14.7593 22.9153 14.1114C22.9153 13.354 22.3401 12.9434 21.6984 12.9434H19.7559ZM20.6276 13.7464H21.6232C21.8622 13.7464 22.0347 13.938 22.0347 14.1251C22.0347 14.3623 21.8091 14.5038 21.6365 14.5038H20.6276V13.7464Z" fill="#016FD0"/>
<path fill-rule="evenodd" clip-rule="evenodd" d="M26.5266 16.539V15.7588H28.2701C28.5267 15.7588 28.6418 15.6128 28.6418 15.4576C28.6418 15.3071 28.5312 15.1519 28.2701 15.1519H27.4824C26.7966 15.1519 26.416 14.723 26.416 14.0751C26.416 13.5002 26.7656 12.9436 27.7833 12.9436H29.4825L29.1153 13.7512H27.6462C27.3674 13.7512 27.2789 13.9018 27.2789 14.0478C27.2789 14.1983 27.3851 14.3626 27.6019 14.3626H28.4294C29.1949 14.3626 29.5224 14.8097 29.5224 15.3938C29.5224 16.0234 29.1551 16.539 28.3851 16.539H26.5266Z" fill="#016FD0"/>
<path fill-rule="evenodd" clip-rule="evenodd" d="M29.7253 16.5387V15.7585H31.398C31.6546 15.7585 31.7697 15.6125 31.7697 15.4574C31.7697 15.3068 31.6591 15.1517 31.398 15.1517H30.6856C29.9997 15.1517 29.6191 14.7228 29.6191 14.0749C29.6191 13.5 29.9687 12.9434 30.9865 12.9434H32.6503L32.283 13.751H30.8493C30.5705 13.751 30.482 13.9015 30.482 14.0475C30.482 14.1981 30.5882 14.3623 30.805 14.3623H31.5573C32.3228 14.3623 32.6547 14.8095 32.6547 15.3935C32.6547 16.0232 32.2874 16.5387 31.5175 16.5387H29.7253Z" fill="#016FD0"/>
</g>
<defs>
<clipPath id="clip0_24_2381">
<rect width="35.4" height="22.8133" fill="white" transform="translate(0.119141 0.200195)"/>
</clipPath>
</defs>
</svg>
