<svg width="37" height="24" viewBox="0 0 37 24" fill="none" xmlns="http://www.w3.org/2000/svg">
<g clip-path="url(#clip0_24_2402)">
<path d="M35.2967 23.0135H2.22204C1.36713 23.0135 0.666016 22.3063 0.666016 21.444V1.76975C0.666016 0.907409 1.36713 0.200195 2.22204 0.200195H35.2967C36.1516 0.200195 36.8527 0.907409 36.8527 1.76975V21.444C36.8527 22.3063 36.1516 23.0135 35.2967 23.0135Z" fill="#F9F9F9"/>
<path d="M21.6872 15.1883H15.834V4.58008H21.6872V15.1883Z" fill="#6C6BBD"/>
<path d="M16.2042 9.88197C16.2042 7.72839 17.2039 5.81207 18.7599 4.57559C17.6245 3.67218 16.1861 3.13379 14.6256 3.13379C10.93 3.13379 7.93555 6.15427 7.93555 9.88197C7.93555 13.6097 10.93 16.6302 14.6256 16.6302C16.1861 16.6302 17.62 16.0918 18.7599 15.1884C17.2039 13.9519 16.2042 12.0356 16.2042 9.88197Z" fill="#D32011"/>
<path d="M29.5802 9.88181C29.5802 13.6095 26.5857 16.63 22.8902 16.63C21.3296 16.63 19.8957 16.0916 18.7559 15.1882C20.3119 13.9517 21.3115 12.0354 21.3115 9.88181C21.3115 7.72823 20.3164 5.81191 18.7604 4.57999C19.9003 3.67658 21.3342 3.13819 22.8947 3.13819C26.5857 3.13363 29.5802 6.15411 29.5802 9.88181Z" fill="#0099DF"/>
<path d="M23.6683 18.1858C23.7452 18.1858 23.8583 18.1995 23.9442 18.236L23.8266 18.601C23.7452 18.5691 23.6638 18.5554 23.5869 18.5554C23.3336 18.5554 23.2069 18.7196 23.2069 19.0162V20.02H22.8224V18.2269H23.2069V18.4459C23.2974 18.2907 23.4421 18.1858 23.6683 18.1858ZM22.2389 18.5873H21.6056V19.3949C21.6056 19.5729 21.669 19.696 21.8635 19.696C21.963 19.696 22.0896 19.6641 22.2027 19.5957L22.3158 19.9287C22.1937 20.0154 21.9992 20.0656 21.8318 20.0656C21.375 20.0656 21.2166 19.8192 21.2166 19.404V18.5873H20.8548V18.2314H21.2166V17.6885H21.6056V18.2314H22.2389V18.5873ZM17.2949 18.966C17.3356 18.706 17.4939 18.5326 17.7653 18.5326C18.0141 18.5326 18.1724 18.6923 18.2131 18.966H17.2949ZM18.6157 19.1257C18.6112 18.5691 18.2719 18.1858 17.7699 18.1858C17.2497 18.1858 16.8878 18.5691 16.8878 19.1257C16.8878 19.696 17.2678 20.0656 17.797 20.0656C18.0639 20.0656 18.3081 19.9972 18.5253 19.8147L18.3353 19.5272C18.186 19.6459 17.996 19.7143 17.8196 19.7143C17.5708 19.7143 17.3447 19.6002 17.2904 19.2763H18.6112C18.6112 19.2261 18.6157 19.1759 18.6157 19.1257ZM20.312 18.6877C20.2034 18.6193 19.9863 18.5326 19.7601 18.5326C19.5475 18.5326 19.4209 18.6101 19.4209 18.7425C19.4209 18.8611 19.5566 18.8976 19.7194 18.9204L19.9003 18.9478C20.2848 19.0025 20.52 19.1713 20.52 19.4862C20.52 19.8284 20.2215 20.0702 19.7104 20.0702C19.4209 20.0702 19.154 19.9972 18.9414 19.8375L19.1223 19.5318C19.2535 19.6322 19.448 19.7189 19.7149 19.7189C19.9772 19.7189 20.1175 19.6413 20.1175 19.4999C20.1175 19.3995 20.018 19.3402 19.8054 19.3128L19.6244 19.2854C19.2264 19.2307 19.0092 19.0481 19.0092 18.7561C19.0092 18.4003 19.2987 18.1812 19.7466 18.1812C20.027 18.1812 20.2848 18.2451 20.4703 18.3683L20.312 18.6877ZM25.0796 18.5554C24.9981 18.5554 24.9258 18.5691 24.8579 18.5964C24.7901 18.6238 24.7313 18.6649 24.6815 18.7151C24.6318 18.7653 24.591 18.8246 24.5639 18.8976C24.5368 18.9706 24.5232 19.0482 24.5232 19.1303C24.5232 19.217 24.5368 19.2945 24.5639 19.363C24.591 19.436 24.6318 19.4953 24.6815 19.5455C24.7313 19.5957 24.7901 19.6367 24.8579 19.6641C24.9258 19.6915 24.9981 19.7052 25.0796 19.7052C25.161 19.7052 25.2334 19.6915 25.3012 19.6641C25.3691 19.6367 25.4279 19.5957 25.4776 19.5455C25.5274 19.4953 25.5681 19.436 25.5952 19.363C25.6224 19.29 25.6359 19.2124 25.6359 19.1303C25.6359 19.0436 25.6224 18.966 25.5952 18.8976C25.5681 18.8246 25.5274 18.7653 25.4776 18.7151C25.4279 18.6649 25.3691 18.6238 25.3012 18.5964C25.2334 18.5691 25.1565 18.5554 25.0796 18.5554ZM25.0796 18.1858C25.2153 18.1858 25.3464 18.2086 25.464 18.2588C25.5817 18.309 25.6812 18.3729 25.7671 18.4596C25.8531 18.5463 25.9209 18.6421 25.9661 18.7607C26.0159 18.8748 26.0385 19.0025 26.0385 19.1348C26.0385 19.2717 26.0159 19.3949 25.9661 19.509C25.9164 19.623 25.8531 19.7234 25.7671 19.8101C25.6812 19.8968 25.5817 19.9607 25.464 20.0109C25.3464 20.0611 25.2198 20.0839 25.0796 20.0839C24.9393 20.0839 24.8127 20.0611 24.6951 20.0109C24.5775 19.9607 24.478 19.8968 24.392 19.8101C24.3061 19.7234 24.2382 19.623 24.193 19.509C24.1432 19.3949 24.1206 19.2672 24.1206 19.1348C24.1206 18.998 24.1432 18.8748 24.193 18.7607C24.2427 18.6466 24.3061 18.5463 24.392 18.4596C24.478 18.3729 24.5775 18.309 24.6951 18.2588C24.8127 18.2086 24.9393 18.1858 25.0796 18.1858ZM15.0378 19.1257C15.0378 18.8109 15.2413 18.5508 15.576 18.5508C15.8972 18.5508 16.1098 18.7972 16.1098 19.1257C16.1098 19.4497 15.8927 19.7006 15.576 19.7006C15.2413 19.696 15.0378 19.4405 15.0378 19.1257ZM16.4762 19.1257V18.2314H16.0917V18.4504C15.9696 18.2907 15.7841 18.1858 15.5308 18.1858C15.0332 18.1858 14.6442 18.5782 14.6442 19.1257C14.6442 19.6732 15.0332 20.0656 15.5308 20.0656C15.7841 20.0656 15.9696 19.9652 16.0917 19.801V20.02H16.4762V19.1257ZM14.2959 20.02V18.8976C14.2959 18.4733 14.0291 18.1904 13.5993 18.1858C13.3732 18.1812 13.138 18.2542 12.9751 18.5052C12.853 18.3044 12.6585 18.1858 12.3871 18.1858C12.1971 18.1858 12.0117 18.2406 11.8669 18.4504V18.2314H11.4824V20.0246H11.8714V19.0299C11.8714 18.7196 12.0433 18.5554 12.3057 18.5554C12.5635 18.5554 12.6902 18.7242 12.6902 19.0299V20.0246H13.0792V19.0299C13.0792 18.7196 13.2556 18.5554 13.5134 18.5554C13.7758 18.5554 13.9024 18.7242 13.9024 19.0299V20.0246H14.2959V20.02Z" fill="#110F0D"/>
</g>
<defs>
<clipPath id="clip0_24_2402">
<rect width="36.1867" height="22.8133" fill="white" transform="translate(0.666016 0.200195)"/>
</clipPath>
</defs>
</svg>
