<svg width="37" height="24" viewBox="0 0 37 24" fill="none" xmlns="http://www.w3.org/2000/svg">
<g clip-path="url(#clip0_24_2428)">
<path d="M35.4089 23.8002H1.61524C0.741749 23.8002 0.0253906 23.0686 0.0253906 22.1765V1.82388C0.0253906 0.931795 0.741749 0.200195 1.61524 0.200195H35.4089C36.2824 0.200195 36.9987 0.931795 36.9987 1.82388V22.1765C36.9987 23.0686 36.2824 23.8002 35.4089 23.8002Z" fill="#F9F9F9"/>
<path d="M11.4915 20.7085V19.5473C11.4915 19.1037 11.2281 18.811 10.7706 18.811C10.5441 18.811 10.2945 18.8865 10.1281 19.1414C9.99411 18.929 9.80463 18.811 9.5227 18.811C9.33322 18.811 9.14373 18.8677 8.99121 19.0801V18.8488H8.59375V20.7085H8.99121V19.6842C8.99121 19.3538 9.16221 19.1981 9.42565 19.1981C9.68908 19.1981 9.82311 19.3727 9.82311 19.6842V20.7085H10.2206V19.6842C10.2206 19.3538 10.4101 19.1981 10.655 19.1981C10.9184 19.1981 11.0525 19.3727 11.0525 19.6842V20.7085H11.4915ZM17.3842 18.8535H16.7417V18.2918H16.3397V18.8535H15.9792V19.2217H16.3397V20.0713C16.3397 20.4961 16.5107 20.7509 16.9636 20.7509C17.1346 20.7509 17.3241 20.6943 17.4581 20.6141L17.3426 20.2648C17.227 20.3403 17.0976 20.3639 17.0006 20.3639C16.8111 20.3639 16.7371 20.2459 16.7371 20.0524V19.2217H17.3795V18.8535H17.3842ZM20.758 18.811C20.5315 18.811 20.379 18.929 20.2819 19.0801V18.8488H19.8845V20.7085H20.2819V19.6653C20.2819 19.3538 20.416 19.1792 20.6609 19.1792C20.7349 19.1792 20.8319 19.1981 20.9059 19.2169L21.0214 18.8299C20.9475 18.811 20.8319 18.811 20.758 18.811ZM15.6603 19.0045C15.4708 18.8677 15.2074 18.811 14.9208 18.811C14.4679 18.811 14.1629 19.0423 14.1629 19.4105C14.1629 19.722 14.3893 19.8966 14.7868 19.9533L14.9763 19.9721C15.1842 20.0099 15.2998 20.0713 15.2998 20.1657C15.2998 20.3025 15.1473 20.3969 14.8838 20.3969C14.6204 20.3969 14.4078 20.2978 14.2784 20.2034L14.0889 20.5149C14.2969 20.6707 14.5834 20.7462 14.8654 20.7462C15.3968 20.7462 15.6973 20.4961 15.6973 20.1468C15.6973 19.8164 15.4523 19.6417 15.0733 19.5851L14.8838 19.5662C14.7128 19.5473 14.5788 19.5096 14.5788 19.3916C14.5788 19.2547 14.7128 19.1792 14.9208 19.1792C15.1473 19.1792 15.3737 19.2783 15.4893 19.3349L15.6603 19.0045ZM26.2347 18.811C26.0082 18.811 25.8557 18.929 25.7586 19.0801V18.8488H25.3612V20.7085H25.7586V19.6653C25.7586 19.3538 25.8926 19.1792 26.1376 19.1792C26.2115 19.1792 26.3086 19.1981 26.3825 19.2169L26.4981 18.8299C26.4241 18.811 26.3086 18.811 26.2347 18.811ZM21.1554 19.7833C21.1554 20.345 21.5344 20.7509 22.1214 20.7509C22.3848 20.7509 22.5743 20.6943 22.7638 20.5385L22.5743 20.2081C22.4218 20.3261 22.2693 20.3828 22.0983 20.3828C21.7747 20.3828 21.5483 20.1515 21.5483 19.7833C21.5483 19.4341 21.7747 19.2028 22.0983 19.1839C22.2693 19.1839 22.4218 19.2405 22.5743 19.3585L22.7638 19.0281C22.5743 18.8724 22.3848 18.8157 22.1214 18.8157C21.5344 18.811 21.1554 19.2217 21.1554 19.7833ZM24.8343 19.7833V18.8535H24.4368V19.0848C24.3028 18.9101 24.1133 18.8157 23.8684 18.8157C23.3554 18.8157 22.9579 19.2217 22.9579 19.7833C22.9579 20.345 23.3554 20.7509 23.8684 20.7509C24.1318 20.7509 24.3213 20.6518 24.4368 20.4819V20.7132H24.8343V19.7833ZM23.3738 19.7833C23.3738 19.4529 23.5818 19.1839 23.9238 19.1839C24.2473 19.1839 24.4738 19.4341 24.4738 19.7833C24.4738 20.1137 24.2473 20.3828 23.9238 20.3828C23.5818 20.3639 23.3738 20.109 23.3738 19.7833ZM18.6181 18.811C18.0867 18.811 17.7077 19.1981 17.7077 19.7786C17.7077 20.3592 18.0867 20.7462 18.6366 20.7462C18.9001 20.7462 19.1681 20.6707 19.3761 20.4961L19.1866 20.2034C19.0341 20.3214 18.8446 20.3969 18.6551 20.3969C18.4102 20.3969 18.1606 20.2789 18.1051 19.9533H19.45V19.7975C19.4685 19.2028 19.1265 18.811 18.6181 18.811ZM18.6181 19.1603C18.8631 19.1603 19.0341 19.3161 19.0711 19.604H18.1236C18.1606 19.3538 18.3316 19.1603 18.6181 19.1603ZM28.49 19.7833V18.1172H28.0926V19.0848C27.9585 18.9101 27.769 18.8157 27.5241 18.8157C27.0111 18.8157 26.6136 19.2217 26.6136 19.7833C26.6136 20.345 27.0111 20.7509 27.5241 20.7509C27.7875 20.7509 27.977 20.6518 28.0926 20.4819V20.7132H28.49V19.7833ZM27.0296 19.7833C27.0296 19.4529 27.2376 19.1839 27.5796 19.1839C27.9031 19.1839 28.1295 19.4341 28.1295 19.7833C28.1295 20.1137 27.9031 20.3828 27.5796 20.3828C27.2376 20.3639 27.0296 20.109 27.0296 19.7833ZM13.7284 19.7833V18.8535H13.331V19.0848C13.1969 18.9101 13.0074 18.8157 12.7625 18.8157C12.2495 18.8157 11.852 19.2217 11.852 19.7833C11.852 20.345 12.2495 20.7509 12.7625 20.7509C13.0259 20.7509 13.2154 20.6518 13.331 20.4819V20.7132H13.7284V19.7833ZM12.2495 19.7833C12.2495 19.4529 12.4575 19.1839 12.7995 19.1839C13.123 19.1839 13.3494 19.4341 13.3494 19.7833C13.3494 20.1137 13.123 20.3828 12.7995 20.3828C12.4575 20.3639 12.2495 20.109 12.2495 19.7833Z" fill="black"/>
<path d="M21.4966 4.74097H15.5254V15.6961H21.4966V4.74097Z" fill="#FF5F00"/>
<path d="M15.9045 10.221C15.9045 7.99311 16.9259 6.02015 18.5019 4.74103C17.3465 3.81119 15.886 3.24951 14.2962 3.24951C10.5249 3.24951 7.47461 6.36471 7.47461 10.2162C7.47461 14.0678 10.5249 17.183 14.2962 17.183C15.886 17.183 17.3465 16.6213 18.5019 15.6914C16.9305 14.4406 15.9045 12.4441 15.9045 10.221Z" fill="#EB001B"/>
<path d="M29.5527 10.2208C29.5527 14.0723 26.5024 17.1875 22.7311 17.1875C21.1413 17.1875 19.6808 16.6258 18.5254 15.696C20.1152 14.4169 21.1228 12.4439 21.1228 10.2161C21.1228 7.98823 20.1014 6.01527 18.5254 4.73615C19.6808 3.80631 21.1413 3.24463 22.7311 3.24463C26.4978 3.24935 29.5527 6.38815 29.5527 10.2208Z" fill="#F79E1B"/>
</g>
<defs>
<clipPath id="clip0_24_2428">
<rect width="36.9733" height="23.6" fill="white" transform="translate(0.0253906 0.200195)"/>
</clipPath>
</defs>
</svg>
