<svg width="36" height="24" viewBox="0 0 36 24" fill="none" xmlns="http://www.w3.org/2000/svg">
<g clip-path="url(#clip0_24_2410)">
<path d="M35.9742 21.7953C35.9742 22.466 35.4476 23.0135 34.7927 23.0135H1.75569C1.10079 23.0135 0.574219 22.4706 0.574219 21.7953V1.41843C0.574219 0.743153 1.10079 0.200195 1.75569 0.200195H34.7972C35.4476 0.200195 35.9742 0.743153 35.9742 1.41843V21.7953Z" fill="#FBE200"/>
<path d="M6.81338 9.53076C6.64523 9.53076 6.45938 9.55814 6.30451 9.62658C6.26468 9.64027 6.21158 9.65395 6.17176 9.68133C5.97706 9.77715 5.77793 9.93684 5.58323 10.1376L5.63633 9.58551H5.00798C4.99913 9.74521 4.98586 9.89577 4.97258 10.0555C4.94603 10.2152 4.91948 10.3657 4.89293 10.5254L3.99023 14.609H4.68496L5.10533 12.7338C5.23808 12.9208 5.39296 13.0714 5.56111 13.1672C5.74253 13.263 5.94166 13.3178 6.18946 13.3178C6.22928 13.3178 6.26911 13.3178 6.30893 13.3178C6.57001 13.2904 6.80453 13.222 7.01693 13.0896C7.27801 12.9391 7.48598 12.7246 7.64528 12.4417C7.78688 12.2136 7.89308 11.9444 7.95946 11.6342C8.03911 11.3239 8.06566 11.0273 8.03911 10.7581C7.99928 10.3794 7.88423 10.0692 7.65856 9.85471C7.44173 9.64027 7.15411 9.53076 6.81338 9.53076ZM7.27358 11.4836C7.20721 11.7391 7.11871 11.9672 6.99923 12.1862C6.87976 12.4007 6.73816 12.5649 6.57001 12.6699C6.49036 12.7109 6.40186 12.752 6.30893 12.7794C6.21601 12.8068 6.11423 12.8204 6.00803 12.8204C5.80006 12.8204 5.62748 12.752 5.49916 12.6334C5.36641 12.4965 5.29118 12.3368 5.27791 12.1224C5.26463 11.9353 5.27791 11.7026 5.34428 11.406C5.41066 11.1231 5.49916 10.8676 5.61863 10.6532C5.72483 10.4387 5.86643 10.2608 6.03901 10.1422C6.13193 10.0874 6.22043 10.0327 6.31336 10.0053C6.39301 9.9779 6.48151 9.96421 6.57443 9.96421C6.78241 9.96421 6.96826 10.0327 7.10986 10.1787C7.24261 10.3292 7.31783 10.5163 7.34438 10.7581C7.35323 10.9863 7.33996 11.2281 7.27358 11.4836Z" fill="#004A99"/>
<path d="M24.3725 9.80001C24.1778 9.59925 23.9034 9.48975 23.5627 9.48975C23.3415 9.48975 23.1335 9.53081 22.9476 9.62663C22.9211 9.64031 22.8945 9.654 22.8547 9.66769C22.6998 9.76351 22.5538 9.88213 22.3989 10.0327L22.4255 9.59012H21.4431C21.4166 9.83195 21.3502 10.2106 21.2484 10.708L20.4121 14.6182H21.4962L21.9166 12.6927C22.0228 12.8935 22.1644 13.0578 22.3458 13.149C22.4874 13.2311 22.66 13.2859 22.8547 13.2996C22.8945 13.2996 22.9476 13.3133 22.9875 13.3133C23.5362 13.3133 23.9831 13.0578 24.3061 12.5467C24.6468 12.0494 24.7752 11.4289 24.7132 10.6989C24.6867 10.2973 24.5716 10.0008 24.3725 9.80001ZM23.6025 11.3924C23.5494 11.6342 23.4698 11.8623 23.3813 12.0677C23.2884 12.2547 23.1999 12.3916 23.0804 12.4874C23.014 12.5422 22.9388 12.5832 22.8591 12.5969C22.806 12.6106 22.7529 12.6243 22.7043 12.6243C22.5228 12.6243 22.3768 12.5559 22.275 12.4372C22.1556 12.314 22.1069 12.1407 22.0803 11.9125C22.0405 11.4699 22.1202 11.0639 22.3281 10.6989C22.4697 10.4433 22.6556 10.2654 22.8636 10.2015C22.9432 10.1878 23.0052 10.1741 23.0848 10.1741C23.253 10.1741 23.3857 10.2289 23.4919 10.3338C23.5848 10.4297 23.6468 10.5757 23.6601 10.7764C23.6689 10.9452 23.6556 11.1506 23.6025 11.3924Z" fill="#004A99"/>
<path d="M27.9703 9.7589C27.7225 9.5992 27.3817 9.53076 26.926 9.53076C26.7799 9.53076 26.6383 9.53076 26.5056 9.55814C26.2312 9.5992 26.01 9.68133 25.8109 9.79996C25.5498 9.98703 25.3905 10.2425 25.3684 10.5802H26.3994C26.4259 10.4707 26.4525 10.3794 26.5056 10.311C26.5189 10.2699 26.5454 10.2562 26.572 10.2288C26.6516 10.1604 26.7667 10.1193 26.926 10.1193C27.0587 10.1193 27.1605 10.1467 27.2269 10.2015C27.3065 10.2562 27.3463 10.3384 27.3596 10.4433C27.3596 10.498 27.3596 10.5528 27.3463 10.6167C27.3463 10.6988 27.3198 10.7901 27.2932 10.9269C27.2534 10.9269 27.2136 10.9269 27.1738 10.9269C27.1339 10.9269 27.0676 10.9269 26.9923 10.9269C26.8242 10.9269 26.6516 10.9269 26.51 10.9406C26.0011 10.9817 25.6073 11.1003 25.3197 11.292C24.9524 11.5338 24.7843 11.8851 24.8241 12.3414C24.8506 12.6379 24.9568 12.8661 25.1515 13.044C25.3462 13.2174 25.594 13.3132 25.9082 13.3132C26.1295 13.3132 26.3153 13.2585 26.4835 13.1626L26.51 13.149C26.6649 13.0668 26.8242 12.9208 26.9525 12.7292C26.9525 12.825 26.9392 12.9026 26.9392 12.9984C26.9392 13.0942 26.9392 13.1718 26.9392 13.2539H27.9349C27.9349 13.0942 27.9349 12.9436 27.9481 12.7839C27.9747 12.6242 27.988 12.4737 28.0278 12.3277L28.3021 11.0866C28.3287 10.9634 28.3552 10.8448 28.3685 10.749C28.3818 10.6395 28.3818 10.5482 28.3685 10.4524C28.3331 10.1513 28.2048 9.92315 27.9703 9.7589ZM26.8198 12.3368C26.7136 12.46 26.6118 12.5376 26.5056 12.5923C26.4259 12.6334 26.3374 12.6471 26.2445 12.6471C26.125 12.6471 26.0365 12.6197 25.9702 12.5512C25.8905 12.4828 25.8507 12.3916 25.8507 12.2684C25.8241 12.0539 25.9171 11.8623 26.1383 11.7163C26.2445 11.6342 26.3596 11.5794 26.5056 11.5429C26.6383 11.5018 26.7932 11.4881 26.9614 11.4881C27.0145 11.4881 27.041 11.4881 27.0808 11.4881C27.1074 11.4881 27.1339 11.4881 27.1605 11.5018C27.1074 11.8349 26.9879 12.1178 26.8198 12.3368Z" fill="#004A99"/>
<path d="M31.5362 9.55811L30.1512 12.0904L29.8503 9.55811H28.7794L29.4078 13.2493L28.5449 14.5999H29.6954L30.3326 13.3999L32.5584 9.55811H31.5362Z" fill="#004A99"/>
<path d="M11.1538 9.80001C10.906 9.59925 10.5786 9.48975 10.1582 9.48975C10.0387 9.48975 9.92368 9.48975 9.81748 9.50343C9.6095 9.53081 9.3971 9.58556 9.22895 9.654C8.96788 9.77719 8.7599 9.93689 8.58733 10.165C8.4059 10.4205 8.27315 10.7171 8.18023 11.0684C8.07403 11.4198 8.04748 11.7437 8.07403 12.0677C8.10058 12.46 8.24218 12.7703 8.50325 12.9847C8.75105 13.2129 9.09178 13.3224 9.50773 13.3224C9.61393 13.3224 9.7157 13.3087 9.80863 13.3087C10.0697 13.2813 10.291 13.2266 10.4768 13.1353C10.7379 13.0121 10.9459 12.8114 11.1317 12.5285C11.2866 12.2867 11.4061 11.9901 11.4857 11.6524C11.5786 11.3148 11.6052 10.9909 11.5786 10.6943C11.5477 10.311 11.4149 10.0145 11.1538 9.80001ZM10.8043 11.4973C10.7379 11.7802 10.6494 12.0357 10.5166 12.2638C10.3972 12.4646 10.2688 12.6152 10.1095 12.7064C10.0299 12.7612 9.9281 12.8022 9.8219 12.8296C9.74225 12.8433 9.66703 12.857 9.5741 12.857C9.33958 12.857 9.15373 12.7886 9.01213 12.6562C8.87938 12.5194 8.79088 12.346 8.7776 12.1042C8.76433 11.8897 8.7776 11.6342 8.84398 11.3376C8.91035 11.0411 8.99885 10.7992 9.11833 10.5985C9.2378 10.384 9.3794 10.2198 9.5387 10.1011C9.63163 10.0464 9.7334 10.0053 9.82633 9.97795C9.91925 9.95058 9.99448 9.93689 10.0874 9.93689C10.3352 9.93689 10.5211 10.0053 10.6494 10.1376C10.7821 10.2608 10.8574 10.4616 10.8839 10.7445C10.8928 10.9589 10.8662 11.2007 10.8043 11.4973Z" fill="#004A99"/>
<path d="M14.318 9.68145C14.1233 9.55826 13.8224 9.49438 13.4153 9.49438C12.9728 9.49438 12.6188 9.60389 12.3578 9.80465C12.11 10.0191 11.9905 10.2746 12.017 10.5986C12.0303 10.7856 12.11 10.9636 12.2648 11.0959C12.4064 11.2464 12.6719 11.4061 13.0348 11.5795C13.3224 11.7164 13.5038 11.8213 13.5968 11.9035C13.6897 11.9856 13.7384 12.0769 13.7384 12.1864C13.7516 12.3597 13.6853 12.5103 13.5304 12.6289C13.3755 12.7384 13.1631 12.7886 12.8888 12.7886C12.6808 12.7886 12.5348 12.7613 12.433 12.6791C12.3268 12.6107 12.2781 12.5057 12.2648 12.3552C12.2516 12.3141 12.2516 12.273 12.2648 12.2183C12.2648 12.1635 12.2781 12.1088 12.3047 12.0449H11.5967C11.5834 12.127 11.5701 12.2046 11.5568 12.273C11.5436 12.3552 11.5436 12.4191 11.5568 12.4738C11.5834 12.743 11.6984 12.9438 11.9241 13.0943C12.1586 13.2312 12.4595 13.3088 12.8534 13.3088C13.349 13.3088 13.7561 13.1856 14.057 12.9574C14.3711 12.7293 14.4995 12.4327 14.4773 12.0951C14.4641 11.8943 14.3844 11.7164 14.2694 11.5841C14.1499 11.4472 13.8623 11.2738 13.4463 11.0731C13.1454 10.9271 12.9507 10.8176 12.8711 10.7354C12.7781 10.667 12.7383 10.5757 12.7295 10.4799C12.7162 10.3202 12.7693 10.1833 12.8976 10.0875C13.0171 9.99172 13.1852 9.93696 13.4065 9.93696C13.6012 9.93696 13.7472 9.97803 13.8357 10.0465C13.9419 10.1149 13.9906 10.2198 14.0039 10.3567C14.0039 10.3841 14.0039 10.4252 14.0039 10.4525C14.0039 10.4799 14.0039 10.521 14.0039 10.562H14.6455C14.6588 10.4662 14.6588 10.4024 14.6588 10.3613C14.6588 10.3065 14.6588 10.2655 14.6588 10.2244C14.6322 9.97803 14.5304 9.80008 14.318 9.68145Z" fill="#004A99"/>
<path d="M16.3043 12.7932C16.1495 12.7932 16.03 12.7658 15.9636 12.7111C15.8972 12.67 15.8574 12.6016 15.8574 12.4966C15.8441 12.4556 15.8574 12.4008 15.8707 12.3232C15.8707 12.2548 15.8972 12.1499 15.9371 11.9993L16.3309 10.083H17.1008L17.207 9.61301H16.4371L16.6451 8.6001L15.9503 8.77348L15.7689 9.60845H15.1273L15.0078 10.0784H15.6627L15.2556 11.9126C15.2291 12.086 15.1892 12.2502 15.176 12.4099C15.1627 12.5605 15.1494 12.6791 15.1627 12.7476C15.176 12.9483 15.2423 13.0989 15.3707 13.181C15.4901 13.2768 15.6848 13.3179 15.9459 13.3179C16.0388 13.3179 16.1406 13.3042 16.2468 13.3042C16.353 13.2905 16.4681 13.2768 16.6008 13.2631L16.7203 12.7247C16.6539 12.7384 16.5787 12.7658 16.5123 12.7658C16.4371 12.7795 16.3574 12.7932 16.3043 12.7932Z" fill="#004A99"/>
<path d="M17.8352 11.4973H18.8662H20.384C20.4238 11.3376 20.4504 11.1734 20.4504 11.0274C20.4636 10.8814 20.4636 10.7308 20.4504 10.5939C20.4238 10.2015 20.2822 9.91865 20.0565 9.74527C19.822 9.57189 19.468 9.47607 19.0122 9.47607C18.9591 9.47607 18.9193 9.47607 18.8706 9.47607C18.5963 9.50345 18.3618 9.5582 18.1538 9.67683C17.906 9.80002 17.698 10.0008 17.5387 10.2426C17.3971 10.4981 17.2644 10.8084 17.1847 11.1597C17.0918 11.5247 17.0652 11.8487 17.0918 12.1315C17.1183 12.5102 17.2599 12.8068 17.4989 13.0076C17.7467 13.2083 18.0741 13.3178 18.4945 13.3178C18.6273 13.3178 18.7556 13.3042 18.8751 13.2905C19.1627 13.2494 19.4105 13.1536 19.6185 13.0076C19.9194 12.8068 20.1141 12.5239 20.207 12.1589H19.437C19.3707 12.3597 19.2556 12.5239 19.0963 12.6289C19.0299 12.6699 18.9547 12.711 18.8751 12.7384C18.7821 12.7794 18.6804 12.7931 18.5742 12.7931C18.3264 12.7931 18.1449 12.7247 17.9989 12.6061C17.8662 12.4829 17.7909 12.3095 17.7644 12.0814C17.7644 11.9992 17.7644 11.908 17.7777 11.8122C17.7821 11.7027 17.7954 11.6068 17.8352 11.4973ZM18.3308 10.1924C18.4768 10.0327 18.6582 9.95059 18.8662 9.92322C18.906 9.92322 18.9591 9.90953 18.999 9.90953C19.2335 9.90953 19.4193 9.97797 19.5609 10.0829C19.6937 10.1924 19.7689 10.3384 19.7822 10.5392C19.7955 10.5939 19.7955 10.6487 19.7822 10.7126C19.7822 10.781 19.7689 10.8723 19.7556 10.9954H18.8662H17.9502C18.0166 10.635 18.1494 10.3658 18.3308 10.1924Z" fill="#004A99"/>
</g>
<defs>
<clipPath id="clip0_24_2410">
<rect width="35.4" height="22.8133" fill="white" transform="translate(0.574219 0.200195)"/>
</clipPath>
</defs>
</svg>
