<svg width="36" height="24" viewBox="0 0 36 24" fill="none" xmlns="http://www.w3.org/2000/svg">
<g clip-path="url(#clip0_24_2372)">
<path d="M33.8778 23.0135H1.5222C0.685875 23.0135 0 22.3063 0 21.444V1.76975C0 0.907409 0.685875 0.200195 1.5222 0.200195H33.8778C34.7141 0.200195 35.4 0.907409 35.4 1.76975V21.444C35.4 22.3063 34.7141 23.0135 33.8778 23.0135Z" fill="white"/>
<path fill-rule="evenodd" clip-rule="evenodd" d="M6.47335 9.80933H8.33185C9.3319 9.80933 9.7036 10.3295 9.64607 11.096C9.54872 12.3599 8.80975 13.0579 7.8274 13.0579H7.3318C7.19905 13.0579 7.10612 13.1492 7.07072 13.4001L6.85832 14.8465C6.84505 14.9423 6.79637 14.9971 6.72557 15.0016H5.55737C5.44675 15.0016 5.40692 14.915 5.4379 14.7279L6.15032 10.0831C6.17687 9.89602 6.27865 9.80933 6.47335 9.80933Z" fill="#009EE3"/>
<path fill-rule="evenodd" clip-rule="evenodd" d="M14.5448 9.72258C15.1731 9.72258 15.7484 10.0739 15.6732 10.9454C15.5758 11.9857 15.036 12.5606 14.1864 12.5606H13.443C13.3368 12.5606 13.2837 12.6518 13.2571 12.8343L13.1111 13.7788C13.089 13.9202 13.0182 13.9932 12.912 13.9932H12.2217C12.111 13.9932 12.0712 13.9202 12.0978 13.756L12.6686 9.97353C12.6951 9.78646 12.7659 9.71802 12.8898 9.71802H14.5448V9.72258ZM13.4164 11.7484H13.9784C14.3324 11.7347 14.5669 11.4838 14.589 11.0275C14.6023 10.7492 14.4209 10.5484 14.1288 10.5484L13.5978 10.553L13.4164 11.7484ZM17.5538 13.7058C17.6157 13.6465 17.6821 13.6145 17.6733 13.6875L17.6511 13.8609C17.6379 13.9522 17.6733 14.0024 17.7573 14.0024H18.3724C18.4742 14.0024 18.5273 13.9613 18.5538 13.7925L18.9344 11.3378C18.9521 11.2146 18.9255 11.1553 18.8326 11.1553H18.1556C18.0936 11.1553 18.0671 11.1918 18.0494 11.2876L18.0228 11.4381C18.0096 11.5157 17.9742 11.5294 17.9432 11.4518C17.8281 11.1735 17.5361 11.0458 17.129 11.0549C16.182 11.0731 15.5404 11.8168 15.474 12.7704C15.4209 13.505 15.9342 14.0845 16.6068 14.0845C17.0892 14.0891 17.306 13.9385 17.5538 13.7058ZM17.0361 13.3271C16.629 13.3271 16.3413 12.9894 16.4033 12.5788C16.4652 12.1682 16.8458 11.8305 17.2529 11.8305C17.66 11.8305 17.9476 12.1682 17.8857 12.5788C17.8237 12.9894 17.4432 13.3271 17.0361 13.3271ZM20.1291 11.1507H19.5052C19.3769 11.1507 19.3238 11.2511 19.3636 11.3697L20.138 13.7058L19.3769 14.8191C19.3149 14.9103 19.3636 14.997 19.4521 14.997H20.1513C20.2353 15.0061 20.315 14.9651 20.3592 14.8921L22.7399 11.3697C22.8195 11.2648 22.7886 11.1507 22.6647 11.1507H22.0009C21.8859 11.1507 21.8416 11.1963 21.7752 11.2967L20.784 12.7796L20.3415 11.2921C20.315 11.2009 20.253 11.1507 20.1291 11.1507Z" fill="#113984"/>
<path fill-rule="evenodd" clip-rule="evenodd" d="M25.2264 9.72258C25.8548 9.72258 26.43 10.0739 26.3548 10.9454C26.2575 11.9857 25.7176 12.5606 24.868 12.5606H24.1246C24.0184 12.5606 23.9653 12.6518 23.9388 12.8343L23.7927 13.7788C23.7706 13.9202 23.6998 13.9932 23.5936 13.9932H22.9033C22.7927 13.9932 22.7529 13.9202 22.7794 13.756L23.3502 9.97353C23.3768 9.78646 23.4476 9.71802 23.5715 9.71802L25.2264 9.72258ZM24.0981 11.7484H24.66C25.014 11.7347 25.2486 11.4838 25.2707 11.0275C25.284 10.7492 25.1025 10.5484 24.8105 10.5484L24.2795 10.553L24.0981 11.7484ZM28.2354 13.7058C28.2974 13.6465 28.3638 13.6145 28.3549 13.6875L28.3328 13.8609C28.3195 13.9522 28.3549 14.0024 28.439 14.0024H29.0541C29.1558 14.0024 29.2089 13.9613 29.2355 13.7925L29.616 11.3378C29.6337 11.2146 29.6072 11.1553 29.5143 11.1553H28.8372C28.7753 11.1553 28.7487 11.1918 28.731 11.2876L28.7045 11.4381C28.6912 11.5157 28.6558 11.5294 28.6248 11.4518C28.5098 11.1735 28.2177 11.0458 27.8106 11.0549C26.8637 11.0731 26.2221 11.8168 26.1557 12.7704C26.1026 13.505 26.6159 14.0845 27.2885 14.0845C27.7708 14.0891 27.9921 13.9385 28.2354 13.7058ZM27.7177 13.3271C27.3106 13.3271 27.023 12.9894 27.0849 12.5788C27.1469 12.1682 27.5274 11.8305 27.9345 11.8305C28.3416 11.8305 28.6293 12.1682 28.5673 12.5788C28.5054 12.9894 28.1292 13.3271 27.7177 13.3271ZM30.5541 14.0069H29.8461C29.8019 14.0069 29.7621 13.9704 29.7576 13.9248C29.7576 13.9202 29.7576 13.9157 29.7576 13.9065L30.3816 9.83208C30.3948 9.77277 30.4435 9.73171 30.501 9.73171H31.209C31.2533 9.73171 31.2931 9.76821 31.2975 9.81383C31.2975 9.8184 31.2975 9.82296 31.2975 9.83208L30.6736 13.9065C30.6603 13.9659 30.6117 14.0069 30.5541 14.0069Z" fill="#009EE3"/>
<path fill-rule="evenodd" clip-rule="evenodd" d="M5.31002 8.20776H7.16852C7.69067 8.20776 8.31459 8.22601 8.73054 8.60472C9.00932 8.85566 9.15534 9.26174 9.11994 9.69519C9.00489 11.1598 8.15529 11.9811 7.01807 11.9811H6.10209C5.94722 11.9811 5.84102 12.086 5.79677 12.378L5.54012 14.0617C5.52242 14.1712 5.47817 14.235 5.39409 14.2442H4.25244C4.12412 14.2442 4.07987 14.1438 4.11527 13.9248L4.93832 8.53171C4.96929 8.31271 5.08434 8.20776 5.31002 8.20776Z" fill="#113984"/>
<path fill-rule="evenodd" clip-rule="evenodd" d="M5.82812 12.2047L6.15115 10.0831C6.1777 9.89602 6.27948 9.80933 6.47418 9.80933H8.33267C8.638 9.80933 8.89023 9.85952 9.08493 9.95077C8.89908 11.2557 8.08045 11.9812 7.0096 11.9812H6.09363C5.96973 11.9766 5.88123 12.0405 5.82812 12.2047Z" fill="#172C70"/>
</g>
<defs>
<clipPath id="clip0_24_2372">
<rect width="35.4" height="22.8133" fill="white" transform="translate(0 0.200195)"/>
</clipPath>
</defs>
</svg>
