<svg width="37" height="23" viewBox="0 0 37 23" fill="none" xmlns="http://www.w3.org/2000/svg">
<path d="M35.3835 22.8133H1.58985C0.716358 22.8133 0 22.1061 0 21.2438V1.56956C0 0.707213 0.716358 0 1.58985 0H35.3835C36.257 0 36.9733 0.707213 36.9733 1.56956V21.2438C36.9733 22.1061 36.257 22.8133 35.3835 22.8133Z" fill="url(#paint0_linear_24_2424)"/>
<path d="M18.9536 9.84612C18.9398 11.0552 20.0444 11.7259 20.8763 12.1275C21.7313 12.5381 22.0178 12.8027 22.0178 13.1677C22.0132 13.729 21.3338 13.9799 20.7006 13.989C19.5961 14.0073 18.9536 13.697 18.4453 13.4598L18.0478 15.2939C18.5608 15.5266 19.5082 15.732 20.488 15.7365C22.7942 15.7365 24.3055 14.6141 24.3102 12.8712C24.3194 10.6583 21.209 10.5351 21.2321 9.54955C21.2414 9.24841 21.5279 8.92903 22.1657 8.8469C22.48 8.80583 23.3488 8.7739 24.3333 9.22104L24.7215 7.44616C24.1946 7.25453 23.5106 7.07202 22.6648 7.07202C20.4927 7.07202 18.9675 8.21269 18.9536 9.84612ZM28.4281 7.22715C28.0075 7.22715 27.6516 7.46897 27.4945 7.84311L24.1992 15.6088H26.5054L26.963 14.3586H29.7776L30.0456 15.6088H32.0792L30.3045 7.22715H28.4281ZM28.7516 9.49023L29.4171 12.6385H27.5962L28.7516 9.49023ZM16.1575 7.22715L14.3412 15.6088H16.5365L18.3528 7.22715H16.1575ZM12.9085 7.22715L10.6208 12.9305L9.69644 8.08037C9.59014 7.53741 9.16033 7.22715 8.6843 7.22715H4.94537L4.89453 7.46897C5.66173 7.63323 6.53522 7.89786 7.06209 8.18075C7.38561 8.35413 7.47804 8.5047 7.58434 8.91534L9.33595 15.6042H11.656L15.2147 7.22259H12.9085" fill="white"/>
<defs>
<linearGradient id="paint0_linear_24_2424" x1="0" y1="11.4067" x2="36.9733" y2="11.4067" gradientUnits="userSpaceOnUse">
<stop stop-color="#222357"/>
<stop offset="1" stop-color="#254AA5"/>
</linearGradient>
</defs>
</svg>
