<svg width="14" height="13" viewBox="0 0 14 13" fill="none" xmlns="http://www.w3.org/2000/svg">
<g clip-path="url(#clip0_1_2308)">
<path d="M13.6567 2.33859C13.5076 2.16863 13.3183 2.03146 13.1027 1.93732C12.8872 1.84318 12.6511 1.79451 12.4119 1.79492H10.9253C10.8978 1.79492 10.8705 1.79991 10.8451 1.8096C10.8198 1.81929 10.7968 1.83349 10.7775 1.85136C10.7583 1.86923 10.7431 1.89042 10.733 1.91368C10.7229 1.93694 10.718 1.9618 10.7186 1.98681V2.8183C10.718 2.8433 10.7229 2.86816 10.733 2.89142C10.7431 2.91468 10.7583 2.93587 10.7775 2.95374C10.7968 2.97161 10.8198 2.98581 10.8451 2.9955C10.8705 3.00519 10.8978 3.01018 10.9253 3.01018H12.4119C12.4502 3.00987 12.488 3.01765 12.5223 3.03292C12.5567 3.04818 12.5866 3.07051 12.6099 3.09812C12.6317 3.12396 12.6473 3.1537 12.6556 3.18538C12.6639 3.21706 12.6648 3.24999 12.6582 3.28201C12.5267 3.8711 12.2348 4.42084 11.8094 4.88103C11.5252 5.16717 11.1669 5.38428 10.7669 5.51264C10.7331 5.52242 10.7027 5.54013 10.6787 5.56399C10.6548 5.58785 10.6382 5.61701 10.6306 5.64855C10.5564 5.96441 10.4319 6.26875 10.2611 6.552C10.2399 6.58177 10.2286 6.61647 10.2286 6.65194C10.2286 6.6874 10.2399 6.72211 10.2611 6.75187C10.2801 6.77712 10.3058 6.79765 10.3357 6.81161C10.3657 6.82557 10.399 6.83252 10.4327 6.83183H10.4678C11.3598 6.70595 12.1777 6.30679 12.7858 5.70052C13.3667 5.09206 13.7664 4.35853 13.947 3.56983C14.0041 3.35801 14.0076 3.13717 13.9574 2.92392C13.9071 2.71066 13.8043 2.51054 13.6567 2.33859Z" fill="#FFD039"/>
<path d="M11.8753 4.90881V4.79688L11.8094 4.86084C11.5252 5.14698 11.1669 5.36409 10.7669 5.49245C10.7331 5.50223 10.7027 5.51994 10.6787 5.5438C10.6548 5.56766 10.6382 5.59682 10.6306 5.62836C10.5564 5.94422 10.4319 6.24856 10.2611 6.53181C10.2399 6.56158 10.2286 6.59628 10.2286 6.63175C10.2286 6.66721 10.2399 6.70192 10.2611 6.73168C10.2801 6.75693 10.3058 6.77746 10.3357 6.79142C10.3657 6.80538 10.399 6.81233 10.4327 6.81164H10.4678C10.8033 6.75964 11.131 6.67245 11.4443 6.55179C11.7226 6.04072 11.8699 5.47902 11.8753 4.90881Z" fill="#F4B70C"/>
<path d="M10.7189 1.9988V2.81829C10.7183 2.8433 10.7232 2.86816 10.7334 2.89142C10.7435 2.91468 10.7586 2.93587 10.7779 2.95374C10.7971 2.97161 10.8201 2.98581 10.8455 2.9955C10.8709 3.00519 10.8981 3.01018 10.9256 3.01018H11.8757V1.81091H10.9256C10.8985 1.81091 10.8716 1.81577 10.8465 1.82521C10.8215 1.83466 10.7987 1.8485 10.7795 1.86594C10.7603 1.88339 10.745 1.9041 10.7347 1.9269C10.7243 1.94969 10.7189 1.97412 10.7189 1.9988Z" fill="#F4B70C"/>
<path d="M8.57687 11.2131C8.51529 11.1692 7.9523 10.7414 7.88192 8.41486C7.88123 8.38746 7.87422 8.36048 7.86134 8.3357C7.84846 8.31091 7.83 8.28885 7.80715 8.27095C7.75778 8.23803 7.69633 8.22371 7.63562 8.23098C7.42646 8.26432 7.2146 8.2817 7.00225 8.28294C6.78844 8.28187 6.5751 8.26448 6.36449 8.23098C6.30378 8.22371 6.24232 8.23803 6.19295 8.27095C6.1701 8.28885 6.15164 8.31091 6.13876 8.3357C6.12588 8.36048 6.11887 8.38746 6.11818 8.41486C6.0478 10.7334 5.48481 11.1612 5.42324 11.2131C5.37656 11.2245 5.33623 11.2513 5.31019 11.2883C5.28414 11.3252 5.27426 11.3697 5.28249 11.413C5.29175 11.46 5.31883 11.5025 5.35901 11.5331C5.39919 11.5638 5.44993 11.5807 5.50241 11.5809H8.49769C8.55017 11.5807 8.60091 11.5638 8.64109 11.5331C8.68128 11.5025 8.70835 11.46 8.71761 11.413C8.72584 11.3697 8.71596 11.3252 8.68991 11.2883C8.66387 11.2513 8.62354 11.2245 8.57687 11.2131Z" fill="#FFBB64"/>
<path d="M8.57589 11.2135C8.51431 11.1695 7.95132 10.7418 7.88095 8.41523C7.88026 8.38782 7.87325 8.36085 7.86037 8.33606C7.84749 8.31127 7.82903 8.28921 7.80618 8.27132C7.75681 8.23839 7.69535 8.22407 7.63464 8.23134C7.42548 8.26468 7.21362 8.28206 7.00128 8.28331H6.79895C6.82067 8.30096 6.83813 8.3225 6.85024 8.34658C6.86235 8.37066 6.86885 8.39675 6.86932 8.42322C6.9397 10.7418 7.49829 11.1695 7.56427 11.2215C7.61094 11.2328 7.65127 11.2596 7.67731 11.2966C7.70336 11.3336 7.71324 11.3781 7.70501 11.4214C7.69647 11.4704 7.66852 11.515 7.62641 11.5466C7.58429 11.5783 7.53092 11.5949 7.4763 11.5933H8.49232C8.5448 11.5931 8.59554 11.5762 8.63572 11.5455C8.6759 11.5148 8.70298 11.4723 8.71224 11.4254C8.72438 11.3809 8.71692 11.3338 8.69145 11.2943C8.66598 11.2547 8.62452 11.2257 8.57589 11.2135Z" fill="#FFAE47"/>
<path d="M0.347518 2.33859C0.495445 2.1685 0.683962 2.03118 0.898831 1.937C1.1137 1.84282 1.34931 1.79424 1.58786 1.79493H3.0789C3.10722 1.79538 3.13514 1.80112 3.16092 1.81179C3.1867 1.82246 3.20979 1.83783 3.22876 1.85695C3.24774 1.87606 3.26218 1.89852 3.27121 1.92292C3.28023 1.94732 3.28364 1.97315 3.28123 1.9988V2.8183C3.28181 2.84297 3.27704 2.86751 3.26719 2.89051C3.25734 2.91351 3.24259 2.93452 3.2238 2.95234C3.20502 2.97016 3.18255 2.98444 3.15769 2.99436C3.13282 3.00429 3.10605 3.00966 3.0789 3.01018H1.58786C1.54962 3.00987 1.51183 3.01766 1.47747 3.03292C1.44312 3.04818 1.41315 3.07051 1.38993 3.09813C1.3681 3.12397 1.35252 3.1537 1.34418 3.18538C1.33584 3.21707 1.33495 3.24999 1.34155 3.28201C1.4731 3.8711 1.76494 4.42084 2.19043 4.88103C2.47461 5.16717 2.83293 5.38428 3.23285 5.51264C3.2667 5.52242 3.29713 5.54013 3.32106 5.56399C3.345 5.58785 3.3616 5.61702 3.3692 5.64856C3.44343 5.96441 3.56789 6.26875 3.73866 6.552C3.75986 6.58177 3.77115 6.61648 3.77115 6.65194C3.77115 6.6874 3.75986 6.72211 3.73866 6.75188C3.71964 6.77712 3.69399 6.79766 3.66404 6.81162C3.63409 6.82558 3.60078 6.83252 3.56712 6.83183H3.51874C2.62677 6.70595 1.80893 6.30679 1.2008 5.70053C0.617234 5.08753 0.217319 4.3482 0.039632 3.55385C-0.0132645 3.3433 -0.0130443 3.1246 0.0402761 2.91414C0.0935965 2.70368 0.198634 2.50692 0.347518 2.33859Z" fill="#FFD039"/>
<path d="M2.12512 4.90881V4.79688L2.1911 4.86084C2.47528 5.14698 2.83359 5.36409 3.23351 5.49245C3.26737 5.50223 3.29779 5.51994 3.32173 5.5438C3.34566 5.56766 3.36226 5.59682 3.36986 5.62836C3.4441 5.94422 3.56856 6.24856 3.73932 6.53181C3.76053 6.56158 3.77181 6.59628 3.77181 6.63175C3.77181 6.66721 3.76053 6.70192 3.73932 6.73168C3.7203 6.75693 3.69466 6.77746 3.6647 6.79142C3.63475 6.80538 3.60144 6.81233 3.56779 6.81164H3.5194C3.1841 6.75909 2.8565 6.67191 2.54297 6.55179C2.26926 6.03974 2.12642 5.47809 2.12512 4.90881Z" fill="#F4B70C"/>
<path d="M3.28189 1.99892V2.81842C3.28248 2.84309 3.27771 2.86763 3.26785 2.89063C3.258 2.91362 3.24326 2.93463 3.22447 2.95245C3.20568 2.97027 3.18321 2.98455 3.15835 2.99448C3.13349 3.0044 3.10672 3.00978 3.07957 3.0103H2.12512V1.81104H3.07957C3.13363 1.81208 3.18509 1.83234 3.22291 1.86746C3.26073 1.90258 3.2819 1.94977 3.28189 1.99892Z" fill="#F4B70C"/>
<path d="M10.9256 1.10332H3.07892C3.05103 1.10278 3.02331 1.10737 2.99742 1.11682C2.97154 1.12627 2.94803 1.14038 2.9283 1.15831C2.90857 1.17624 2.89305 1.19761 2.88265 1.22113C2.87225 1.24466 2.8672 1.26986 2.8678 1.2952V4.89299C2.84971 5.39703 2.94333 5.89924 3.14307 6.36974C3.34282 6.84024 3.64462 7.26944 4.03053 7.6318C4.41644 7.99417 4.87858 8.28231 5.38948 8.4791C5.90037 8.67588 6.44958 8.77729 7.00446 8.77729C7.55934 8.77729 8.10856 8.67588 8.61945 8.4791C9.13034 8.28231 9.59248 7.99417 9.97839 7.6318C10.3643 7.26944 10.6661 6.84024 10.8659 6.36974C11.0656 5.89924 11.1592 5.39703 11.1411 4.89299V1.2952C11.1418 1.26951 11.1366 1.24397 11.1259 1.22017C11.1152 1.19636 11.0993 1.1748 11.0791 1.15682C11.0589 1.13883 11.0349 1.1248 11.0085 1.1156C10.9821 1.1064 10.9539 1.10222 10.9256 1.10332Z" fill="#FFDF65"/>
<path d="M10.9258 1.10356H9.94941C9.97693 1.10355 10.0042 1.10854 10.0295 1.11823C10.0549 1.12792 10.0779 1.14212 10.0972 1.15999C10.1164 1.17787 10.1316 1.19905 10.1417 1.22231C10.1518 1.24557 10.1567 1.27043 10.1561 1.29544V4.89323C10.1558 5.81314 9.78459 6.70106 9.11271 7.38905C8.44082 8.07705 7.51484 8.51744 6.50989 8.62693C6.67321 8.64632 6.83779 8.65567 7.0025 8.65491C8.09908 8.6528 9.15001 8.25567 9.925 7.55056C10.7 6.84545 11.1358 5.88987 11.137 4.89323V1.29544C11.1376 1.27009 11.1325 1.2449 11.1221 1.22137C11.1117 1.19784 11.0962 1.17647 11.0765 1.15855C11.0567 1.14062 11.0332 1.1265 11.0073 1.11705C10.9815 1.1076 10.9537 1.10301 10.9258 1.10356Z" fill="#FFCD2C"/>
<path d="M8.82283 4.46524C8.88516 4.41063 8.92934 4.34119 8.95034 4.26485C8.97134 4.18852 8.9683 4.10835 8.94158 4.0335C8.91696 3.95798 8.86834 3.89075 8.80183 3.84026C8.73532 3.78976 8.65387 3.75825 8.56772 3.74968L7.79361 3.64574C7.78881 3.64786 7.78355 3.64897 7.77821 3.64897C7.77288 3.64897 7.76762 3.64786 7.76282 3.64574L7.41535 3.00614C7.37911 2.93486 7.32057 2.87485 7.24704 2.83362C7.17351 2.79239 7.08825 2.77175 7.0019 2.77428C6.91481 2.77095 6.8286 2.79121 6.75421 2.83249C6.67981 2.87377 6.62059 2.93421 6.58406 3.00614L6.23659 3.64574C6.23179 3.64786 6.22653 3.64897 6.22119 3.64897C6.21586 3.64897 6.21059 3.64786 6.2058 3.64574L5.43169 3.74968C5.34553 3.75825 5.26409 3.78976 5.19758 3.84026C5.13106 3.89075 5.08244 3.95798 5.05782 4.0335C5.0311 4.10835 5.02807 4.18852 5.04907 4.26485C5.07007 4.34119 5.11425 4.41063 5.17658 4.46524L5.71758 4.96093C5.72067 4.96651 5.72228 4.97268 5.72228 4.97892C5.72228 4.98517 5.72067 4.99133 5.71758 4.99691L5.58563 5.69648C5.57036 5.77412 5.57947 5.8541 5.61191 5.92725C5.64435 6.0004 5.69881 6.06377 5.76905 6.11008C5.83929 6.15639 5.92247 6.18379 6.00905 6.18911C6.09563 6.19444 6.18211 6.17749 6.25858 6.14021L6.94912 5.80841H7.03709L7.72763 6.14021C7.79447 6.17102 7.86821 6.18743 7.94315 6.18818C8.04099 6.18794 8.1363 6.15999 8.21585 6.10823C8.28569 6.06481 8.34026 6.004 8.37303 5.93309C8.40579 5.86219 8.41536 5.7842 8.40058 5.70847L8.26863 5.0089C8.26427 4.99724 8.26427 4.98459 8.26863 4.97293L8.82283 4.46524Z" fill="#FFA035"/>
<path d="M8.56879 3.74966L8.35767 3.72168L7.36364 4.59714C7.33368 4.62291 7.31119 4.655 7.29814 4.69056C7.2851 4.72613 7.28191 4.76406 7.28886 4.80102L7.51758 6.04425L7.71111 6.14019C7.77794 6.171 7.85169 6.18742 7.92663 6.18816C8.02446 6.18792 8.11978 6.15997 8.19933 6.10821C8.26916 6.06479 8.32374 6.00398 8.3565 5.93307C8.38927 5.86217 8.39884 5.78418 8.38406 5.70846L8.25211 5.00889C8.24775 4.99722 8.24775 4.98458 8.25211 4.97291L8.8107 4.47721C8.87303 4.4226 8.91721 4.35317 8.93821 4.27683C8.95921 4.20049 8.95617 4.12033 8.92945 4.04548C8.90795 3.96943 8.86228 3.90082 8.79814 3.84821C8.734 3.7956 8.65423 3.76133 8.56879 3.74966Z" fill="#F78819"/>
<path d="M11.048 12.7484C10.9315 12.3232 10.6685 11.9429 10.2974 11.6631C9.9263 11.3834 9.46649 11.2188 8.98514 11.1934H5.02661C4.54584 11.2185 4.08646 11.3825 3.71541 11.6615C3.34437 11.9405 3.08103 12.3199 2.96378 12.7444C2.95326 12.7732 2.95057 12.8039 2.95593 12.8338C2.96129 12.8637 2.97455 12.892 2.99456 12.9163C3.01437 12.9408 3.04018 12.9608 3.06995 12.9747C3.09972 12.9886 3.13264 12.9959 3.1661 12.9962H10.8632C10.896 12.9956 10.9282 12.9881 10.9572 12.9742C10.9862 12.9603 11.0113 12.9405 11.0304 12.9163C11.0475 12.8915 11.058 12.8634 11.0611 12.8342C11.0641 12.8051 11.0596 12.7757 11.048 12.7484Z" fill="#FFDF65"/>
<path d="M11.0497 12.7484C10.9333 12.3232 10.6703 11.9429 10.2992 11.6631C9.92804 11.3834 9.46823 11.2188 8.98688 11.1934H7.37708C7.85785 11.2185 8.31722 11.3825 8.68827 11.6615C9.05932 11.9405 9.32265 12.3199 9.43991 12.7444C9.44938 12.7733 9.45153 12.8038 9.4462 12.8336C9.44086 12.8633 9.42819 12.8916 9.40912 12.9163C9.38932 12.9408 9.36351 12.9608 9.33374 12.9747C9.30396 12.9886 9.27104 12.9959 9.23758 12.9962H10.8518C10.8846 12.9956 10.9167 12.9881 10.9457 12.9742C10.9747 12.9603 10.9998 12.9405 11.0189 12.9163C11.0382 12.8925 11.0511 12.8649 11.0564 12.8357C11.0618 12.8065 11.0595 12.7766 11.0497 12.7484Z" fill="#FFCD2C"/>
<path d="M11.2682 0H2.73093C2.52489 0.0137586 2.33221 0.0978579 2.19157 0.235409C2.05094 0.372959 1.97278 0.553775 1.97278 0.741544C1.97278 0.929312 2.05094 1.11013 2.19157 1.24768C2.33221 1.38523 2.52489 1.46933 2.73093 1.48309H11.2682C11.4742 1.46933 11.6669 1.38523 11.8075 1.24768C11.9481 1.11013 12.0263 0.929312 12.0263 0.741544C12.0263 0.553775 11.9481 0.372959 11.8075 0.235409C11.6669 0.0978579 11.4742 0.0137586 11.2682 0Z" fill="#FFD039"/>
<path d="M11.2687 4.57072e-05H10.3186C10.4308 -0.0074454 10.5435 0.00617003 10.6496 0.0400414C10.7557 0.0739127 10.853 0.127312 10.9354 0.196903C11.0178 0.266495 11.0836 0.350783 11.1285 0.444501C11.1734 0.53822 11.1966 0.639355 11.1966 0.741589C11.1966 0.843823 11.1734 0.944959 11.1285 1.03868C11.0836 1.1324 11.0178 1.21668 10.9354 1.28628C10.853 1.35587 10.7557 1.40927 10.6496 1.44314C10.5435 1.47701 10.4308 1.49062 10.3186 1.48313H11.2687C11.4747 1.46937 11.6674 1.38528 11.808 1.24772C11.9486 1.11017 12.0268 0.929358 12.0268 0.741589C12.0268 0.553821 11.9486 0.373005 11.808 0.235454C11.6674 0.0979036 11.4747 0.0138043 11.2687 4.57072e-05Z" fill="#F4B70C"/>
</g>
<defs>
<clipPath id="clip0_1_2308">
<rect width="14" height="13" fill="white"/>
</clipPath>
</defs>
</svg>
