<svg width="14" height="14" viewBox="0 0 14 14" fill="none" xmlns="http://www.w3.org/2000/svg">
<g clip-path="url(#clip0_1_2331)">
<path d="M2.76186 12.2016C2.69106 12.2768 2.60594 12.3366 2.51165 12.3775C2.41736 12.4184 2.31586 12.4395 2.2133 12.4395C2.11074 12.4395 2.00924 12.4184 1.91495 12.3775C1.82066 12.3366 1.73554 12.2768 1.66474 12.2016C1.58932 12.1301 1.5292 12.0437 1.4881 11.9478C1.44699 11.8518 1.42578 11.7483 1.42578 11.6437C1.42578 11.539 1.44699 11.4355 1.4881 11.3396C1.5292 11.2436 1.58932 11.1572 1.66474 11.0857L7.28168 5.39474C7.35249 5.31956 7.43761 5.25972 7.5319 5.21883C7.62619 5.17794 7.72768 5.15686 7.83024 5.15686C7.93281 5.15686 8.0343 5.17794 8.12859 5.21883C8.22288 5.25972 8.308 5.31956 8.37881 5.39474C8.45422 5.4662 8.51434 5.5526 8.55545 5.64857C8.59655 5.74455 8.61776 5.84806 8.61776 5.95268C8.61776 6.0573 8.59655 6.1608 8.55545 6.25678C8.51434 6.35275 8.45422 6.43915 8.37881 6.51062L2.76186 12.2016Z" fill="#A35D17"/>
<path d="M8.37801 5.39478C8.45342 5.46624 8.51355 5.55264 8.55465 5.64861C8.59576 5.74459 8.61697 5.84809 8.61697 5.95272C8.61697 6.05734 8.59576 6.16084 8.55465 6.25682C8.51355 6.35279 8.45342 6.43919 8.37801 6.51066L2.76107 12.2016C2.69026 12.2768 2.60514 12.3367 2.51085 12.3776C2.41656 12.4184 2.31507 12.4395 2.2125 12.4395C2.10994 12.4395 2.00845 12.4184 1.91416 12.3776C1.81987 12.3367 1.73475 12.2768 1.66394 12.2016" fill="#6B400C"/>
<path d="M2.60515 13.6137C2.52204 13.6988 2.42308 13.7664 2.31401 13.8125C2.20495 13.8586 2.08794 13.8824 1.96975 13.8824C1.85157 13.8824 1.73456 13.8586 1.62549 13.8125C1.51643 13.7664 1.41747 13.6988 1.33435 13.6137L0.271114 12.545C0.187605 12.4605 0.121357 12.3602 0.0761562 12.2497C0.0309558 12.1392 0.00769043 12.0208 0.00769043 11.9012C0.00769043 11.7817 0.0309558 11.6632 0.0761562 11.5528C0.121357 11.4423 0.187605 11.342 0.271114 11.2575C0.354232 11.1723 0.453188 11.1048 0.562254 11.0586C0.67132 11.0125 0.788331 10.9888 0.906515 10.9888C1.0247 10.9888 1.14171 11.0125 1.25078 11.0586C1.35984 11.1048 1.4588 11.1723 1.54192 11.2575L2.59668 12.3304C2.6807 12.4146 2.7474 12.5149 2.79292 12.6254C2.83844 12.7359 2.86188 12.8545 2.86188 12.9742C2.86188 13.0939 2.83844 13.2125 2.79292 13.323C2.7474 13.4335 2.6807 13.5338 2.59668 13.618L2.60515 13.6137Z" fill="#F4AD31"/>
<path d="M1.5499 11.2449L2.60466 12.3178C2.68868 12.402 2.75538 12.5023 2.8009 12.6128C2.84642 12.7233 2.86986 12.8419 2.86986 12.9616C2.86986 13.0814 2.84642 13.1999 2.8009 13.3104C2.75538 13.4209 2.68868 13.5212 2.60466 13.6054C2.52155 13.6905 2.42259 13.7581 2.31352 13.8042C2.20446 13.8503 2.08745 13.8741 1.96926 13.8741C1.85108 13.8741 1.73407 13.8503 1.625 13.8042C1.51594 13.7581 1.41698 13.6905 1.33386 13.6054" fill="#DD820A"/>
<path d="M11.9961 7.51061C11.0557 8.46769 10.0433 7.93979 9.0987 6.987L6.77737 4.64365C5.84121 3.68657 5.3456 2.66511 6.26904 1.71661L6.67146 1.28743C7.62457 0.343223 8.6285 0.858244 9.57313 1.81962L11.886 4.16726C12.8306 5.12005 13.322 6.1458 12.4028 7.10288L11.9961 7.51061Z" fill="#F4AD31"/>
<path d="M9.57341 1.84546L11.8863 4.18881C12.8309 5.14589 13.3223 6.16735 12.4031 7.12443L11.9795 7.55361C11.0391 8.5064 10.0267 7.9828 9.08203 7.03001" fill="#DD820A"/>
<path d="M5.7737 3.36904C5.6866 3.45554 5.5695 3.50399 5.44753 3.50399C5.32556 3.50399 5.20846 3.45554 5.12136 3.36904C5.03598 3.28079 4.98816 3.16214 4.98816 3.03857C4.98816 2.91499 5.03598 2.79634 5.12136 2.70809L7.62484 0.137278C7.66741 0.0934173 7.71818 0.0585823 7.77418 0.0348039C7.83018 0.0110255 7.89029 -0.0012207 7.95101 -0.0012207C8.01173 -0.0012207 8.07184 0.0110255 8.12784 0.0348039C8.18384 0.0585823 8.23461 0.0934173 8.27718 0.137278C8.32047 0.180415 8.35485 0.231852 8.37832 0.28859C8.40179 0.345328 8.41388 0.406231 8.41388 0.46775C8.41388 0.529269 8.40179 0.590173 8.37832 0.646911C8.35485 0.703648 8.32047 0.755085 8.27718 0.798222L5.7737 3.36904Z" fill="#F4AD31"/>
<path d="M8.2895 0.137451C8.33279 0.180588 8.36718 0.232025 8.39065 0.288763C8.41411 0.345501 8.4262 0.406404 8.4262 0.467923C8.4262 0.529442 8.41411 0.590346 8.39065 0.647084C8.36718 0.703821 8.33279 0.755258 8.2895 0.798395L5.77332 3.3735C5.68622 3.46 5.56911 3.50846 5.44714 3.50846C5.32518 3.50846 5.20807 3.46 5.12097 3.3735" fill="#DD820A"/>
<path d="M11.0132 8.69521C10.971 8.73895 10.9206 8.77369 10.8649 8.79742C10.8093 8.82114 10.7495 8.83336 10.6891 8.83336C10.6288 8.83336 10.569 8.82114 10.5134 8.79742C10.4577 8.77369 10.4073 8.73895 10.3651 8.69521C10.3218 8.65208 10.2874 8.60064 10.2639 8.5439C10.2405 8.48716 10.2284 8.42626 10.2284 8.36474C10.2284 8.30322 10.2405 8.24232 10.2639 8.18558C10.2874 8.12884 10.3218 8.07741 10.3651 8.03427L12.8813 5.48491C12.9677 5.39868 13.0841 5.35034 13.2053 5.35034C13.3266 5.35034 13.443 5.39868 13.5294 5.48491C13.5727 5.52805 13.6071 5.57949 13.6305 5.63622C13.654 5.69296 13.6661 5.75387 13.6661 5.81538C13.6661 5.8769 13.654 5.93781 13.6305 5.99454C13.6071 6.05128 13.5727 6.10272 13.5294 6.14586L11.0132 8.69521Z" fill="#F4AD31"/>
<path d="M13.5548 5.48511C13.6402 5.57336 13.688 5.69201 13.688 5.81558C13.688 5.93915 13.6402 6.0578 13.5548 6.14605L11.0132 8.69541C10.971 8.73914 10.9206 8.77389 10.865 8.79761C10.8093 8.82134 10.7495 8.83356 10.6892 8.83356C10.6288 8.83356 10.569 8.82134 10.5134 8.79761C10.4577 8.77389 10.4073 8.73914 10.3651 8.69541" fill="#DD820A"/>
<path d="M8.69659 7.12439C8.61781 7.20048 8.51315 7.24293 8.4043 7.24293C8.29546 7.24293 8.1908 7.20048 8.11202 7.12439L6.69719 5.69091C6.62209 5.6111 6.5802 5.50505 6.5802 5.39478C6.5802 5.2845 6.62209 5.17846 6.69719 5.09864C6.77597 5.02255 6.88064 4.9801 6.98948 4.9801C7.09832 4.9801 7.20298 5.02255 7.28176 5.09864L8.69659 6.53212C8.77169 6.61193 8.81358 6.71798 8.81358 6.82825C8.81358 6.93853 8.77169 7.04457 8.69659 7.12439Z" fill="#DD820A"/>
<path d="M13.75 11.4978H9.03113V13.545H13.75V11.4978Z" fill="#FF2F4E"/>
<path d="M9.03113 11.4978H13.75V13.545" fill="#EA1B42"/>
<path d="M13.9788 13.8196C13.9788 13.8674 13.9601 13.9133 13.9267 13.9471C13.8933 13.9809 13.8481 13.9999 13.8009 13.9999H8.98879C8.96507 14.0005 8.94148 13.9962 8.9194 13.9874C8.89733 13.9786 8.87721 13.9654 8.86024 13.9486C8.84327 13.9318 8.82978 13.9118 8.82058 13.8896C8.81137 13.8675 8.80663 13.8437 8.80664 13.8196V13.7037C8.80663 13.6797 8.81137 13.6559 8.82058 13.6338C8.82978 13.6116 8.84327 13.5915 8.86024 13.5747C8.87721 13.5579 8.89733 13.5448 8.9194 13.536C8.94148 13.5272 8.96507 13.5229 8.98879 13.5235H13.8178C13.8416 13.5229 13.8651 13.5272 13.8872 13.536C13.9093 13.5448 13.9294 13.5579 13.9464 13.5747C13.9634 13.5915 13.9768 13.6116 13.986 13.6338C13.9953 13.6559 14 13.6797 14 13.7037V13.8196H13.9788Z" fill="#CE0D3B"/>
<path d="M13.9789 11.3133C13.9794 11.3373 13.9752 11.3612 13.9665 11.3836C13.9579 11.4059 13.9448 11.4263 13.9283 11.4435C13.9117 11.4607 13.8919 11.4744 13.87 11.4837C13.8482 11.493 13.8247 11.4978 13.8009 11.4978H8.98884C8.96476 11.4984 8.94082 11.494 8.91845 11.485C8.89609 11.4759 8.87578 11.4623 8.85875 11.4451C8.84172 11.4278 8.82832 11.4072 8.81937 11.3846C8.81043 11.3619 8.80611 11.3377 8.80669 11.3133V11.2017C8.80611 11.1773 8.81043 11.153 8.81937 11.1304C8.82832 11.1077 8.84172 11.0871 8.85875 11.0699C8.87578 11.0526 8.89609 11.0391 8.91845 11.03C8.94082 11.0209 8.96476 11.0166 8.98884 11.0171H13.8179C13.8662 11.0171 13.9125 11.0366 13.9467 11.0712C13.9808 11.1058 14 11.1527 14 11.2017V11.3133H13.9789Z" fill="#CE0D3B"/>
</g>
<defs>
<clipPath id="clip0_1_2331">
<rect width="14" height="14" fill="white"/>
</clipPath>
</defs>
</svg>
