<svg width="26" height="31" viewBox="0 0 26 31" fill="none" xmlns="http://www.w3.org/2000/svg">
<path fill-rule="evenodd" clip-rule="evenodd" d="M0 4.82532C0 2.61913 2.04968 0.99131 4.18569 1.50113L13.8371 3.8047C15.3695 4.17046 16.4514 5.54607 16.4514 7.12889V11.7754C16.4514 12.1528 16.1469 12.4587 15.7714 12.4587C15.3958 12.4587 15.0914 12.1528 15.0914 11.7754V7.12889C15.0914 6.17919 14.4423 5.35383 13.5228 5.13437L3.87142 2.8308C2.58981 2.52491 1.36 3.5016 1.36 4.82532V26.7288C1.36 27.8609 2.27335 28.7788 3.4 28.7788H15.0914V17.2154C15.0914 16.8381 15.3958 16.5321 15.7714 16.5321C16.1469 16.5321 16.4514 16.8381 16.4514 17.2154V29.4621C16.4514 29.8396 16.1469 30.1455 15.7714 30.1455H3.4C1.52223 30.1455 0 28.6158 0 26.7288V4.82532Z" fill="#003566"/>
<path fill-rule="evenodd" clip-rule="evenodd" d="M3.58203 8.21056C3.58203 7.83316 3.88648 7.52722 4.26203 7.52722H6.41268C6.78823 7.52722 7.09268 7.83316 7.09268 8.21056C7.09268 8.58795 6.78823 8.89389 6.41268 8.89389H4.26203C3.88648 8.89389 3.58203 8.58795 3.58203 8.21056ZM9.35395 8.21056C9.35395 7.83316 9.65847 7.52722 10.034 7.52722H12.1845C12.5602 7.52722 12.8645 7.83316 12.8645 8.21056C12.8645 8.58795 12.5602 8.89389 12.1845 8.89389H10.034C9.65847 8.89389 9.35395 8.58795 9.35395 8.21056ZM3.58203 13.2533C3.58203 12.8759 3.88648 12.57 4.26203 12.57H6.41268C6.78823 12.57 7.09268 12.8759 7.09268 13.2533C7.09268 13.6307 6.78823 13.9367 6.41268 13.9367H4.26203C3.88648 13.9367 3.58203 13.6307 3.58203 13.2533ZM9.35395 13.2533C9.35395 12.8759 9.65847 12.57 10.034 12.57H12.1845C12.5602 12.57 12.8645 12.8759 12.8645 13.2533C12.8645 13.6307 12.5602 13.9367 12.1845 13.9367H10.034C9.65847 13.9367 9.35395 13.6307 9.35395 13.2533ZM3.58203 19.0164C3.58203 18.6391 3.88648 18.3331 4.26203 18.3331H6.41268C6.78823 18.3331 7.09268 18.6391 7.09268 19.0164C7.09268 19.3939 6.78823 19.6998 6.41268 19.6998H4.26203C3.88648 19.6998 3.58203 19.3939 3.58203 19.0164ZM9.35395 19.0164C9.35395 18.6391 9.65847 18.3331 10.034 18.3331H12.1845C12.5602 18.3331 12.8645 18.6391 12.8645 19.0164C12.8645 19.3939 12.5602 19.6998 12.1845 19.6998H10.034C9.65847 19.6998 9.35395 19.3939 9.35395 19.0164Z" fill="#003566"/>
<path fill-rule="evenodd" clip-rule="evenodd" d="M15.0918 16.9043C15.0918 14.5085 17.4817 12.8567 19.708 13.7138L23.6244 15.2215C24.9397 15.7279 25.8081 16.9967 25.8081 18.412V26.7289C25.8081 28.6158 24.2858 30.1455 22.4081 30.1455H19.0899C18.7143 30.1455 18.4099 29.8395 18.4099 29.4622C18.4099 29.0847 18.7143 28.7789 19.0899 28.7789H22.4081C23.5347 28.7789 24.4481 27.861 24.4481 26.7289V18.412C24.4481 17.5628 23.927 16.8015 23.1378 16.4977L19.2216 14.99C17.8858 14.4757 16.4518 15.4669 16.4518 16.9043V29.4622C16.4518 29.8395 16.1473 30.1455 15.7718 30.1455C15.3962 30.1455 15.0918 29.8395 15.0918 29.4622V16.9043Z" fill="#003566"/>
<path fill-rule="evenodd" clip-rule="evenodd" d="M20.2842 4.11888C20.2842 3.74149 19.9797 3.43555 19.6042 3.43555H18.3109C17.9354 3.43555 17.6309 3.74149 17.6309 4.11888C17.6309 4.49629 17.9354 4.80221 18.3109 4.80221H19.6042C19.9797 4.80221 20.2842 4.49629 20.2842 4.11888Z" fill="#003566"/>
<path fill-rule="evenodd" clip-rule="evenodd" d="M16.8588 0.0234532C16.4961 -0.0742238 16.1232 0.142114 16.0261 0.506645L15.6913 1.76207C15.5942 2.1266 15.8095 2.5013 16.1722 2.59897C16.5349 2.69665 16.9078 2.48032 17.005 2.11577L17.3397 0.860366C17.437 0.495821 17.2217 0.121136 16.8588 0.0234532Z" fill="#003566"/>
<path fill-rule="evenodd" clip-rule="evenodd" d="M18.2441 19.0165C18.2441 18.639 18.5486 18.3331 18.9241 18.3331H21.9719C22.3475 18.3331 22.6519 18.639 22.6519 19.0165C22.6519 19.3938 22.3475 19.6998 21.9719 19.6998H18.9241C18.5486 19.6998 18.2441 19.3938 18.2441 19.0165ZM18.2441 22.6185C18.2441 22.241 18.5486 21.9351 18.9241 21.9351H21.9719C22.3475 21.9351 22.6519 22.241 22.6519 22.6185C22.6519 22.9958 22.3475 23.3018 21.9719 23.3018H18.9241C18.5486 23.3018 18.2441 22.9958 18.2441 22.6185Z" fill="#003566"/>
<path fill-rule="evenodd" clip-rule="evenodd" d="M6.78805 24.4478C6.4125 24.4478 6.10805 24.7538 6.10805 25.1312V28.7418C6.10805 29.1192 5.80361 29.4251 5.42805 29.4251C5.0525 29.4251 4.74805 29.1192 4.74805 28.7418V25.1312C4.74805 23.999 5.6614 23.0812 6.78805 23.0812H9.6597C10.7863 23.0812 11.6997 23.999 11.6997 25.1312V28.7418C11.6997 29.1192 11.3953 29.4251 11.0197 29.4251C10.6442 29.4251 10.3397 29.1192 10.3397 28.7418V25.1312C10.3397 24.7538 10.0353 24.4478 9.6597 24.4478H6.78805Z" fill="#003566"/>
</svg>
