<svg width="27" height="29" viewBox="0 0 27 29" fill="none" xmlns="http://www.w3.org/2000/svg">
<path d="M18.1836 9.3361C18.1836 11.0309 19.5624 12.4121 21.2544 12.4121C22.9464 12.4121 24.3252 11.0309 24.3252 9.3361C24.3252 7.64125 22.9464 6.26013 21.2544 6.26013C19.5624 6.26013 18.1836 7.64125 18.1836 9.3361ZM21.2544 7.02101C22.5288 7.02101 23.5656 8.05956 23.5656 9.3361C23.5656 10.6126 22.5288 11.6512 21.2544 11.6512C19.98 11.6512 18.9432 10.6126 18.9432 9.3361C18.9432 8.05956 19.98 7.02101 21.2544 7.02101Z" fill="#003566"/>
<path d="M18.6186 21.4345V20.7493V15.6251V15.1455C18.6186 13.2199 17.0562 11.6512 15.1374 11.6512H11.4438C9.52498 11.6512 7.96259 13.2199 7.96259 15.1455V15.6179C7.96259 15.6215 7.95898 15.6251 7.95898 15.6287V21.4381C7.95898 22.1809 8.56378 22.7868 9.30538 22.7868C9.51778 22.7868 9.71579 22.7327 9.89219 22.6461V28.4699C9.89219 28.6791 10.0614 28.8522 10.2738 28.8522C10.4826 28.8522 10.6554 28.6827 10.6554 28.4699V21.3191V21.3155V15.6251C10.6554 15.416 10.4862 15.2429 10.2738 15.2429C10.065 15.2429 9.89219 15.4124 9.89219 15.6251V21.4345C9.89219 21.759 9.62938 22.0223 9.30538 22.0223C8.98138 22.0223 8.71858 21.759 8.71858 21.4345V20.7602C8.71858 20.7565 8.72219 20.7529 8.72219 20.7493V15.1455C8.72219 13.6382 9.94258 12.4157 11.4438 12.4157H15.1374C16.6386 12.4157 17.859 13.6418 17.859 15.1455V15.6287V20.7529V21.4381C17.859 21.7626 17.5962 22.0259 17.2722 22.0259C16.9482 22.0259 16.689 21.7626 16.6854 21.4417V21.3191V21.3155V15.6251C16.6854 15.416 16.5162 15.2429 16.3038 15.2429C16.0914 15.2429 15.9222 15.4124 15.9222 15.6251V21.4345C15.9222 21.4381 15.9222 21.4381 15.9222 21.4417V28.4663C15.9222 28.6755 16.0914 28.8485 16.3038 28.8485C16.5126 28.8485 16.6854 28.6791 16.6854 28.4663V22.6425C16.8618 22.7291 17.0598 22.7832 17.2722 22.7832C18.0138 22.7832 18.6186 22.1773 18.6186 21.4345Z" fill="#003566"/>
<path d="M26.5794 16.6636C26.5794 14.7415 25.017 13.1765 23.0982 13.1765H19.4118C19.2786 13.1765 19.1454 13.1837 19.023 13.2018C18.8142 13.2306 18.6702 13.4253 18.699 13.6345C18.7278 13.8436 18.9186 13.9843 19.131 13.959C19.221 13.9446 19.3146 13.941 19.4118 13.941H23.0982C24.5994 13.941 25.8198 15.1635 25.8198 16.6672V22.271C25.8198 22.2746 25.8234 22.2782 25.8234 22.2854V22.9598C25.8234 23.2843 25.5606 23.5475 25.2366 23.5475C24.9126 23.5475 24.6534 23.2843 24.6498 22.9634V22.8408V22.8372V17.1504C24.6498 16.9412 24.4806 16.7681 24.2682 16.7681C24.0594 16.7681 23.8866 16.9376 23.8866 17.1504V22.9598C23.8866 22.9634 23.8866 22.9634 23.8866 22.967V28.4698C23.8866 28.679 24.0558 28.8521 24.2682 28.8521C24.477 28.8521 24.6498 28.6826 24.6498 28.4698V24.1678C24.8262 24.2543 25.0242 24.3084 25.2366 24.3084C25.9782 24.3084 26.583 23.7026 26.583 22.9598V17.1504C26.583 17.1468 26.5794 17.1432 26.5794 17.136V16.6636Z" fill="#003566"/>
<path d="M18.241 22.931C18.0322 22.931 17.8594 23.1005 17.8594 23.3132V28.4699C17.8594 28.679 18.0286 28.8521 18.241 28.8521C18.4498 28.8521 18.6226 28.6826 18.6226 28.4699V23.3132C18.6226 23.1005 18.4498 22.931 18.241 22.931Z" fill="#003566"/>
<path d="M21.2507 24.294C21.0419 24.294 20.8691 24.4635 20.8691 24.6762V28.4698C20.8691 28.679 21.0383 28.8521 21.2507 28.8521C21.4595 28.8521 21.6323 28.6826 21.6323 28.4698V24.6762C21.6323 24.4635 21.4631 24.294 21.2507 24.294Z" fill="#003566"/>
<path d="M10.2207 7.81437C10.2207 9.50922 11.5995 10.8903 13.2915 10.8903C14.9835 10.8903 16.3623 9.50922 16.3623 7.81437C16.3623 6.11952 14.9835 4.7384 13.2915 4.7384C11.5995 4.7384 10.2207 6.11592 10.2207 7.81437ZM15.6027 7.81437C15.6027 9.09092 14.5659 10.1295 13.2915 10.1295C12.0171 10.1295 10.9803 9.09092 10.9803 7.81437C10.9803 6.53783 12.0171 5.49928 13.2915 5.49928C14.5659 5.49928 15.6027 6.53783 15.6027 7.81437Z" fill="#003566"/>
<path d="M8.34228 0C6.65028 0 5.27148 1.38112 5.27148 3.07597C5.27148 4.77082 6.65028 6.15194 8.34228 6.15194C10.0343 6.15194 11.4131 4.77082 11.4131 3.07597C11.4131 1.38112 10.0379 0 8.34228 0ZM8.34228 5.39106C7.06788 5.39106 6.03108 4.35252 6.03108 3.07597C6.03108 1.79942 7.06788 0.760879 8.34228 0.760879C9.61668 0.760879 10.6535 1.79942 10.6535 3.07597C10.6535 4.35252 9.61668 5.39106 8.34228 5.39106Z" fill="#003566"/>
<path d="M18.2427 0C16.5507 0 15.1719 1.38112 15.1719 3.07597C15.1719 4.77082 16.5507 6.15194 18.2427 6.15194C19.9347 6.15194 21.3135 4.77082 21.3135 3.07597C21.3135 1.38112 19.9347 0 18.2427 0ZM18.2427 5.39106C16.9683 5.39106 15.9315 4.35252 15.9315 3.07597C15.9315 1.79942 16.9683 0.760879 18.2427 0.760879C19.5171 0.760879 20.5539 1.79942 20.5539 3.07597C20.5539 4.35252 19.5171 5.39106 18.2427 5.39106Z" fill="#003566"/>
<path d="M13.2879 22.7723C13.0791 22.7723 12.9062 22.9418 12.9062 23.1546V28.4699C12.9062 28.6791 13.0755 28.8522 13.2879 28.8522C13.5003 28.8522 13.6694 28.6827 13.6694 28.4699V23.151C13.6694 22.9418 13.5003 22.7723 13.2879 22.7723Z" fill="#003566"/>
<path d="M2.25781 9.3361C2.25781 11.0309 3.63661 12.4121 5.32861 12.4121C7.02061 12.4121 8.39941 11.0309 8.39941 9.3361C8.39941 7.64125 7.02061 6.26013 5.32861 6.26013C3.63661 6.26013 2.25781 7.64125 2.25781 9.3361ZM5.32861 7.02101C6.60301 7.02101 7.63981 8.05956 7.63981 9.3361C7.63981 10.6126 6.60301 11.6512 5.32861 11.6512C4.05421 11.6512 3.01741 10.6126 3.01741 9.3361C3.01741 8.05956 4.05421 7.02101 5.32861 7.02101Z" fill="#003566"/>
<path d="M7.56 13.2018C7.4376 13.1837 7.3044 13.1765 7.1712 13.1765H3.4848C1.566 13.1765 0.00360008 14.7415 0.00360008 16.6636V17.1252C0.00360008 17.1324 0 17.1396 0 17.1504V22.9598C0 23.7026 0.6048 24.3084 1.3464 24.3084C1.5588 24.3084 1.7568 24.2543 1.9332 24.1678V28.4698C1.9332 28.679 2.1024 28.8521 2.3148 28.8521C2.5236 28.8521 2.6964 28.6826 2.6964 28.4698V22.8408C2.6964 22.8371 2.6964 22.8371 2.6964 22.8335V17.1504C2.6964 16.9412 2.5272 16.7681 2.3148 16.7681C2.106 16.7681 1.9332 16.9376 1.9332 17.1504V22.9598C1.9332 23.2843 1.6704 23.5475 1.3464 23.5475C1.0224 23.5475 0.7596 23.2843 0.7596 22.9598V22.2962C0.7596 22.289 0.7632 22.2818 0.7632 22.271V16.6636C0.7632 15.1598 1.9836 13.9374 3.4848 13.9374H7.1712C7.2684 13.9374 7.362 13.9446 7.452 13.9554C7.6608 13.9843 7.8516 13.84 7.884 13.6309C7.9128 13.4253 7.7688 13.2342 7.56 13.2018Z" fill="#003566"/>
<path d="M5.32496 24.294C5.11616 24.294 4.94336 24.4635 4.94336 24.6762V28.4698C4.94336 28.679 5.11256 28.8521 5.32496 28.8521C5.53376 28.8521 5.70656 28.6826 5.70656 28.4698V24.6762C5.70656 24.4635 5.53736 24.294 5.32496 24.294Z" fill="#003566"/>
<path d="M8.34449 22.931C8.13569 22.931 7.96289 23.1005 7.96289 23.3132V28.4699C7.96289 28.679 8.13209 28.8521 8.34449 28.8521C8.55689 28.8521 8.72609 28.6826 8.72609 28.4699V23.3132C8.72249 23.1005 8.55329 22.931 8.34449 22.931Z" fill="#003566"/>
</svg>
