<svg width="14" height="14" viewBox="0 0 14 14" fill="none" xmlns="http://www.w3.org/2000/svg">
<g clip-path="url(#clip0_1_2193)">
<path d="M7.00473 6.98503C8.04396 6.98503 8.88642 6.15055 8.88642 5.12118C8.88642 4.0918 8.04396 3.25732 7.00473 3.25732C5.96551 3.25732 5.12305 4.0918 5.12305 5.12118C5.12305 6.15055 5.96551 6.98503 7.00473 6.98503Z" fill="#FCC62D"/>
<path d="M7.00458 6.52047C7.78485 6.52047 8.41737 5.89394 8.41737 5.12108C8.41737 4.34821 7.78485 3.72168 7.00458 3.72168C6.22432 3.72168 5.5918 4.34821 5.5918 5.12108C5.5918 5.89394 6.22432 6.52047 7.00458 6.52047Z" fill="#FFD949"/>
<path d="M7.61993 4.32493C7.57585 4.38587 7.53714 4.45045 7.50423 4.51795C7.26018 4.41971 6.98707 4.41971 6.74303 4.51795C6.59689 4.54561 6.46604 4.62531 6.37516 4.74199C6.28429 4.85867 6.23968 5.00427 6.24977 5.1513C6.18788 4.9872 6.19339 4.8056 6.26511 4.64548C6.33683 4.48535 6.46905 4.35945 6.63341 4.29477H6.66995L6.75521 4.22239H6.88309C7.13355 4.18595 7.3893 4.22155 7.61993 4.32493Z" fill="#E4AF18"/>
<path d="M7.81474 5.06689C7.78493 5.10534 7.75237 5.14163 7.71731 5.17546L7.68077 5.20562L7.5468 5.13324L7.38847 5.07292C7.31171 5.04686 7.2319 5.03064 7.15098 5.02467C7.11265 4.95841 7.05243 4.90728 6.98047 4.8799C7.19605 4.79878 7.43045 4.77996 7.65641 4.82561L7.81474 5.06689Z" fill="#E4AF18"/>
<path d="M6.85779 4.922C6.78672 4.922 6.71857 4.94996 6.66832 4.99973C6.61807 5.0495 6.58984 5.11701 6.58984 5.1874C6.58984 5.25779 6.61807 5.3253 6.66832 5.37507C6.71857 5.42484 6.78672 5.4528 6.85779 5.4528C6.90381 5.4566 6.95003 5.44828 6.99176 5.42868C7.043 5.39907 7.08287 5.35347 7.10513 5.29901C7.12739 5.24455 7.13077 5.18431 7.11475 5.12774C7.09873 5.07117 7.06422 5.02146 7.01661 4.98641C6.969 4.95136 6.911 4.93295 6.8517 4.93406L6.85779 4.922Z" fill="#E4AF18"/>
<path d="M6.52851 5.18745C6.52851 5.10107 6.56316 5.01822 6.62482 4.95713C6.68649 4.89605 6.77014 4.86173 6.85735 4.86173C7.06492 4.7662 7.29239 4.72073 7.52112 4.72903C7.50018 4.69258 7.4757 4.65823 7.44804 4.62649C7.28358 4.55481 7.10171 4.53177 6.92433 4.56014C6.82645 4.57432 6.73172 4.60491 6.64421 4.65061C6.58369 4.68256 6.52828 4.72322 6.47979 4.77125C6.42047 4.82904 6.37473 4.89906 6.34582 4.97634C6.34149 5.01038 6.34149 5.04483 6.34582 5.07888C6.34565 5.14166 6.36024 5.20361 6.38845 5.25983V5.28999C6.44598 5.36856 6.47399 5.46457 6.46761 5.56143C6.4663 5.63376 6.45186 5.70527 6.42499 5.77254C6.39492 5.84924 6.34933 5.91903 6.29102 5.97763C6.40859 5.93659 6.51062 5.86079 6.58332 5.76048C6.6282 5.72207 6.66718 5.67736 6.69902 5.62778C6.70287 5.5796 6.70287 5.53119 6.69902 5.48301C6.64244 5.45663 6.59462 5.41481 6.56118 5.36246C6.52775 5.31011 6.51008 5.2494 6.51024 5.18745H6.52851Z" fill="#E4AF18"/>
<path d="M7.46118 5.42866C7.46349 5.44565 7.46118 5.46294 7.45451 5.47875C7.44783 5.49456 7.43702 5.50833 7.42319 5.51864C7.40936 5.52894 7.39301 5.53541 7.37582 5.53738C7.35863 5.53935 7.34122 5.53675 7.32538 5.52985C7.30954 5.52294 7.29584 5.51199 7.28569 5.4981C7.27554 5.48422 7.26931 5.4679 7.26764 5.45084C7.26597 5.43378 7.26891 5.41659 7.27617 5.40103C7.28343 5.38547 7.29474 5.3721 7.30894 5.36231L7.24805 5.29596V5.25977L7.36984 5.35628L7.44291 5.41056V5.42866C7.44899 5.42805 7.45511 5.42805 7.46118 5.42866Z" fill="#E4AF18"/>
<path d="M7.41856 5.79671H7.37593H7.28459H7.23587C7.20064 5.78395 7.16774 5.76561 7.13844 5.74242C7.13094 5.723 7.13094 5.70152 7.13844 5.6821V5.59766C7.17005 5.65115 7.21384 5.69659 7.26632 5.73036H7.29676C7.34255 5.75411 7.3919 5.77041 7.44292 5.77861L7.41856 5.79671Z" fill="#E4AF18"/>
<path d="M7.64333 5.27187H7.59461L7.45455 5.21155C7.53205 5.29321 7.57519 5.40107 7.57519 5.51314C7.57519 5.62522 7.53205 5.73308 7.45455 5.81474H7.4241C7.33117 5.8811 7.21596 5.90936 7.1025 5.89362C6.98905 5.87789 6.8861 5.81938 6.81514 5.73029C6.7965 5.77738 6.77195 5.82197 6.74207 5.86299C6.84011 5.94585 6.96217 5.99576 7.09068 6.00553C7.21918 6.01531 7.3475 5.98444 7.45717 5.91739C7.56684 5.85033 7.65221 5.75054 7.70098 5.63237C7.74975 5.5142 7.75942 5.38376 7.72858 5.2598L7.64333 5.27187Z" fill="#E4AF18"/>
<path d="M5.17099 6.77385C6.21022 6.77385 7.05268 5.93937 7.05268 4.90999C7.05268 3.88062 6.21022 3.04614 5.17099 3.04614C4.13177 3.04614 3.28931 3.88062 3.28931 4.90999C3.28931 5.93937 4.13177 6.77385 5.17099 6.77385Z" fill="#FCC62D"/>
<path d="M5.1706 6.30954C5.95086 6.30954 6.58339 5.683 6.58339 4.91014C6.58339 4.13727 5.95086 3.51074 5.1706 3.51074C4.39034 3.51074 3.75781 4.13727 3.75781 4.91014C3.75781 5.683 4.39034 6.30954 5.1706 6.30954Z" fill="#FFD949"/>
<path d="M5.79146 4.11359C5.74739 4.17453 5.70868 4.23911 5.67576 4.30661C5.5489 4.25216 5.41211 4.22407 5.27385 4.22407C5.13559 4.22407 4.99879 4.25216 4.87193 4.30661C4.7258 4.33427 4.59494 4.41396 4.50407 4.53065C4.4132 4.64733 4.36859 4.79293 4.37867 4.93996C4.31679 4.77586 4.3223 4.59426 4.39402 4.43414C4.46574 4.27401 4.59796 4.14811 4.76232 4.08343H4.79886L4.90847 4.04724H5.03635C5.2892 3.99583 5.5517 4.0189 5.79146 4.11359Z" fill="#E4AF18"/>
<path d="M5.98087 4.82552C5.95105 4.86397 5.91849 4.90026 5.88343 4.93409L5.8469 4.96425L5.71293 4.89187L5.5546 4.83155C5.474 4.81919 5.39213 4.81716 5.31101 4.82552C5.27269 4.75926 5.21246 4.70813 5.1405 4.68075C5.35495 4.58833 5.59172 4.55901 5.82254 4.59631L5.98087 4.82552Z" fill="#E4AF18"/>
<path d="M5.02576 4.71099C4.95469 4.71099 4.88654 4.73895 4.83629 4.78872C4.78604 4.83849 4.75781 4.906 4.75781 4.97639C4.75781 5.04678 4.78604 5.11428 4.83629 5.16406C4.88654 5.21383 4.95469 5.24179 5.02576 5.24179C5.07495 5.243 5.12349 5.23046 5.16582 5.2056C5.21705 5.176 5.25693 5.13039 5.27919 5.07593C5.30145 5.02147 5.30483 4.96123 5.28881 4.90466C5.27279 4.84809 5.23827 4.79839 5.19067 4.76334C5.14306 4.72829 5.08506 4.70987 5.02576 4.71099Z" fill="#E4AF18"/>
<path d="M4.69602 4.97634C4.69602 4.88996 4.73066 4.80711 4.79233 4.74602C4.854 4.68494 4.93764 4.65062 5.02486 4.65062C5.24034 4.55335 5.4766 4.50986 5.71298 4.52395C5.69205 4.4875 5.66757 4.45316 5.63991 4.42141C5.47545 4.34974 5.29358 4.32669 5.1162 4.35506C5.01832 4.36924 4.92359 4.39984 4.83608 4.44554C4.77556 4.47748 4.72015 4.51814 4.67166 4.56617C4.61234 4.62396 4.56659 4.69398 4.53769 4.77126V4.82554C4.53336 4.85959 4.53336 4.89404 4.53769 4.92809C4.53752 4.99087 4.55211 5.05282 4.58032 5.10904V5.1392C4.63784 5.22427 4.66169 5.32735 4.6473 5.42873C4.64599 5.50107 4.63155 5.57258 4.60467 5.63985C4.57461 5.71655 4.52901 5.78634 4.4707 5.84493C4.58828 5.80389 4.69031 5.7281 4.763 5.62779C4.81192 5.56889 4.84911 5.50135 4.87262 5.42873C4.87647 5.38055 4.87647 5.33215 4.87262 5.28397C4.81603 5.25758 4.76822 5.21576 4.73478 5.16341C4.70135 5.11106 4.68367 5.05035 4.68384 4.98841L4.69602 4.97634Z" fill="#E4AF18"/>
<path d="M5.62697 5.22978C5.62788 5.24691 5.62417 5.26397 5.61622 5.2792C5.60826 5.29444 5.59636 5.3073 5.58172 5.31646C5.56708 5.32562 5.55025 5.33075 5.53294 5.33133C5.51564 5.3319 5.49849 5.3279 5.48326 5.31973C5.46804 5.31157 5.45529 5.29953 5.44632 5.28485C5.43735 5.27018 5.4325 5.25341 5.43225 5.23626C5.432 5.21911 5.43637 5.20221 5.4449 5.18729C5.45344 5.17237 5.46584 5.15997 5.48082 5.15137L5.41992 5.08502V5.04883L5.54171 5.14534L5.61479 5.19963C5.62065 5.20887 5.62478 5.21909 5.62697 5.22978Z" fill="#E4AF18"/>
<path d="M5.58549 5.58577H5.51851H5.42716H5.37845C5.34322 5.57301 5.31032 5.55468 5.28101 5.53148C5.27352 5.51206 5.27352 5.49059 5.28101 5.47116V5.38672C5.31263 5.44021 5.35642 5.48565 5.40889 5.51942H5.43934C5.48513 5.54318 5.53448 5.55947 5.58549 5.56767V5.58577Z" fill="#E4AF18"/>
<path d="M5.80946 5.06081H5.76075L5.62069 5.00049C5.69819 5.08215 5.74133 5.19001 5.74133 5.30208C5.74133 5.41416 5.69819 5.52202 5.62069 5.60368H5.59024C5.49731 5.67004 5.3821 5.6983 5.26864 5.68256C5.15518 5.66683 5.05224 5.60832 4.98128 5.51923C4.96263 5.56632 4.93808 5.61091 4.9082 5.65193C5.00625 5.73479 5.12831 5.7847 5.25681 5.79447C5.38532 5.80425 5.51364 5.77339 5.62331 5.70633C5.73298 5.63927 5.81835 5.53948 5.86712 5.42131C5.91589 5.30314 5.92555 5.1727 5.89472 5.04874L5.80946 5.06081Z" fill="#E4AF18"/>
<path d="M6.1688 8.68571C7.20802 8.68571 8.05048 7.85124 8.05048 6.82186C8.05048 5.79248 7.20802 4.95801 6.1688 4.95801C5.12957 4.95801 4.28711 5.79248 4.28711 6.82186C4.28711 7.85124 5.12957 8.68571 6.1688 8.68571Z" fill="#FCC62D"/>
<path d="M6.1706 8.22165C6.95086 8.22165 7.58339 7.59511 7.58339 6.82225C7.58339 6.04938 6.95086 5.42285 6.1706 5.42285C5.39034 5.42285 4.75781 6.04938 4.75781 6.82225C4.75781 7.59511 5.39034 8.22165 6.1706 8.22165Z" fill="#FFD949"/>
<path d="M6.78399 6.03194C6.73991 6.09288 6.7012 6.15746 6.66829 6.22496C6.42425 6.12672 6.15113 6.12672 5.90709 6.22496C5.76095 6.25262 5.6301 6.33232 5.53923 6.449C5.44835 6.56568 5.40375 6.71128 5.41383 6.85831C5.35194 6.69421 5.35745 6.51262 5.42917 6.35249C5.50089 6.19236 5.63312 6.06646 5.79748 6.00178H5.83401L5.94363 5.96559H6.07151C6.31064 5.92238 6.55718 5.94533 6.78399 6.03194Z" fill="#E4AF18"/>
<path d="M6.97927 6.76161C6.94945 6.80006 6.91689 6.83635 6.88183 6.87019L6.8453 6.90034L6.69915 6.83399L6.54082 6.77367C6.46406 6.74761 6.38424 6.73139 6.30332 6.72542C6.265 6.65917 6.20477 6.60804 6.13281 6.58065C6.34726 6.48823 6.58403 6.45891 6.81485 6.49621L6.97927 6.76161Z" fill="#E4AF18"/>
<path d="M6.0238 6.63481C5.95274 6.63481 5.88459 6.66278 5.83434 6.71255C5.78409 6.76232 5.75586 6.82983 5.75586 6.90022C5.75586 6.9706 5.78409 7.03811 5.83434 7.08788C5.88459 7.13766 5.95274 7.16562 6.0238 7.16562C6.07299 7.16683 6.12154 7.15429 6.16386 7.12943C6.2151 7.09983 6.25497 7.05422 6.27723 6.99976C6.29949 6.9453 6.30288 6.88506 6.28686 6.82849C6.27084 6.77192 6.23632 6.72221 6.18871 6.68716C6.14111 6.65211 6.08311 6.6337 6.0238 6.63481Z" fill="#E4AF18"/>
<path d="M5.69372 6.88814C5.69372 6.80175 5.72837 6.7189 5.79004 6.65782C5.85171 6.59673 5.93535 6.56241 6.02256 6.56241C6.23383 6.465 6.4657 6.41947 6.69851 6.42971C6.67757 6.39326 6.6531 6.35892 6.62543 6.32717C6.46098 6.2555 6.2791 6.23246 6.10173 6.26082C6.00384 6.275 5.90911 6.3056 5.82161 6.3513C5.76108 6.38325 5.70568 6.4239 5.65719 6.47194C5.59786 6.52972 5.55212 6.59974 5.52321 6.67702H5.48059C5.47626 6.71107 5.47626 6.74552 5.48059 6.77956C5.48041 6.84234 5.49501 6.9043 5.52321 6.96052V6.99068C5.58075 7.06924 5.60875 7.16526 5.60238 7.26211C5.60107 7.33445 5.58663 7.40596 5.55975 7.47323C5.52968 7.54992 5.48409 7.61972 5.42578 7.67831C5.54336 7.63727 5.64539 7.56148 5.71808 7.46116C5.76201 7.40315 5.79502 7.33776 5.81552 7.26814C5.81937 7.21996 5.81937 7.17156 5.81552 7.12338C5.75893 7.09699 5.71112 7.05517 5.67768 7.00282C5.64424 6.95047 5.62657 6.88976 5.62674 6.82782L5.69372 6.88814Z" fill="#E4AF18"/>
<path d="M6.62697 7.14189C6.62788 7.15902 6.62417 7.17608 6.61622 7.19131C6.60826 7.20655 6.59636 7.21941 6.58172 7.22857C6.56708 7.23773 6.55025 7.24286 6.53294 7.24344C6.51564 7.24401 6.49849 7.24001 6.48326 7.23184C6.46804 7.22367 6.45529 7.21163 6.44632 7.19696C6.43735 7.18229 6.4325 7.16552 6.43225 7.14837C6.432 7.13122 6.43637 7.11432 6.4449 7.0994C6.45344 7.08448 6.46584 7.07208 6.48082 7.06348L6.41992 6.99713V6.96094L6.54171 7.05745L6.61479 7.11173C6.62065 7.12098 6.62478 7.1312 6.62697 7.14189Z" fill="#E4AF18"/>
<path d="M6.58378 7.49761H6.5168H6.42545H6.37674C6.34151 7.48484 6.30861 7.46651 6.2793 7.44332C6.27181 7.4239 6.27181 7.40242 6.2793 7.383V7.31665C6.31092 7.37014 6.35471 7.41558 6.40719 7.44935H6.43763C6.48342 7.47311 6.53277 7.4894 6.58378 7.49761Z" fill="#E4AF18"/>
<path d="M6.80946 6.96657H6.76075L6.62069 6.90625C6.69819 6.98791 6.74133 7.09577 6.74133 7.20784C6.74133 7.31992 6.69819 7.42778 6.62069 7.50944H6.59024C6.49731 7.5758 6.3821 7.60406 6.26864 7.58833C6.15518 7.57259 6.05224 7.51408 5.98128 7.42499C5.96263 7.47209 5.93808 7.51667 5.9082 7.55769C6.00625 7.64055 6.12831 7.69046 6.25682 7.70023C6.38532 7.71001 6.51364 7.67915 6.62331 7.61209C6.73298 7.54503 6.81835 7.44524 6.86712 7.32707C6.91589 7.20891 6.92555 7.07846 6.89472 6.95451L6.80946 6.96657Z" fill="#E4AF18"/>
<path d="M8.88559 9.13224C9.92482 9.13224 10.7673 8.29777 10.7673 7.26839C10.7673 6.23902 9.92482 5.40454 8.88559 5.40454C7.84637 5.40454 7.00391 6.23902 7.00391 7.26839C7.00391 8.29777 7.84637 9.13224 8.88559 9.13224Z" fill="#FCC62D"/>
<path d="M8.88557 8.66781C9.66583 8.66781 10.2984 8.04128 10.2984 7.26842C10.2984 6.49555 9.66583 5.86902 8.88557 5.86902C8.1053 5.86902 7.47278 6.49555 7.47278 7.26842C7.47278 8.04128 8.1053 8.66781 8.88557 8.66781Z" fill="#FFD949"/>
<path d="M9.50067 6.46615C9.45659 6.52709 9.41788 6.59166 9.38496 6.65917C9.14092 6.56092 8.8678 6.56092 8.62376 6.65917C8.47763 6.68683 8.34678 6.76652 8.2559 6.8832C8.16503 6.99989 8.12042 7.14548 8.13051 7.29251C8.06862 7.12841 8.07413 6.94682 8.14585 6.78669C8.21757 6.62657 8.34979 6.50066 8.51415 6.43599H8.55069L8.6603 6.39979H8.78818C9.02732 6.35658 9.27385 6.37954 9.50067 6.46615Z" fill="#E4AF18"/>
<path d="M9.69548 7.23822C9.66567 7.27668 9.63311 7.31296 9.59805 7.3468L9.56151 7.37696L9.42754 7.30457L9.26921 7.24426C9.19245 7.21819 9.11264 7.20197 9.03171 7.196C8.99339 7.12975 8.93317 7.07862 8.86121 7.05124C9.07565 6.95881 9.31243 6.92949 9.54324 6.96679L9.69548 7.23822Z" fill="#E4AF18"/>
<path d="M8.73865 7.06938C8.66758 7.06938 8.59943 7.09735 8.54918 7.14712C8.49893 7.19689 8.4707 7.2644 8.4707 7.33479C8.4707 7.40518 8.49893 7.47268 8.54918 7.52245C8.59943 7.57223 8.66758 7.60019 8.73865 7.60019C8.78784 7.6014 8.83638 7.58886 8.87871 7.564C8.92995 7.5344 8.96982 7.48879 8.99208 7.43433C9.01434 7.37987 9.01772 7.31963 9.0017 7.26306C8.98568 7.20649 8.95116 7.15679 8.90356 7.12173C8.85595 7.08668 8.79795 7.06827 8.73865 7.06938Z" fill="#E4AF18"/>
<path d="M8.41098 7.33442C8.41098 7.24804 8.44563 7.16519 8.5073 7.1041C8.56896 7.04302 8.65261 7.0087 8.73982 7.0087C8.94739 6.91317 9.17486 6.8677 9.40359 6.876C9.38265 6.83955 9.35817 6.80521 9.33051 6.77346C9.16605 6.70179 8.98418 6.67875 8.80681 6.70711C8.70892 6.72129 8.61419 6.75189 8.52668 6.79759C8.46616 6.82953 8.41075 6.87019 8.36226 6.91822C8.30294 6.97601 8.2572 7.04603 8.22829 7.12331C8.19219 7.21651 8.19219 7.31964 8.22829 7.41284V7.443C8.28583 7.52157 8.31383 7.61758 8.30746 7.71443C8.30615 7.78677 8.29171 7.85828 8.26483 7.92555C8.23476 8.00225 8.18917 8.07204 8.13086 8.13063C8.24844 8.08959 8.35046 8.0138 8.42316 7.91349C8.46709 7.85547 8.50009 7.79008 8.52059 7.72047C8.52445 7.67229 8.52445 7.62388 8.52059 7.5757C8.46401 7.54932 8.4162 7.50749 8.38276 7.45514C8.34932 7.40279 8.33165 7.34208 8.33182 7.28014L8.41098 7.33442Z" fill="#E4AF18"/>
<path d="M9.34181 7.58818C9.34273 7.60531 9.33901 7.62237 9.33106 7.6376C9.32311 7.65284 9.3112 7.6657 9.29656 7.67486C9.28193 7.68402 9.26509 7.68915 9.24778 7.68973C9.23048 7.6903 9.21333 7.6863 9.19811 7.67813C9.18288 7.66996 9.17013 7.65792 9.16116 7.64325C9.1522 7.62858 9.14734 7.61181 9.14709 7.59466C9.14684 7.57751 9.15121 7.56061 9.15975 7.54569C9.16828 7.53077 9.18068 7.51837 9.19566 7.50977L9.13477 7.44342V7.40723L9.25656 7.50374L9.32963 7.55802C9.3355 7.56727 9.33962 7.57748 9.34181 7.58818Z" fill="#E4AF18"/>
<path d="M9.29942 7.94365H9.25679H9.16544H9.11673C9.0815 7.93089 9.0486 7.91256 9.01929 7.88936C9.0118 7.86994 9.0118 7.84847 9.01929 7.82905V7.7627C9.05091 7.81619 9.0947 7.86163 9.14718 7.8954H9.17762C9.22341 7.91915 9.27276 7.93545 9.32377 7.94365H9.29942Z" fill="#E4AF18"/>
<path d="M9.52431 7.41921H9.47559L9.33553 7.35889C9.41303 7.44055 9.45618 7.5484 9.45618 7.66048C9.45618 7.77256 9.41303 7.88042 9.33553 7.96208H9.30508C9.21215 8.02844 9.09694 8.0567 8.98348 8.04096C8.87003 8.02523 8.76708 7.96672 8.69612 7.87763C8.67748 7.92472 8.65293 7.96931 8.62305 8.01033C8.72109 8.09319 8.84315 8.14309 8.97166 8.15287C9.10016 8.16265 9.22848 8.13178 9.33816 8.06473C9.44783 7.99767 9.53319 7.89788 9.58196 7.77971C9.63073 7.66154 9.6404 7.5311 9.60956 7.40714L9.52431 7.41921Z" fill="#E4AF18"/>
<path d="M10.7743 9.06559C11.8135 9.06559 12.656 8.23112 12.656 7.20174C12.656 6.17237 11.8135 5.33789 10.7743 5.33789C9.73504 5.33789 8.89258 6.17237 8.89258 7.20174C8.89258 8.23112 9.73504 9.06559 10.7743 9.06559Z" fill="#FCC62D"/>
<path d="M10.7741 8.60153C11.5544 8.60153 12.1869 7.975 12.1869 7.20213C12.1869 6.42927 11.5544 5.80273 10.7741 5.80273C9.99386 5.80273 9.36133 6.42927 9.36133 7.20213C9.36133 7.975 9.99386 8.60153 10.7741 8.60153Z" fill="#FFD949"/>
<path d="M11.389 6.40572C11.3449 6.46666 11.3062 6.53124 11.2733 6.59874C11.0292 6.5005 10.7561 6.5005 10.5121 6.59874C10.3615 6.62251 10.2254 6.70139 10.1306 6.81978C10.0359 6.93817 9.98951 7.08746 10.0006 7.23812C9.93126 7.07564 9.92948 6.89264 9.99561 6.72888C10.0617 6.56511 10.1904 6.43381 10.3538 6.3635H10.3903L10.4999 6.3273H10.6278C10.8838 6.2785 11.1486 6.30578 11.389 6.40572Z" fill="#E4AF18"/>
<path d="M11.5704 7.14178C11.5406 7.18023 11.508 7.21652 11.4729 7.25036L11.4364 7.28051L11.3085 7.23829L11.1502 7.17797C11.0734 7.15191 10.9936 7.13569 10.9127 7.12972C10.8744 7.06346 10.8141 7.01233 10.7422 6.98495C10.9566 6.89252 11.1934 6.86321 11.4242 6.90051L11.5704 7.14178Z" fill="#E4AF18"/>
<path d="M10.6272 7.00298C10.5561 7.00298 10.488 7.03094 10.4377 7.08071C10.3875 7.13049 10.3593 7.19799 10.3593 7.26838C10.3593 7.33877 10.3875 7.40628 10.4377 7.45605C10.488 7.50582 10.5561 7.53378 10.6272 7.53378C10.6764 7.53499 10.7249 7.52245 10.7673 7.49759C10.8185 7.46799 10.8584 7.42239 10.8806 7.36793C10.9029 7.31346 10.9063 7.25323 10.8903 7.19666C10.8742 7.14009 10.8397 7.09038 10.7921 7.05533C10.7445 7.02028 10.6865 7.00187 10.6272 7.00298Z" fill="#E4AF18"/>
<path d="M10.2977 7.23823C10.2977 7.15185 10.3323 7.069 10.394 7.00791C10.4557 6.94683 10.5393 6.91251 10.6265 6.91251C10.8341 6.81698 11.0616 6.77151 11.2903 6.77981C11.2694 6.74336 11.2449 6.70902 11.2172 6.67727C11.0528 6.6056 10.8709 6.58255 10.6935 6.61092C10.5956 6.6251 10.5009 6.65569 10.4134 6.7014C10.3529 6.73334 10.2975 6.774 10.249 6.82203C10.1897 6.87982 10.1439 6.94984 10.115 7.02712C10.0789 7.12032 10.0789 7.22345 10.115 7.31665V7.34681C10.1725 7.42537 10.2005 7.52139 10.1942 7.61824C10.1929 7.69058 10.1784 7.76209 10.1515 7.82936C10.1215 7.90605 10.0759 7.97585 10.0176 8.03444C10.1352 7.9934 10.2372 7.91761 10.3099 7.81729C10.3538 7.75928 10.3868 7.69389 10.4073 7.62427C10.4112 7.57609 10.4112 7.52769 10.4073 7.47951C10.3507 7.45312 10.3029 7.4113 10.2695 7.35895C10.236 7.3066 10.2184 7.24589 10.2185 7.18395L10.2977 7.23823Z" fill="#E4AF18"/>
<path d="M11.2246 7.52178C11.2255 7.5389 11.2218 7.55596 11.2139 7.5712C11.2059 7.58643 11.194 7.59929 11.1794 7.60845C11.1647 7.61761 11.1479 7.62274 11.1306 7.62332C11.1133 7.6239 11.0961 7.61989 11.0809 7.61173C11.0657 7.60356 11.0529 7.59152 11.044 7.57685C11.035 7.56218 11.0302 7.5454 11.0299 7.52825C11.0297 7.51111 11.034 7.4942 11.0426 7.47928C11.0511 7.46436 11.0635 7.45196 11.0785 7.44336L11.0176 7.37701V7.34082L11.1394 7.43733L11.2124 7.49162C11.2183 7.50086 11.2224 7.51108 11.2246 7.52178Z" fill="#E4AF18"/>
<path d="M11.1817 7.8773H11.139H11.0477L10.9624 7.84111C10.9272 7.82835 10.8943 7.81002 10.865 7.78683C10.8575 7.76741 10.8575 7.74593 10.865 7.72651V7.66016C10.8966 7.71365 10.9404 7.75909 10.9929 7.79286H11.0233C11.0691 7.81661 11.1185 7.83291 11.1695 7.84111L11.1817 7.8773Z" fill="#E4AF18"/>
<path d="M11.4071 7.3528H11.3584L11.2183 7.29248C11.2958 7.37414 11.339 7.482 11.339 7.59407C11.339 7.70615 11.2958 7.81401 11.2183 7.89567H11.1879C11.095 7.96203 10.9798 7.99029 10.8663 7.97456C10.7528 7.95882 10.6499 7.90031 10.5789 7.81122C10.5603 7.85832 10.5357 7.9029 10.5059 7.94392C10.6039 8.02678 10.726 8.07669 10.8545 8.08646C10.983 8.09624 11.1113 8.06538 11.221 7.99832C11.3306 7.93126 11.416 7.83147 11.4648 7.7133C11.5135 7.59514 11.5232 7.46469 11.4924 7.34074L11.4071 7.3528Z" fill="#E4AF18"/>
<path d="M10.4384 6.91862C11.4777 6.91862 12.3201 6.08415 12.3201 5.05477C12.3201 4.02539 11.4777 3.19092 10.4384 3.19092C9.39922 3.19092 8.55676 4.02539 8.55676 5.05477C8.55676 6.08415 9.39922 6.91862 10.4384 6.91862Z" fill="#FCC62D"/>
<path d="M10.4382 6.45407C11.2184 6.45407 11.851 5.82754 11.851 5.05467C11.851 4.2818 11.2184 3.65527 10.4382 3.65527C9.65792 3.65527 9.02539 4.2818 9.02539 5.05467C9.02539 5.82754 9.65792 6.45407 10.4382 6.45407Z" fill="#FFD949"/>
<path d="M11.0589 4.25881C11.0148 4.31975 10.9761 4.38433 10.9432 4.45183C10.6992 4.35359 10.4261 4.35359 10.182 4.45183C10.0359 4.47949 9.90502 4.55918 9.81415 4.67587C9.72328 4.79255 9.67867 4.93815 9.68875 5.08518C9.62357 4.92336 9.62464 4.74275 9.69172 4.58169C9.7588 4.42064 9.88663 4.29183 10.048 4.22262H10.0846L10.1942 4.18643H10.3221C10.5696 4.14051 10.8253 4.16562 11.0589 4.25881Z" fill="#E4AF18"/>
<path d="M11.2483 5.00045C11.2185 5.03891 11.1859 5.07519 11.1509 5.10903L11.1144 5.13919L10.9621 5.07283L10.8038 5.01252C10.727 4.98645 10.6472 4.97023 10.5663 4.96426C10.53 4.9023 10.4745 4.85363 10.408 4.82553C10.6224 4.7331 10.8592 4.70378 11.09 4.74108L11.2483 5.00045Z" fill="#E4AF18"/>
<path d="M10.2914 4.85552C10.2203 4.85552 10.1522 4.88348 10.1019 4.93325C10.0517 4.98302 10.0234 5.05053 10.0234 5.12092C10.0234 5.19131 10.0517 5.25881 10.1019 5.30859C10.1522 5.35836 10.2203 5.38632 10.2914 5.38632C10.3406 5.38753 10.3891 5.37499 10.4314 5.35013C10.4827 5.32053 10.5226 5.27492 10.5448 5.22046C10.5671 5.166 10.5705 5.10577 10.5544 5.0492C10.5384 4.99262 10.5039 4.94292 10.4563 4.90787C10.4087 4.87282 10.3507 4.8544 10.2914 4.85552Z" fill="#E4AF18"/>
<path d="M9.96383 5.12136C9.97144 5.0403 10.0094 4.96501 10.0703 4.9103C10.1311 4.8556 10.2105 4.82545 10.2927 4.8258C10.5 4.721 10.7298 4.66721 10.9625 4.66897C10.9416 4.63252 10.9171 4.59818 10.8894 4.56643C10.725 4.49476 10.5431 4.47171 10.3657 4.50008C10.2679 4.51426 10.1731 4.54485 10.0856 4.59056C10.0251 4.6225 9.96969 4.66316 9.9212 4.71119C9.86188 4.76898 9.81613 4.839 9.78723 4.91628C9.7829 4.95032 9.7829 4.98477 9.78723 5.01882C9.78705 5.0816 9.80165 5.14356 9.82986 5.19978V5.22994C9.88739 5.3085 9.91539 5.40452 9.90902 5.50137C9.90771 5.5737 9.89327 5.64522 9.86639 5.71249C9.83633 5.78918 9.79073 5.85897 9.73242 5.91757C9.85 5.87653 9.95203 5.80073 10.0247 5.70042C10.0687 5.64241 10.1017 5.57702 10.1222 5.5074C10.126 5.45922 10.126 5.41082 10.1222 5.36264C10.0656 5.33625 10.0178 5.29443 9.98432 5.24208C9.95089 5.18973 9.93321 5.12902 9.93338 5.06707L9.96383 5.12136Z" fill="#E4AF18"/>
<path d="M10.8945 5.37432C10.8955 5.39144 10.8917 5.4085 10.8838 5.42373C10.8758 5.43897 10.8639 5.45183 10.8493 5.46099C10.8347 5.47015 10.8178 5.47528 10.8005 5.47586C10.7832 5.47644 10.7661 5.47243 10.7508 5.46426C10.7356 5.4561 10.7229 5.44406 10.7139 5.42939C10.7049 5.41471 10.7001 5.39794 10.6998 5.38079C10.6996 5.36364 10.7039 5.34674 10.7125 5.33182C10.721 5.3169 10.7334 5.3045 10.7484 5.2959L10.6875 5.22955V5.19336L10.8093 5.28987L10.8824 5.34416C10.8882 5.3534 10.8924 5.36362 10.8945 5.37432Z" fill="#E4AF18"/>
<path d="M10.8522 5.7303H10.8095H10.7182H10.6695C10.6342 5.71754 10.6013 5.69921 10.572 5.67602C10.5645 5.65659 10.5645 5.63512 10.572 5.6157V5.53125C10.6036 5.58474 10.6474 5.63018 10.6999 5.66395H10.7304C10.7761 5.68771 10.8255 5.704 10.8765 5.71221L10.8522 5.7303Z" fill="#E4AF18"/>
<path d="M11.077 5.20583H11.0283L10.8883 5.14551C10.9658 5.22717 11.0089 5.33503 11.0089 5.4471C11.0089 5.55918 10.9658 5.66704 10.8883 5.7487H10.8578C10.7649 5.81506 10.6497 5.84332 10.5362 5.82758C10.4228 5.81185 10.3198 5.75334 10.2489 5.66425C10.2302 5.71134 10.2057 5.75593 10.1758 5.79695C10.2738 5.87981 10.3959 5.92972 10.5244 5.93949C10.6529 5.94927 10.7812 5.9184 10.8909 5.85135C11.0006 5.78429 11.0859 5.6845 11.1347 5.56633C11.1835 5.44816 11.1931 5.31772 11.1623 5.19376L11.077 5.20583Z" fill="#E4AF18"/>
<path d="M8.24717 6.41165C9.40411 6.41165 10.342 5.48266 10.342 4.33669C10.342 3.19071 9.40411 2.26172 8.24717 2.26172C7.09023 2.26172 6.15234 3.19071 6.15234 4.33669C6.15234 5.48266 7.09023 6.41165 8.24717 6.41165Z" fill="#FCC62D"/>
<path d="M8.2469 5.89321C9.1146 5.89321 9.81802 5.19647 9.81802 4.33699C9.81802 3.47751 9.1146 2.78076 8.2469 2.78076C7.37919 2.78076 6.67578 3.47751 6.67578 4.33699C6.67578 5.19647 7.37919 5.89321 8.2469 5.89321Z" fill="#FFD949"/>
<path d="M8.94045 3.44418C8.8895 3.51257 8.84467 3.58522 8.80648 3.66133C8.66604 3.60159 8.51479 3.57078 8.36194 3.57078C8.20909 3.57078 8.05784 3.60159 7.9174 3.66133C7.75754 3.69765 7.61542 3.78794 7.51542 3.91671C7.41542 4.04548 7.36377 4.2047 7.36933 4.36706C7.29938 4.18376 7.30485 3.98058 7.38457 3.80123C7.46428 3.62187 7.61188 3.48067 7.79561 3.40799H7.83214L7.95394 3.3718H8.10009C8.38134 3.31431 8.67343 3.33947 8.94045 3.44418Z" fill="#E4AF18"/>
<path d="M9.13437 4.27055C9.10276 4.31312 9.06817 4.35343 9.03085 4.39119L8.98822 4.42738L8.83598 4.34897L8.65939 4.28262C8.57894 4.25255 8.4951 4.2323 8.40971 4.2223C8.36619 4.14694 8.29716 4.08925 8.21484 4.05944C8.45407 3.95578 8.71885 3.92431 8.97604 3.96896L9.13437 4.27055Z" fill="#E4AF18"/>
<path d="M8.08793 4.11377C8.00717 4.11377 7.92973 4.14554 7.87263 4.2021C7.81553 4.25866 7.78345 4.33538 7.78345 4.41536C7.78345 4.49535 7.81553 4.57206 7.87263 4.62862C7.92973 4.68518 8.00717 4.71696 8.08793 4.71696C8.14163 4.717 8.1943 4.70239 8.24017 4.67473C8.29598 4.64151 8.33929 4.59112 8.36349 4.53124C8.3877 4.47136 8.39146 4.40529 8.37421 4.34309C8.35696 4.2809 8.31964 4.226 8.26796 4.18678C8.21627 4.14755 8.15304 4.12615 8.08793 4.12583V4.11377Z" fill="#E4AF18"/>
<path d="M7.72222 4.40946C7.72222 4.31347 7.76071 4.22142 7.82924 4.15355C7.89776 4.08568 7.99069 4.04755 8.0876 4.04755C8.32014 3.94161 8.5748 3.89199 8.83053 3.90278C8.80791 3.86215 8.7814 3.82377 8.75136 3.78817C8.56031 3.70404 8.34812 3.67882 8.1424 3.71579C8.03169 3.73171 7.92457 3.7664 7.82574 3.81833C7.7586 3.85344 7.69704 3.89816 7.64305 3.95103C7.57741 4.01546 7.52743 4.09385 7.4969 4.18025V4.21041C7.46725 4.31707 7.47808 4.43081 7.52735 4.5301V4.56629C7.59232 4.65322 7.62463 4.75988 7.6187 4.86788C7.61626 4.94849 7.59978 5.02808 7.56998 5.10312C7.53771 5.18868 7.48795 5.26671 7.42383 5.33234C7.5532 5.28541 7.66555 5.20143 7.74658 5.09106C7.81523 5.03799 7.87309 4.97249 7.91709 4.89804C7.92115 4.84584 7.92115 4.79341 7.91709 4.74121C7.85352 4.71154 7.79975 4.66463 7.76202 4.6059C7.7243 4.54718 7.70416 4.47906 7.70395 4.40946H7.72222Z" fill="#E4AF18"/>
<path d="M8.7568 4.69288C8.75742 4.71207 8.7529 4.73109 8.74369 4.74799C8.73447 4.76488 8.7209 4.77906 8.70435 4.78907C8.6878 4.79907 8.66887 4.80455 8.64948 4.80494C8.6301 4.80534 8.61096 4.80063 8.59401 4.7913C8.57706 4.78198 8.56291 4.76836 8.55301 4.75185C8.5431 4.73534 8.5378 4.71653 8.53763 4.69732C8.53747 4.67812 8.54245 4.65921 8.55206 4.64254C8.56168 4.62586 8.57559 4.61201 8.59238 4.6024L8.52539 4.52398V4.48779L8.66545 4.59637L8.74462 4.65669C8.75107 4.66783 8.75521 4.68013 8.7568 4.69288Z" fill="#E4AF18"/>
<path d="M8.70834 5.085H8.66571H8.56219H8.50738C8.46775 5.07098 8.43072 5.0506 8.39777 5.02468C8.38753 5.01565 8.37948 5.00445 8.37421 4.99192C8.36894 4.97939 8.36659 4.96585 8.36732 4.95229V4.86182C8.40388 4.92078 8.45395 4.97037 8.51347 5.00658H8.55001C8.60148 5.03339 8.65701 5.05173 8.71443 5.06087L8.70834 5.085Z" fill="#E4AF18"/>
<path d="M8.95873 4.49982H8.90392L8.75168 4.43347C8.79808 4.4794 8.83489 4.53394 8.86001 4.59397C8.88512 4.654 8.89804 4.71834 8.89804 4.78332C8.89804 4.8483 8.88512 4.91264 8.86001 4.97267C8.83489 5.0327 8.79808 5.08724 8.75168 5.13317H8.71515C8.66017 5.18871 8.59273 5.23063 8.51833 5.25551C8.44392 5.2804 8.36464 5.28755 8.28692 5.27638C8.2092 5.26522 8.13523 5.23605 8.07103 5.19125C8.00682 5.14646 7.95419 5.08729 7.91741 5.01856C7.89581 5.07233 7.86715 5.12303 7.83215 5.16936C7.93506 5.28021 8.07357 5.35233 8.2241 5.37343C8.37464 5.39453 8.52791 5.36332 8.65783 5.28511C8.78775 5.2069 8.88631 5.08652 8.93673 4.94445C8.98715 4.80237 8.98631 4.64739 8.93437 4.50585L8.95873 4.49982Z" fill="#E4AF18"/>
<path d="M6.33966 6.11631C7.56387 6.11631 8.55628 5.1333 8.55628 3.9207C8.55628 2.7081 7.56387 1.7251 6.33966 1.7251C5.11546 1.7251 4.12305 2.7081 4.12305 3.9207C4.12305 5.1333 5.11546 6.11631 6.33966 6.11631Z" fill="#FCC62D"/>
<path d="M6.3402 5.56746C7.25835 5.56746 8.00266 4.8302 8.00266 3.92075C8.00266 3.0113 7.25835 2.27405 6.3402 2.27405C5.42204 2.27405 4.67773 3.0113 4.67773 3.92075C4.67773 4.8302 5.42204 5.56746 6.3402 5.56746Z" fill="#FFD949"/>
<path d="M7.07096 2.97976C7.01763 3.05198 6.97077 3.12867 6.9309 3.20897C6.64544 3.08506 6.32289 3.07427 6.02964 3.17881C5.8545 3.21052 5.69668 3.30347 5.58491 3.44075C5.47314 3.57803 5.41486 3.7505 5.42068 3.92676C5.34675 3.73305 5.35255 3.51834 5.43683 3.32882C5.5211 3.13931 5.67712 2.99013 5.87131 2.91341H5.91394L6.04182 2.87118H6.19406C6.49082 2.82283 6.79535 2.86054 7.07096 2.97976Z" fill="#E4AF18"/>
<path d="M7.30752 3.85433C7.27421 3.90108 7.23757 3.94542 7.19791 3.98703L7.14919 4.02322L6.99086 3.93877L6.80208 3.86639C6.71143 3.83654 6.61729 3.8183 6.52196 3.8121C6.47705 3.72194 6.3984 3.65269 6.30273 3.61908C6.55524 3.50922 6.83487 3.47565 7.10656 3.52257L7.30752 3.85433Z" fill="#E4AF18"/>
<path d="M6.16926 3.68563C6.12213 3.67229 6.07253 3.66998 6.02434 3.67886C5.97616 3.68774 5.93071 3.70758 5.89159 3.73682C5.85246 3.76605 5.82072 3.80389 5.79886 3.84734C5.777 3.89079 5.76562 3.93867 5.76563 3.98722C5.76562 4.03577 5.777 4.08365 5.79886 4.1271C5.82072 4.17056 5.85246 4.20839 5.89159 4.23762C5.93071 4.26686 5.97616 4.2867 6.02434 4.29558C6.07253 4.30447 6.12213 4.30215 6.16926 4.28882C6.22696 4.29015 6.2839 4.27553 6.33368 4.24659C6.40786 4.21948 6.46911 4.16586 6.5054 4.09628C6.54168 4.02669 6.55037 3.94618 6.52976 3.87057C6.50915 3.79496 6.46073 3.72972 6.39402 3.68769C6.32731 3.64565 6.24714 3.62985 6.16926 3.6434V3.68563Z" fill="#E4AF18"/>
<path d="M5.77988 3.99909C5.78148 3.89775 5.82324 3.8011 5.89616 3.73001C5.96908 3.65891 6.06729 3.61907 6.16961 3.61908C6.41575 3.50802 6.68497 3.45634 6.95517 3.46828C6.93076 3.42543 6.90221 3.38503 6.86992 3.34764C6.67853 3.26489 6.46734 3.2377 6.26096 3.26923C6.14384 3.28608 6.03054 3.32281 5.92603 3.3778C5.85413 3.41613 5.78844 3.46493 5.73116 3.52257C5.66045 3.59229 5.60635 3.67679 5.57283 3.76987V3.80607C5.5427 3.91928 5.55571 4.03953 5.60937 4.14385V4.18004C5.67875 4.27196 5.71324 4.38514 5.7068 4.49973C5.70492 4.58432 5.68844 4.66796 5.65809 4.74704C5.62276 4.83746 5.56884 4.91963 5.49976 4.98832C5.63712 4.93769 5.75593 4.84732 5.84077 4.72894C5.89076 4.65959 5.92787 4.58198 5.95039 4.49973C5.96507 4.44433 5.97525 4.38785 5.98083 4.33084C5.91355 4.29983 5.8566 4.25043 5.81668 4.18845C5.77677 4.12648 5.75555 4.0545 5.75552 3.98099L5.77988 3.99909Z" fill="#E4AF18"/>
<path d="M6.87556 4.29476C6.87988 4.31516 6.8785 4.33635 6.87156 4.35603C6.86463 4.37572 6.8524 4.39316 6.8362 4.40647C6.82 4.41979 6.80044 4.42847 6.77963 4.43159C6.75881 4.4347 6.73754 4.43214 6.71808 4.42417C6.69863 4.41619 6.68175 4.40312 6.66924 4.38634C6.65674 4.36957 6.64909 4.34974 6.64713 4.32898C6.64516 4.30822 6.64895 4.28732 6.65808 4.26854C6.66722 4.24975 6.68135 4.23379 6.69897 4.22237L6.62589 4.13793C6.62031 4.13229 6.61719 4.12471 6.61719 4.11681C6.61719 4.10892 6.62031 4.10134 6.62589 4.0957L6.77204 4.21031L6.8573 4.27666C6.86412 4.28191 6.87026 4.28799 6.87556 4.29476Z" fill="#E4AF18"/>
<path d="M6.82827 4.71686V4.74702H6.77955H6.66994H6.61513C6.57314 4.73136 6.53405 4.70894 6.49943 4.68067C6.48841 4.67194 6.47944 4.66095 6.47313 4.64846C6.46682 4.63596 6.46333 4.62225 6.46289 4.60829V4.47559C6.50132 4.53673 6.5534 4.58832 6.61513 4.62638H6.65167C6.70713 4.65394 6.7668 4.67228 6.82827 4.68067V4.71686Z" fill="#E4AF18"/>
<path d="M7.09499 4.09553L7.03409 4.06537L6.86967 3.99902C6.91764 4.04932 6.95497 4.10861 6.97946 4.17341C7.00395 4.23821 7.0151 4.30721 7.01227 4.37634C7.00943 4.44547 6.99266 4.51334 6.96294 4.57596C6.93322 4.63858 6.89116 4.69467 6.83922 4.74095L6.80268 4.7711C6.69188 4.85302 6.55287 4.88822 6.41597 4.86901C6.27908 4.8498 6.1554 4.77774 6.07193 4.66856C6.03167 4.72799 5.98237 4.7809 5.92578 4.82539C6.03446 4.94198 6.1805 5.01775 6.33915 5.03985C6.49779 5.06195 6.65926 5.02902 6.79619 4.94665C6.93312 4.86427 7.03707 4.73753 7.09042 4.5879C7.14377 4.43827 7.14323 4.27497 7.0889 4.12569L7.09499 4.09553Z" fill="#E4AF18"/>
<path d="M6.93662 9.94046C8.09356 9.94046 9.03145 9.01147 9.03145 7.86549C9.03145 6.71952 8.09356 5.79053 6.93662 5.79053C5.77968 5.79053 4.8418 6.71952 4.8418 7.86549C4.8418 9.01147 5.77968 9.94046 6.93662 9.94046Z" fill="#FCC62D"/>
<path d="M6.93635 9.42202C7.80406 9.42202 8.50747 8.72528 8.50747 7.8658C8.50747 7.00632 7.80406 6.30957 6.93635 6.30957C6.06865 6.30957 5.36523 7.00632 5.36523 7.8658C5.36523 8.72528 6.06865 9.42202 6.93635 9.42202Z" fill="#FFD949"/>
<path d="M7.62437 6.97256C7.57342 7.04094 7.52859 7.1136 7.4904 7.1897C7.2212 7.06934 6.91504 7.05851 6.63786 7.15954C6.478 7.19586 6.33588 7.28615 6.23588 7.41492C6.13587 7.54369 6.08423 7.70291 6.08979 7.86527C6.01984 7.68197 6.02531 7.47879 6.10503 7.29944C6.18474 7.12009 6.33234 6.97889 6.51606 6.9062H6.5526L6.67439 6.87001H6.82055C7.0929 6.82911 7.37137 6.86463 7.62437 6.97256Z" fill="#E4AF18"/>
<path d="M7.84429 7.79919C7.81268 7.84176 7.77809 7.88207 7.74077 7.91983L7.69814 7.95602L7.5459 7.87761L7.3693 7.81125C7.28273 7.78177 7.19267 7.76352 7.10136 7.75697C7.05784 7.68161 6.98881 7.62392 6.90649 7.59411C7.14572 7.49045 7.4105 7.45898 7.66769 7.50363L7.84429 7.79919Z" fill="#E4AF18"/>
<path d="M6.77909 7.64258C6.69834 7.64258 6.62089 7.67435 6.56379 7.73091C6.50669 7.78747 6.47461 7.86418 6.47461 7.94417C6.47461 8.02416 6.50669 8.10087 6.56379 8.15743C6.62089 8.21399 6.69834 8.24577 6.77909 8.24577C6.83279 8.24581 6.88546 8.2312 6.93133 8.20354C6.98714 8.17032 7.03046 8.11993 7.05466 8.06005C7.07886 8.00017 7.08262 7.9341 7.06537 7.8719C7.04812 7.80971 7.01081 7.75481 6.95912 7.71558C6.90743 7.67636 6.8442 7.65495 6.77909 7.65464V7.64258Z" fill="#E4AF18"/>
<path d="M6.4072 7.9379C6.4072 7.84191 6.44569 7.74986 6.51421 7.68199C6.58273 7.61412 6.67567 7.57599 6.77257 7.57599C7.00512 7.47005 7.25977 7.42043 7.5155 7.43122C7.49289 7.3906 7.46638 7.35222 7.43634 7.31662C7.24529 7.23248 7.0331 7.20726 6.82738 7.24423C6.71667 7.26015 6.60955 7.29484 6.51072 7.34678C6.44358 7.38189 6.38202 7.4266 6.32803 7.47948C6.26239 7.54391 6.21241 7.62229 6.18188 7.70869V7.73885C6.17704 7.7769 6.17704 7.8154 6.18188 7.85345C6.1816 7.92466 6.19829 7.99493 6.2306 8.05854V8.09473C6.29557 8.18166 6.32788 8.28832 6.32194 8.39632C6.31951 8.47693 6.30303 8.55652 6.27323 8.63157C6.24095 8.71712 6.1912 8.79515 6.12708 8.86078C6.25645 8.81386 6.36879 8.72987 6.44982 8.6195C6.49703 8.55376 6.53209 8.48024 6.55335 8.40236C6.56794 8.34898 6.57812 8.29451 6.5838 8.23949C6.52023 8.20983 6.46646 8.16291 6.42873 8.10419C6.39101 8.04546 6.37087 7.97734 6.37066 7.90774L6.4072 7.9379Z" fill="#E4AF18"/>
<path d="M7.44234 8.22144C7.44297 8.24064 7.43845 8.25965 7.42923 8.27655C7.42002 8.29345 7.40645 8.30762 7.3899 8.31763C7.37335 8.32764 7.35442 8.33312 7.33503 8.33351C7.31565 8.3339 7.2965 8.3292 7.27955 8.31987C7.26261 8.31054 7.24846 8.29693 7.23855 8.28042C7.22865 8.26391 7.22334 8.24509 7.22318 8.22589C7.22301 8.20668 7.22799 8.18778 7.23761 8.1711C7.24723 8.15443 7.26114 8.14058 7.27792 8.13096L7.21094 8.05255V8.01636L7.351 8.12493L7.43016 8.18525C7.43661 8.19639 7.44075 8.2087 7.44234 8.22144Z" fill="#E4AF18"/>
<path d="M7.39975 8.61358H7.30841H7.20489H7.15008C7.11045 8.59957 7.07342 8.57919 7.04047 8.55326C7.03023 8.54423 7.02219 8.53304 7.01691 8.52051C7.01164 8.50798 7.00929 8.49443 7.01002 8.48088V8.40247C7.04658 8.46142 7.09665 8.51102 7.15617 8.54723H7.19271C7.24418 8.57404 7.29971 8.59238 7.35713 8.60152L7.39975 8.61358Z" fill="#E4AF18"/>
<path d="M7.65001 8.02827H7.5952L7.44296 7.96191C7.48936 8.00785 7.52617 8.06239 7.55128 8.12241C7.57639 8.18244 7.58932 8.24678 7.58932 8.31176C7.58932 8.37674 7.57639 8.44108 7.55128 8.50111C7.52617 8.56114 7.48936 8.61568 7.44296 8.66161H7.40642C7.3011 8.73907 7.16925 8.77236 7.03934 8.75431C6.90944 8.73625 6.79193 8.66828 6.71221 8.5651C6.69061 8.61887 6.66195 8.66957 6.62695 8.7159C6.72986 8.82675 6.86837 8.89886 7.0189 8.91997C7.16944 8.94107 7.32271 8.90986 7.45263 8.83165C7.58255 8.75344 7.68111 8.63306 7.73153 8.49099C7.78195 8.34891 7.78111 8.19393 7.72917 8.05239L7.65001 8.02827Z" fill="#E4AF18"/>
<path d="M9.11045 9.95267C10.2674 9.95267 11.2053 9.02368 11.2053 7.8777C11.2053 6.73173 10.2674 5.80273 9.11045 5.80273C7.95351 5.80273 7.01562 6.73173 7.01562 7.8777C7.01562 9.02368 7.95351 9.95267 9.11045 9.95267Z" fill="#FCC62D"/>
<path d="M9.11018 9.43374C9.97788 9.43374 10.6813 8.737 10.6813 7.87752C10.6813 7.01804 9.97788 6.32129 9.11018 6.32129C8.24248 6.32129 7.53906 7.01804 7.53906 7.87752C7.53906 8.737 8.24248 9.43374 9.11018 9.43374Z" fill="#FFD949"/>
<path d="M9.7982 6.98525C9.74725 7.05363 9.70242 7.12629 9.66423 7.2024C9.39503 7.08204 9.08887 7.07121 8.81169 7.17224C8.65182 7.20856 8.5097 7.29885 8.4097 7.42761C8.3097 7.55638 8.25806 7.71561 8.26362 7.87797C8.19367 7.69466 8.19914 7.49149 8.27885 7.31213C8.35857 7.13278 8.50616 6.99158 8.68989 6.9189H8.72643L8.84822 6.88271H8.99437C9.26673 6.8418 9.5452 6.87733 9.7982 6.98525Z" fill="#E4AF18"/>
<path d="M10.0182 7.84141C9.98662 7.88397 9.95202 7.92428 9.91471 7.96204L9.87208 7.99824L9.7442 7.88966L9.53715 7.84141C9.45058 7.81192 9.36052 7.79367 9.26921 7.78712C9.22568 7.71176 9.15666 7.65407 9.07434 7.62426C9.31357 7.5206 9.57835 7.48913 9.83554 7.53378L10.0182 7.84141Z" fill="#E4AF18"/>
<path d="M8.95292 7.6543C8.87216 7.6543 8.79472 7.68607 8.73762 7.74263C8.68052 7.79919 8.64844 7.8759 8.64844 7.95589C8.64844 8.03588 8.68052 8.11259 8.73762 8.16915C8.79472 8.22571 8.87216 8.25749 8.95292 8.25749C9.00662 8.25753 9.05929 8.24292 9.10516 8.21526C9.16097 8.18204 9.20428 8.13165 9.22848 8.07177C9.25269 8.01189 9.25645 7.94582 9.2392 7.88362C9.22195 7.82143 9.18463 7.76653 9.13295 7.7273C9.08126 7.68808 9.01803 7.66667 8.95292 7.66636V7.6543Z" fill="#E4AF18"/>
<path d="M8.5817 7.94999C8.5817 7.854 8.6202 7.76195 8.68872 7.69407C8.75724 7.6262 8.85018 7.58807 8.94708 7.58807C9.19622 7.47334 9.4708 7.42351 9.74482 7.44331C9.7222 7.40268 9.69569 7.3643 9.66565 7.3287C9.47461 7.24457 9.26241 7.21934 9.05669 7.25632C8.94598 7.27224 8.83886 7.30693 8.74003 7.35886C8.67289 7.39397 8.61134 7.43869 8.55735 7.49156C8.4917 7.55599 8.44172 7.63438 8.4112 7.72077V7.75093C8.38154 7.8576 8.39237 7.97133 8.44164 8.07062V8.10681C8.51321 8.2042 8.54377 8.32531 8.5269 8.4446C8.52447 8.52521 8.50799 8.6048 8.47818 8.67984C8.44591 8.7654 8.39615 8.84343 8.33203 8.90906C8.4614 8.86213 8.57375 8.77814 8.65478 8.66778C8.70199 8.60204 8.73704 8.52851 8.7583 8.45063C8.7729 8.39725 8.78308 8.34279 8.78875 8.28777C8.72518 8.2581 8.67141 8.21118 8.63369 8.15246C8.59596 8.09374 8.57582 8.02562 8.57562 7.95602L8.5817 7.94999Z" fill="#E4AF18"/>
<path d="M9.62203 8.2334C9.62266 8.2526 9.61813 8.27162 9.60892 8.28851C9.59971 8.30541 9.58613 8.31959 9.56958 8.32959C9.55304 8.3396 9.5341 8.34508 9.51472 8.34547C9.49533 8.34587 9.47619 8.34116 9.45924 8.33183C9.44229 8.3225 9.42814 8.30889 9.41824 8.29238C9.40834 8.27587 9.40303 8.25705 9.40287 8.23785C9.4027 8.21865 9.40768 8.19974 9.4173 8.18306C9.42691 8.16639 9.44083 8.15254 9.45761 8.14293L9.39062 8.06451V8.02832L9.53069 8.13689L9.60985 8.19721C9.6163 8.20835 9.62044 8.22066 9.62203 8.2334Z" fill="#E4AF18"/>
<path d="M9.57277 8.62567H9.49969H9.39617H9.34136C9.30173 8.61165 9.2647 8.59127 9.23175 8.56535C9.22152 8.55632 9.21347 8.54512 9.2082 8.53259C9.20293 8.52006 9.20057 8.50652 9.2013 8.49297V8.41455C9.23786 8.47351 9.28793 8.5231 9.34745 8.55932H9.38399C9.43546 8.58613 9.49099 8.60446 9.54841 8.6136L9.57277 8.62567Z" fill="#E4AF18"/>
<path d="M9.82383 8.04047H9.76903L9.61679 7.97412C9.66319 8.02005 9.7 8.07459 9.72511 8.13462C9.75022 8.19465 9.76315 8.25899 9.76315 8.32397C9.76315 8.38895 9.75022 8.45329 9.72511 8.51332C9.7 8.57335 9.66319 8.62789 9.61679 8.67382H9.58025C9.47493 8.75128 9.34307 8.78457 9.21317 8.76651C9.08327 8.74845 8.96576 8.68049 8.88604 8.57731C8.86444 8.63107 8.83577 8.68178 8.80078 8.72811C8.90369 8.83896 9.0422 8.91107 9.19273 8.93217C9.34327 8.95328 9.49653 8.92207 9.62646 8.84386C9.75638 8.76565 9.85494 8.64527 9.90536 8.50319C9.95577 8.36112 9.95494 8.20613 9.903 8.0646L9.82383 8.04047Z" fill="#E4AF18"/>
<path d="M8.24591 5.04258C9.47012 5.04258 10.4625 4.05957 10.4625 2.84697C10.4625 1.63437 9.47012 0.651367 8.24591 0.651367C7.02171 0.651367 6.0293 1.63437 6.0293 2.84697C6.0293 4.05957 7.02171 5.04258 8.24591 5.04258Z" fill="#FCC62D"/>
<path d="M8.2462 4.49373C9.16435 4.49373 9.90866 3.75647 9.90866 2.84702C9.90866 1.93757 9.16435 1.20032 8.2462 1.20032C7.32805 1.20032 6.58374 1.93757 6.58374 2.84702C6.58374 3.75647 7.32805 4.49373 8.2462 4.49373Z" fill="#FFD949"/>
<path d="M8.9779 1.90581C8.92458 1.97804 8.87771 2.05473 8.83784 2.13503C8.54311 2.01601 8.21305 2.01601 7.91831 2.13503C7.74317 2.16673 7.58535 2.25969 7.47358 2.39697C7.36181 2.53425 7.30353 2.70672 7.30935 2.88298C7.23542 2.68927 7.24122 2.47456 7.3255 2.28504C7.40977 2.09552 7.56579 1.94635 7.75998 1.86962H7.80261L7.95485 1.8093H8.10709C8.40071 1.75835 8.70292 1.79184 8.9779 1.90581Z" fill="#E4AF18"/>
<path d="M9.20136 2.78057C9.16805 2.82732 9.13142 2.87166 9.09175 2.91327L9.04303 2.94946L8.8847 2.86501L8.69592 2.79263C8.60527 2.76278 8.51113 2.74454 8.4158 2.73834C8.37175 2.65837 8.30057 2.59641 8.21484 2.56342C8.46735 2.45356 8.74698 2.41999 9.01867 2.46691L9.20136 2.78057Z" fill="#E4AF18"/>
<path d="M8.07576 2.61177C8.02863 2.59844 7.97902 2.59612 7.93084 2.60501C7.88265 2.61389 7.83721 2.63373 7.79808 2.66297C7.75895 2.6922 7.72721 2.73003 7.70535 2.77349C7.6835 2.81694 7.67212 2.86482 7.67212 2.91337C7.67212 2.96192 7.6835 3.0098 7.70535 3.05325C7.72721 3.0967 7.75895 3.13454 7.79808 3.16377C7.83721 3.19301 7.88265 3.21285 7.93084 3.22173C7.97902 3.23061 8.02863 3.2283 8.07576 3.21496C8.13346 3.2163 8.19039 3.20167 8.24017 3.17274C8.31435 3.14563 8.37561 3.09201 8.41189 3.02242C8.44818 2.95284 8.45687 2.87233 8.43626 2.79672C8.41565 2.72111 8.36723 2.65587 8.30052 2.61383C8.2338 2.5718 8.15363 2.556 8.07576 2.56955V2.61177Z" fill="#E4AF18"/>
<path d="M7.68499 2.92569C7.68499 2.82331 7.72605 2.72512 7.79914 2.65272C7.87223 2.58032 7.97136 2.53965 8.07473 2.53965C8.33034 2.43304 8.6083 2.38957 8.88464 2.41298C8.86023 2.37013 8.83168 2.32973 8.79939 2.29235C8.608 2.20959 8.39681 2.1824 8.19043 2.21393C8.07331 2.23078 7.96001 2.26751 7.8555 2.3225C7.7836 2.36083 7.71791 2.40963 7.66063 2.46727C7.58992 2.537 7.53582 2.62149 7.5023 2.71458V2.75077C7.49721 2.79082 7.49721 2.83135 7.5023 2.87141C7.50102 2.94658 7.51771 3.02099 7.55102 3.08855V3.12474C7.6204 3.21667 7.65489 3.32984 7.64845 3.44443C7.64657 3.52902 7.63009 3.61266 7.59974 3.69174C7.56441 3.78216 7.51049 3.86433 7.44141 3.93302C7.57877 3.88239 7.69758 3.79202 7.78242 3.67365C7.83241 3.60429 7.86952 3.52668 7.89204 3.44443C7.90467 3.38887 7.91281 3.33239 7.9164 3.27554C7.84911 3.24453 7.79216 3.19513 7.75224 3.13316C7.71233 3.07118 7.69111 2.9992 7.69108 2.92569H7.68499Z" fill="#E4AF18"/>
<path d="M8.78115 3.22071C8.78194 3.24114 8.7772 3.26141 8.76741 3.27941C8.75763 3.29741 8.74316 3.3125 8.72551 3.32309C8.70786 3.33369 8.68767 3.33942 8.66703 3.33968C8.64639 3.33995 8.62605 3.33474 8.60813 3.32459C8.59021 3.31445 8.57535 3.29974 8.5651 3.28199C8.55486 3.26425 8.54959 3.24411 8.54984 3.22366C8.5501 3.20322 8.55587 3.18322 8.56656 3.16573C8.57725 3.14824 8.59247 3.1339 8.61065 3.1242L8.52539 3.01562L8.67154 3.13023L8.7568 3.19658C8.76622 3.20322 8.77445 3.21138 8.78115 3.22071Z" fill="#E4AF18"/>
<path d="M8.73245 3.61949V3.64965H8.68374L8.52541 3.61949H8.4706C8.42861 3.60383 8.38952 3.58141 8.3549 3.55314C8.34388 3.54441 8.33491 3.53342 8.3286 3.52093C8.32229 3.50843 8.3188 3.49472 8.31836 3.48076V3.40234C8.35678 3.46349 8.40887 3.51508 8.4706 3.55314H8.50714C8.5626 3.5807 8.62226 3.59904 8.68374 3.60743L8.73245 3.61949Z" fill="#E4AF18"/>
<path d="M8.99525 3.01594L8.93436 2.98578L8.76994 2.91943C8.84801 3.02454 8.88322 3.15494 8.86855 3.28462C8.85388 3.41431 8.7904 3.53375 8.69077 3.61913L8.65424 3.64929C8.6003 3.69177 8.53843 3.72329 8.47217 3.74203C8.40591 3.76078 8.33657 3.7664 8.26812 3.75855C8.19967 3.75071 8.13345 3.72956 8.07327 3.69632C8.01308 3.66308 7.96011 3.6184 7.91739 3.56484C7.89399 3.62085 7.86328 3.67358 7.82605 3.72167C7.93354 3.84456 8.08151 3.92573 8.2437 3.9508C8.40588 3.97586 8.57179 3.94319 8.71196 3.85858C8.85214 3.77397 8.95751 3.6429 9.00937 3.48864C9.06123 3.33438 9.05623 3.1669 8.99525 3.01594Z" fill="#E4AF18"/>
<path d="M5.84035 12.1727C5.65784 12.189 5.48433 12.2586 5.34181 12.3727C5.19929 12.4868 5.09417 12.6403 5.03977 12.8136C4.98537 12.9869 4.98414 13.1724 5.03623 13.3464C5.08832 13.5204 5.19139 13.6752 5.33237 13.7912C5.47336 13.9071 5.64593 13.979 5.8282 13.9978C6.01048 14.0165 6.19426 13.9812 6.35627 13.8963C6.51828 13.8115 6.65122 13.681 6.73824 13.5212C6.82527 13.3615 6.86247 13.1797 6.84513 12.999C6.82197 12.7577 6.70326 12.5353 6.51496 12.3804C6.32666 12.2255 6.0841 12.1508 5.84035 12.1727ZM5.95605 13.4213C5.88763 13.4281 5.81869 13.4147 5.75798 13.3827C5.69726 13.3507 5.64751 13.3016 5.61504 13.2416C5.58256 13.1815 5.56883 13.1133 5.57558 13.0455C5.58233 12.9777 5.60926 12.9134 5.65294 12.8608C5.69663 12.8082 5.75511 12.7696 5.82097 12.75C5.88682 12.7303 5.95708 12.7305 6.02283 12.7505C6.08857 12.7705 6.14685 12.8094 6.19025 12.8622C6.23366 12.915 6.26024 12.9795 6.26662 13.0473C6.27512 13.1376 6.24725 13.2276 6.18908 13.2976C6.13091 13.3677 6.04715 13.4121 5.95605 13.4213Z" fill="#57868E"/>
<path d="M11.6564 11.6717C11.4249 11.6931 11.2049 11.7819 11.0244 11.9271C10.8438 12.0723 10.7108 12.2672 10.6422 12.4873C10.5736 12.7073 10.5724 12.9426 10.6388 13.1634C10.7052 13.3841 10.8362 13.5804 11.0153 13.7273C11.1943 13.8743 11.4134 13.9653 11.6447 13.9889C11.876 14.0125 12.1092 13.9676 12.3147 13.8599C12.5203 13.7522 12.6889 13.5866 12.7994 13.3839C12.9098 13.1812 12.9571 12.9506 12.9352 12.7213C12.9059 12.4142 12.7548 12.1313 12.515 11.9345C12.2752 11.7377 11.9664 11.6432 11.6564 11.6717ZM11.8086 13.2702C11.7225 13.2781 11.6359 13.2605 11.5597 13.2198C11.4836 13.179 11.4214 13.1168 11.3808 13.0411C11.3403 12.9653 11.3233 12.8794 11.332 12.7941C11.3407 12.7088 11.3747 12.628 11.4297 12.5618C11.4847 12.4956 11.5582 12.447 11.641 12.4221C11.7238 12.3973 11.8122 12.3972 11.8951 12.422C11.9779 12.4468 12.0515 12.4953 12.1066 12.5615C12.1616 12.6276 12.1957 12.7084 12.2045 12.7937C12.2103 12.8508 12.2047 12.9084 12.188 12.9634C12.1712 13.0183 12.1437 13.0694 12.1068 13.1137C12.07 13.158 12.0247 13.1946 11.9736 13.2215C11.9224 13.2484 11.8663 13.2649 11.8086 13.2702Z" fill="#57868E"/>
<path d="M13.398 10.9961L4.51937 11.8164C4.36577 11.8311 4.21167 11.7938 4.08226 11.7105C3.95285 11.6273 3.85577 11.503 3.80689 11.358L1.48066 4.42737L0.439334 4.52388C0.387354 4.52903 0.334858 4.52399 0.284846 4.50904C0.234833 4.49409 0.188282 4.46953 0.147851 4.43677C0.107419 4.404 0.0738996 4.36367 0.0492052 4.31807C0.0245108 4.27247 0.00912539 4.2225 0.00392735 4.17101C-0.00127069 4.11953 0.00382047 4.06753 0.0189101 4.01799C0.0339998 3.96845 0.0587925 3.92234 0.0918726 3.88229C0.124953 3.84225 0.165672 3.80904 0.211707 3.78458C0.257741 3.76012 0.308189 3.74488 0.360169 3.73974L1.49284 3.6191C1.64644 3.6044 1.80053 3.64173 1.92994 3.725C2.05935 3.80827 2.15643 3.93254 2.20532 4.07752L4.53764 11.0263L13.3128 10.2119C13.3647 10.2072 13.4172 10.2126 13.467 10.2279C13.5169 10.2433 13.5632 10.2681 13.6033 10.3012C13.6435 10.3342 13.6767 10.3748 13.701 10.4205C13.7253 10.4663 13.7403 10.5163 13.7451 10.5678C13.7499 10.6193 13.7444 10.6712 13.729 10.7206C13.7135 10.77 13.6884 10.8159 13.655 10.8557C13.6217 10.8954 13.5807 10.9283 13.5345 10.9524C13.4883 10.9765 13.4378 10.9913 13.3858 10.9961H13.398Z" fill="#57868E"/>
<path d="M11.3766 5.19948C12.8261 5.19948 14.0012 4.03554 14.0012 2.59974C14.0012 1.16394 12.8261 0 11.3766 0C9.92704 0 8.75195 1.16394 8.75195 2.59974C8.75195 4.03554 9.92704 5.19948 11.3766 5.19948Z" fill="#FCC62D"/>
<path d="M11.3771 4.54796C12.4634 4.54796 13.344 3.67568 13.344 2.59967C13.344 1.52365 12.4634 0.651367 11.3771 0.651367C10.2908 0.651367 9.41016 1.52365 9.41016 2.59967C9.41016 3.67568 10.2908 4.54796 11.3771 4.54796Z" fill="#FFD949"/>
<path d="M12.2419 1.48376C12.1792 1.5693 12.1242 1.66013 12.0775 1.75519V1.78535C11.7408 1.63523 11.3581 1.62223 11.0118 1.74916C10.8106 1.79409 10.6316 1.90736 10.506 2.06932C10.3803 2.23128 10.3158 2.43171 10.3237 2.63585C10.2337 2.40618 10.2389 2.15064 10.3381 1.92474C10.4373 1.69885 10.6225 1.52086 10.8535 1.42947H10.9022L11.0544 1.38121H11.231C11.571 1.32002 11.9215 1.35557 12.2419 1.48376Z" fill="#E4AF18"/>
<path d="M12.5095 2.5152C12.4688 2.57064 12.424 2.62305 12.3755 2.67203L12.3207 2.71426L12.132 2.61775L11.9127 2.5333C11.8025 2.49641 11.6878 2.4741 11.5717 2.46695C11.5177 2.3721 11.4313 2.2994 11.3281 2.26187C11.6284 2.13107 11.9611 2.09119 12.2842 2.14726L12.5095 2.5152Z" fill="#E4AF18"/>
<path d="M11.1753 2.32227C11.076 2.32227 10.9807 2.36135 10.9105 2.43092C10.8402 2.50049 10.8008 2.59484 10.8008 2.69323C10.8008 2.79161 10.8402 2.88597 10.9105 2.95554C10.9807 3.0251 11.076 3.06419 11.1753 3.06419C11.2435 3.06645 11.311 3.04973 11.3702 3.01593C11.4417 2.97555 11.4977 2.91274 11.5294 2.83738C11.561 2.76203 11.5664 2.6784 11.5448 2.59966C11.5231 2.52092 11.4757 2.45153 11.4099 2.40241C11.3442 2.35328 11.2638 2.32721 11.1814 2.3283L11.1753 2.32227Z" fill="#E4AF18"/>
<path d="M10.7189 2.69006C10.7205 2.56953 10.77 2.45447 10.8566 2.3698C10.9432 2.28513 11.06 2.23766 11.1817 2.23767H11.2121C11.5038 2.10495 11.8232 2.04292 12.1439 2.05671C12.1161 2.00547 12.0835 1.95699 12.0464 1.91195C11.8161 1.80756 11.56 1.77193 11.3096 1.8094C11.1709 1.83072 11.037 1.87561 10.9138 1.94211C10.8286 1.98669 10.7506 2.04361 10.6823 2.111C10.6007 2.19305 10.5383 2.2919 10.4997 2.40053V2.41259V2.45482C10.4938 2.5029 10.4938 2.5515 10.4997 2.59958C10.4996 2.68759 10.5205 2.77437 10.5606 2.85292L10.591 2.89514C10.6696 3.00603 10.7082 3.13988 10.7006 3.27515C10.6978 3.37642 10.6771 3.47643 10.6397 3.57071C10.5989 3.67654 10.5368 3.77301 10.457 3.85421C10.6203 3.79618 10.7624 3.69116 10.865 3.55262C10.9104 3.47574 10.9433 3.39229 10.9625 3.30531C10.968 3.23706 10.968 3.16848 10.9625 3.10023C10.8824 3.0634 10.8146 3.00465 10.7671 2.9309C10.7196 2.85715 10.6944 2.77149 10.6945 2.68403L10.7189 2.69006Z" fill="#E4AF18"/>
<path d="M12.0162 3.01621C12.0163 3.03951 12.0101 3.06243 11.9984 3.08263C11.9867 3.10284 11.9698 3.11964 11.9494 3.13133C11.9291 3.14302 11.906 3.14919 11.8824 3.14922C11.8589 3.14926 11.8358 3.14316 11.8154 3.13153C11.795 3.1199 11.7781 3.10315 11.7663 3.08298C11.7545 3.0628 11.7483 3.03991 11.7483 3.0166C11.7483 2.9933 11.7544 2.9704 11.7662 2.95021C11.778 2.93002 11.7949 2.91325 11.8153 2.9016L11.73 2.80509C11.724 2.79846 11.7207 2.78987 11.7207 2.78096C11.7207 2.77206 11.724 2.76347 11.73 2.75684L11.9066 2.88954L12.0101 2.96795V3.01621C12.0122 3.01616 12.0142 3.01616 12.0162 3.01621Z" fill="#E4AF18"/>
<path d="M11.9548 3.53467L11.9182 3.57086H11.8634H11.7355H11.6685C11.6199 3.5521 11.5746 3.52561 11.5346 3.49245C11.5218 3.48218 11.5114 3.46933 11.5041 3.45477C11.4967 3.44021 11.4926 3.42427 11.4919 3.408V3.2572C11.5378 3.3308 11.6003 3.39276 11.6746 3.43816H11.7173C11.7822 3.47131 11.8521 3.49372 11.9243 3.50451L11.9548 3.53467Z" fill="#E4AF18"/>
<path d="M12.2645 2.80489L12.1792 2.75664H12.1427L11.9478 2.67822C12.0054 2.73699 12.0503 2.80676 12.0798 2.88329C12.1093 2.95981 12.1227 3.04148 12.1193 3.12331C12.1159 3.20515 12.0957 3.28544 12.0599 3.35929C12.0241 3.43313 11.9736 3.49899 11.9113 3.55285L11.8686 3.58904C11.8043 3.63845 11.7306 3.67459 11.6519 3.69531C11.5732 3.71603 11.4912 3.72091 11.4105 3.70966C11.3299 3.69841 11.2524 3.67127 11.1826 3.62983C11.1127 3.58839 11.052 3.5335 11.0039 3.4684C10.9778 3.53493 10.943 3.59779 10.9004 3.65539C11.0293 3.79389 11.2027 3.88384 11.391 3.90993C11.5793 3.93602 11.771 3.89662 11.9333 3.79845C12.0956 3.70029 12.2185 3.54942 12.2811 3.37156C12.3437 3.19369 12.3421 2.99983 12.2766 2.82299L12.2645 2.80489Z" fill="#E4AF18"/>
<path d="M5.48109 10.3385L12.1127 9.73529C12.4902 9.6991 12.6546 9.2829 12.7216 8.90892L13.7447 3.83008L3.29492 5.1209L4.72598 9.65085C4.84168 10.0067 5.10962 10.3867 5.48109 10.3505V10.3385ZM10.9617 8.64352L11.3454 5.38027C11.3671 5.30072 11.4169 5.23153 11.4857 5.1853C11.5546 5.13906 11.6379 5.11885 11.7205 5.12835C11.8031 5.13785 11.8796 5.17643 11.9359 5.23706C11.9922 5.29769 12.0247 5.37634 12.0274 5.45869L11.6438 8.72194C11.6344 8.79973 11.5986 8.87204 11.5421 8.92689C11.4856 8.98173 11.4119 9.01583 11.3332 9.02353H11.2601C11.169 9.01294 11.0857 8.96701 11.0287 8.89579C10.9716 8.82457 10.9454 8.73387 10.9556 8.64352H10.9617ZM9.24447 8.8486L9.13485 5.63361C9.14597 5.55103 9.18698 5.47525 9.25027 5.42037C9.31355 5.36549 9.3948 5.33523 9.47891 5.33523C9.56303 5.33523 9.64428 5.36549 9.70756 5.42037C9.77085 5.47525 9.81186 5.55103 9.82298 5.63361L9.89605 8.85464C9.89806 8.94092 9.86724 9.02479 9.8097 9.0896C9.75217 9.15442 9.67213 9.19542 9.58548 9.20449C9.49445 9.20612 9.40641 9.17227 9.34034 9.11021C9.27427 9.04815 9.23547 8.96287 9.23229 8.87273L9.24447 8.8486ZM7.174 5.49488C7.26438 5.48094 7.35666 5.5029 7.43078 5.55599C7.5049 5.60908 7.55487 5.689 7.56982 5.77838L8.09962 8.95718C8.11369 9.0467 8.09152 9.1381 8.03792 9.21152C7.98433 9.28494 7.90364 9.33443 7.81341 9.34925C7.72692 9.35656 7.6408 9.33151 7.57203 9.27903C7.50327 9.22655 7.45686 9.15046 7.44194 9.06575L6.8817 5.89298C6.86763 5.80346 6.8898 5.71206 6.9434 5.63864C6.99699 5.56522 7.07768 5.51573 7.16791 5.50091L7.174 5.49488ZM4.95738 5.70599C5.0446 5.67944 5.13887 5.68797 5.21978 5.72974C5.3007 5.7715 5.36176 5.84315 5.38975 5.92917L6.37017 9.04766C6.39698 9.13405 6.38837 9.22742 6.3462 9.30757C6.30404 9.38772 6.2317 9.4482 6.14486 9.47592H6.07178C5.9939 9.48251 5.91606 9.46286 5.85085 9.42017C5.78564 9.37747 5.73689 9.31423 5.71249 9.24068L4.72598 6.1041C4.69917 6.01771 4.70778 5.92434 4.74995 5.84419C4.79212 5.76404 4.86445 5.70356 4.95129 5.67583L4.95738 5.70599Z" fill="#57868E"/>
</g>
<defs>
<clipPath id="clip0_1_2193">
<rect width="14" height="14" fill="white"/>
</clipPath>
</defs>
</svg>
