<svg width="14" height="10" viewBox="0 0 14 10" fill="none" xmlns="http://www.w3.org/2000/svg">
<g clip-path="url(#clip0_1_2349)">
<path d="M12.9207 5.03613V5.24809C12.9207 6.44392 10.8204 7.41196 8.22978 7.41196C6.9845 7.44409 5.75042 7.17991 4.63867 6.64322C4.9302 7.71883 6.90133 8.61095 9.2965 8.61095C11.8871 8.61095 13.9875 7.56381 13.9875 6.36799C14.0007 5.85233 13.5833 5.3778 12.9207 5.03613Z" fill="#FCC62D"/>
<path d="M9.30951 8.62089C6.71557 8.62089 4.61523 7.57375 4.61523 6.37793V7.83633C4.61523 9.02899 6.71557 10.0002 9.30951 10.0002C11.9035 10.0002 14.0005 9.02899 14.0005 7.83633V6.37793C14.0005 7.57375 11.9001 8.62089 9.30951 8.62089Z" fill="#E4AF18"/>
<path d="M5.1543 8.85785C5.26705 8.95644 5.38779 9.04636 5.51539 9.12676V7.6905C5.38756 7.60691 5.26682 7.51382 5.1543 7.41211V8.85785Z" fill="#CE9912"/>
<path d="M13.0996 7.6905V9.12043C13.227 9.04205 13.3477 8.95426 13.4607 8.85785V7.41211C13.3482 7.51382 13.2274 7.60691 13.0996 7.6905Z" fill="#CE9912"/>
<path d="M5.87695 9.31988C5.98959 9.37683 6.11216 9.43061 6.23805 9.48122V8.06711C6.11476 8.0207 5.99422 7.96789 5.87695 7.90894V9.31988Z" fill="#CE9912"/>
<path d="M12.3767 9.49071C12.5026 9.4401 12.6219 9.38632 12.7378 9.32937V7.90894C12.6219 7.96904 12.5026 8.02599 12.3767 8.0766V9.49071Z" fill="#CE9912"/>
<path d="M6.59961 9.61067C6.71556 9.64864 6.83813 9.68343 6.96071 9.71823V8.31994L6.59961 8.20605V9.61067Z" fill="#CE9912"/>
<path d="M11.6545 9.71848C11.7771 9.68368 11.8997 9.64888 12.0156 9.61092V8.2063L11.6545 8.32019V9.71848Z" fill="#CE9912"/>
<path d="M7.50391 9.84216C7.61986 9.86431 7.73912 9.88645 7.86169 9.90227V8.51663C7.73801 8.49765 7.61875 8.4755 7.50391 8.4502V9.84216Z" fill="#CE9912"/>
<path d="M10.7501 9.9019C10.8727 9.88608 10.9953 9.86394 11.1145 9.84179V8.44983C10.9953 8.47514 10.8727 8.49728 10.7501 8.51626V9.9019Z" fill="#CE9912"/>
<path d="M8.58398 9.98087C8.70325 9.98087 8.82582 9.99669 8.94508 9.99985V8.62054C8.82582 8.62054 8.70325 8.62054 8.58398 8.60156V9.98087Z" fill="#CE9912"/>
<path d="M9.66602 9.99985C9.78859 9.99985 9.91116 9.99985 10.0271 9.98087V8.60156C9.91116 8.60156 9.78859 8.60156 9.66602 8.62054V9.99985Z" fill="#CE9912"/>
<path d="M8.22577 6.0329C5.63183 6.0329 3.53149 4.98576 3.53149 3.79626V5.25466C3.53149 6.45049 5.63183 7.41854 8.22577 7.41854C10.8197 7.41854 12.92 6.44416 12.92 5.24834V3.79626C12.92 4.99209 10.8197 6.03923 8.22908 6.03923" fill="#E4AF18"/>
<path d="M4.07227 6.26705C4.18593 6.36364 4.3066 6.45244 4.43336 6.53279V5.10287C4.30637 5.01934 4.18571 4.92737 4.07227 4.82764V6.26705Z" fill="#CE9912"/>
<path d="M12.0156 5.10287V6.53279C12.1424 6.45244 12.2631 6.36364 12.3767 6.26705V4.82764C12.2633 4.92737 12.1426 5.01934 12.0156 5.10287Z" fill="#CE9912"/>
<path d="M4.79297 6.73196C4.9056 6.7889 5.02818 6.84268 5.15407 6.8933V5.47919C5.03057 5.42968 4.91002 5.37371 4.79297 5.31152V6.73196Z" fill="#CE9912"/>
<path d="M11.293 6.8933C11.4189 6.84268 11.5414 6.7889 11.6541 6.73196V5.31152C11.537 5.37371 11.4165 5.42968 11.293 5.47919V6.8933Z" fill="#CE9912"/>
<path d="M5.51587 7.02315C5.63182 7.06111 5.75439 7.09591 5.87697 7.13071V5.73242C5.75439 5.69446 5.63182 5.65966 5.51587 5.61853V7.02315Z" fill="#CE9912"/>
<path d="M10.5703 7.13034C10.6929 7.09554 10.8155 7.06075 10.9314 7.02278V5.61816C10.8155 5.65929 10.6929 5.69409 10.5703 5.73205V7.13034Z" fill="#CE9912"/>
<path d="M6.41992 7.25427C6.53587 7.27641 6.65513 7.29856 6.77771 7.31438V5.92874C6.65624 5.90976 6.53698 5.88761 6.41992 5.8623V7.25427Z" fill="#CE9912"/>
<path d="M9.66602 7.31438C9.78859 7.29856 9.91116 7.27641 10.0271 7.25427V5.8623C9.91116 5.88761 9.78859 5.90976 9.66602 5.92874V7.31438Z" fill="#CE9912"/>
<path d="M7.50391 7.39298C7.61986 7.39298 7.74243 7.4088 7.86169 7.41196V6.03265C7.74243 6.03265 7.61986 6.03265 7.50391 6.01367V7.39298Z" fill="#CE9912"/>
<path d="M8.58398 7.4122C8.70656 7.4122 8.82913 7.4122 8.94508 7.39322V6.01074C8.82913 6.01074 8.70656 6.01074 8.58398 6.02972V7.4122Z" fill="#CE9912"/>
<path d="M12.795 5.74219C12.3114 6.69125 10.4496 7.41255 8.22666 7.41255C7.45423 7.41778 6.68447 7.32523 5.9375 7.13732C6.60007 7.5644 7.75624 7.92504 9.30996 7.92504C11.778 7.92504 13.2853 7.01077 13.2853 6.37806C13.2629 6.24357 13.2074 6.11609 13.1233 6.0061C13.0392 5.89611 12.929 5.80674 12.8017 5.74535" fill="#FFD949"/>
<path d="M9.12686 5.69438C6.53291 5.69438 4.43258 4.72633 4.43258 3.53051V2.5498C3.86609 2.89147 3.53149 3.31538 3.53149 3.79308C3.53149 4.98891 5.63183 6.03288 8.22577 6.03288C9.33445 6.04723 10.4332 5.83135 11.4458 5.40017C10.6894 5.59221 9.90953 5.6869 9.12686 5.68172" fill="#FFD949"/>
<path d="M9.12591 4.30865C6.53197 4.30865 4.43164 3.26151 4.43164 2.06885V3.52408C4.43164 4.71991 6.53197 5.68796 9.12591 5.68796C11.7199 5.68796 13.8202 4.71991 13.8202 3.52408V2.06885C13.8202 3.26151 11.7199 4.30865 9.12591 4.30865Z" fill="#E4AF18"/>
<path d="M4.96875 4.54293C5.08359 4.63951 5.20535 4.72831 5.33316 4.80867V3.37874C5.2051 3.29526 5.08333 3.20329 4.96875 3.10352V4.54293Z" fill="#CE9912"/>
<path d="M12.92 3.37862V4.80855C13.0474 4.72898 13.1681 4.64014 13.2811 4.54281V3.10339C13.1684 3.20392 13.0477 3.29594 12.92 3.37862Z" fill="#CE9912"/>
<path d="M5.69727 5.00784C5.8099 5.06478 5.92916 5.11856 6.05505 5.16918V3.75507C5.93263 3.70555 5.81318 3.64958 5.69727 3.5874V5.00784Z" fill="#CE9912"/>
<path d="M12.1953 5.16918C12.3245 5.11856 12.4438 5.06478 12.5564 5.00784V3.5874C12.4397 3.65021 12.3191 3.7062 12.1953 3.75507V5.16918Z" fill="#CE9912"/>
<path d="M6.41992 5.29915L6.77771 5.40671V4.00842C6.65513 3.97046 6.53587 3.93566 6.41992 3.89453V5.29915Z" fill="#CE9912"/>
<path d="M11.4727 5.40671C11.5985 5.37191 11.7178 5.33711 11.8338 5.29915V3.89453C11.7178 3.93566 11.5985 3.97046 11.4727 4.00842V5.40671Z" fill="#CE9912"/>
<path d="M7.32227 5.52966C7.44153 5.5518 7.56079 5.57395 7.68336 5.58977V4.20413C7.56079 4.18515 7.44153 4.163 7.32227 4.1377V5.52966Z" fill="#CE9912"/>
<path d="M10.5703 5.58977C10.6929 5.57395 10.8121 5.5518 10.9314 5.52966V4.1377C10.8121 4.163 10.6929 4.18515 10.5703 4.20413V5.58977Z" fill="#CE9912"/>
<path d="M8.4043 5.66935C8.52356 5.66935 8.64282 5.66935 8.76539 5.68833V4.30902C8.64282 4.30902 8.52356 4.30902 8.4043 4.29004V5.66935Z" fill="#CE9912"/>
<path d="M9.48828 5.69466C9.61086 5.69466 9.73012 5.69466 9.84938 5.67568V4.29004C9.73012 4.29004 9.61086 4.29004 9.48828 4.30902V5.69466Z" fill="#CE9912"/>
<path d="M13.8202 2.06897C13.8202 3.26479 11.7199 4.30876 9.12591 4.30876C6.53197 4.30876 4.43164 3.26479 4.43164 2.06897C4.43164 0.873141 6.53197 0 9.12591 0C11.7199 0 13.8202 0.873141 13.8202 2.06897Z" fill="#FCC62D"/>
<path d="M9.12773 3.61591C6.65637 3.61591 5.15234 2.69848 5.15234 2.06893C5.15234 1.43938 6.65305 0.515625 9.12773 0.515625C11.6024 0.515625 13.1031 1.43938 13.1031 2.06893C13.1031 2.69848 11.6024 3.61591 9.12773 3.61591Z" fill="#FFD949"/>
<path d="M9.07148 0.755859C9.47776 0.757387 9.88167 0.814924 10.2707 0.926691C10.1775 0.999755 10.093 1.08252 10.019 1.17345L9.99576 1.20192C9.70637 1.12676 9.40783 1.08846 9.10792 1.08803C8.86819 1.08238 8.62872 1.10684 8.39567 1.16079C7.28918 1.38541 7.32231 1.8979 7.32894 1.9675C7.25937 1.8378 6.99766 1.16712 8.14721 0.876074H8.22009C8.29628 0.857093 8.37248 0.844439 8.44536 0.831785H8.49505H8.55137H8.59112H8.62425H8.7137C8.83149 0.800541 8.95092 0.775197 9.07148 0.755859Z" fill="#E4AF18"/>
<path d="M9.93849 1.50904C10.0648 1.50782 10.191 1.51522 10.3162 1.53119L10.6474 1.87285C10.5838 1.92403 10.5163 1.97056 10.4454 2.01205C10.4197 2.02831 10.3918 2.04109 10.3625 2.05001C10.2631 2.01521 10.1671 1.98674 10.0776 1.96143C9.98818 1.93612 9.84573 1.90132 9.74634 1.87918C9.5805 1.84602 9.41208 1.82592 9.24279 1.81907C9.14704 1.72249 9.02185 1.65718 8.88501 1.63242C9.22954 1.55019 9.58336 1.50876 9.93849 1.50904Z" fill="#E4AF18"/>
<path d="M8.64272 1.68311C8.95413 1.68311 9.20259 1.83812 9.19928 2.02477C9.18852 2.09389 9.15622 2.15831 9.10659 2.20966C9.05696 2.26101 8.99229 2.2969 8.921 2.31265C8.82832 2.34352 8.73093 2.35955 8.63278 2.36011C8.56467 2.35854 8.49693 2.35005 8.4307 2.3348C8.21868 2.28734 8.07291 2.1608 8.07623 2.01844C8.07954 1.87608 8.33463 1.68311 8.64272 1.68311Z" fill="#E4AF18"/>
<path d="M9.46519 2.10693L9.7269 2.23031L9.87598 2.30307V2.32206V2.35053C9.87598 2.40431 9.81304 2.45492 9.72028 2.46758H9.67059C9.63321 2.47124 9.59551 2.46453 9.56202 2.44826C9.52853 2.43199 9.50066 2.40684 9.48175 2.37584C9.45856 2.32206 9.48175 2.26828 9.57451 2.24297L9.44531 2.15439C9.44117 2.1522 9.43772 2.14899 9.43531 2.1451C9.43291 2.1412 9.43164 2.13676 9.43164 2.13224C9.43164 2.12772 9.43291 2.12328 9.43531 2.11939C9.43772 2.11549 9.44117 2.11229 9.44531 2.1101L9.46519 2.10693Z" fill="#E4AF18"/>
<path d="M9.07617 2.53076C9.15271 2.60276 9.24409 2.65878 9.34451 2.69527L9.41077 2.72058C9.51228 2.75087 9.61654 2.77205 9.72217 2.78385L9.65592 2.81548L9.46377 2.79334L9.36108 2.77436H9.33789C9.26669 2.75782 9.19775 2.7334 9.13249 2.70159C9.11591 2.69528 9.10169 2.68438 9.09165 2.67028C9.08162 2.65619 9.07622 2.63955 9.07617 2.6225V2.53076Z" fill="#E4AF18"/>
<path d="M9.15995 1.21167C9.42304 1.21179 9.68491 1.24584 9.93846 1.3129C9.99164 1.35236 10.0405 1.39688 10.0842 1.44577H9.97159C9.53921 1.43692 9.10797 1.49133 8.69284 1.60711H8.64646C8.26217 1.60711 7.94745 1.7906 7.94414 2.02154C7.94604 2.08729 7.96642 2.15135 8.00314 2.207C8.03985 2.26266 8.09156 2.30787 8.15285 2.3379C8.21241 2.37107 8.27577 2.39761 8.34168 2.41698C8.33021 2.48076 8.309 2.54258 8.27873 2.60047C8.23057 2.69732 8.1604 2.7827 8.07334 2.85039C7.89348 2.98716 7.68237 3.08146 7.45715 3.12562C7.574 3.05583 7.67168 2.96038 7.74206 2.84723C7.79736 2.76795 7.83043 2.67646 7.83813 2.58149C7.84219 2.51532 7.82956 2.44918 7.80132 2.38863C7.77307 2.32808 7.73003 2.27488 7.6758 2.2335C7.65485 2.22407 7.6358 2.21123 7.61948 2.19554V2.17972C7.56389 2.11322 7.53353 2.0307 7.53335 1.94561C7.53438 1.89992 7.5445 1.85483 7.56316 1.81275L7.58304 1.77478C7.65385 1.66614 7.75173 1.57593 7.86794 1.51221C7.979 1.44895 8.09669 1.39699 8.2191 1.35719C8.41167 1.29811 8.61059 1.25991 8.8121 1.24331H8.85185C8.94461 1.21483 9.05725 1.21167 9.15995 1.21167Z" fill="#E4AF18"/>
<path d="M9.79677 1.99316L10.0883 2.06909L10.138 2.08807L10.244 2.11971H10.2771C10.3228 2.19447 10.3458 2.27993 10.3434 2.36646C10.3434 2.78089 9.77689 3.11306 9.09114 3.1099C8.77427 3.11445 8.46269 3.0321 8.19336 2.87263C8.25387 2.82155 8.30831 2.76426 8.35569 2.7018C8.5674 2.85587 8.82843 2.93523 9.09445 2.92641C9.28828 2.92811 9.48026 2.89037 9.65763 2.81569L9.72388 2.78405C9.81023 2.74712 9.88482 2.68904 9.94009 2.6157C9.99536 2.54237 10.0293 2.45638 10.0386 2.36646C10.0328 2.29024 10.0077 2.2165 9.9656 2.15151C9.9235 2.08651 9.86558 2.03219 9.79677 1.99316Z" fill="#E4AF18"/>
<path d="M4.00521 0C3.21305 0 2.43869 0.224317 1.78003 0.644585C1.12138 1.06485 0.608025 1.6622 0.30488 2.36107C0.00173538 3.05995 -0.077581 3.82898 0.0769607 4.57091C0.231502 5.31284 0.612961 5.99434 1.1731 6.52924C1.73324 7.06414 2.4469 7.42841 3.22383 7.57599C4.00076 7.72357 4.80608 7.64782 5.53793 7.35834C6.26979 7.06885 6.89532 6.57863 7.33542 5.94965C7.77551 5.32068 8.01041 4.5812 8.01041 3.82474C8.01041 2.81036 7.58844 1.83752 6.83732 1.12024C6.08619 0.402962 5.06745 0 4.00521 0ZM4.00521 6.7099C3.40765 6.7099 2.82351 6.54069 2.32667 6.22366C1.82982 5.90664 1.44257 5.45604 1.21389 4.92884C0.985219 4.40165 0.925387 3.82154 1.04196 3.26187C1.15854 2.7022 1.44629 2.18812 1.86883 1.78462C2.29136 1.38112 2.82971 1.10634 3.41578 0.995014C4.00186 0.883689 4.60934 0.940825 5.16141 1.1592C5.71348 1.37757 6.18534 1.74737 6.51732 2.22183C6.84931 2.69629 7.0265 3.25411 7.0265 3.82474C7.0265 4.20362 6.94836 4.5788 6.79652 4.92884C6.64469 5.27889 6.42214 5.59695 6.14159 5.86486C5.86103 6.13277 5.52797 6.34529 5.16141 6.49028C4.79485 6.63527 4.40197 6.7099 4.00521 6.7099Z" fill="#26A6FE"/>
<path d="M4.0048 0.487305C3.31355 0.487305 2.63782 0.683049 2.06306 1.04978C1.48831 1.41652 1.04034 1.93777 0.775811 2.54763C0.51128 3.15749 0.442067 3.82856 0.576923 4.47598C0.71178 5.1234 1.04465 5.7181 1.53344 6.18486C2.02223 6.65163 2.64498 6.9695 3.32295 7.09828C4.00092 7.22706 4.70366 7.16096 5.34229 6.90835C5.98092 6.65574 6.52677 6.22796 6.91081 5.6791C7.29485 5.13024 7.49983 4.48496 7.49983 3.82486C7.49983 2.93968 7.1316 2.09076 6.47616 1.46485C5.82071 0.838939 4.93174 0.487305 4.0048 0.487305ZM4.0048 6.71002C3.40724 6.71002 2.82311 6.54081 2.32626 6.22378C1.82941 5.90676 1.44216 5.45615 1.21348 4.92896C0.984809 4.40177 0.924977 3.82166 1.04155 3.26199C1.15813 2.70232 1.44588 2.18824 1.86842 1.78474C2.29095 1.38124 2.8293 1.10646 3.41537 0.995131C4.00145 0.883806 4.60893 0.940942 5.161 1.15931C5.71307 1.37768 6.18493 1.74748 6.51692 2.22195C6.8489 2.69641 7.0261 3.25422 7.0261 3.82486C7.0261 4.20374 6.94795 4.57892 6.79611 4.92896C6.64428 5.279 6.42173 5.59706 6.14118 5.86497C5.86063 6.13289 5.52756 6.34541 5.161 6.4904C4.79444 6.63539 4.40156 6.71002 4.0048 6.71002Z" fill="#0593FC"/>
<path d="M4.00763 6.70978C5.67624 6.70978 7.02892 5.41805 7.02892 3.82462C7.02892 2.23118 5.67624 0.939453 4.00763 0.939453C2.33901 0.939453 0.986328 2.23118 0.986328 3.82462C0.986328 5.41805 2.33901 6.70978 4.00763 6.70978Z" fill="white"/>
<path d="M4.00515 4.15373C3.95965 4.15484 3.9144 4.14698 3.87222 4.13065C3.83005 4.11433 3.79184 4.08987 3.76 4.05882L2.80259 3.14455C2.73758 3.08247 2.70105 2.99826 2.70105 2.91045C2.70105 2.82264 2.73758 2.73844 2.80259 2.67635C2.86761 2.61426 2.95579 2.57938 3.04774 2.57938C3.13969 2.57938 3.22787 2.61426 3.29289 2.67635L4.00515 3.35651L5.33028 2.09109C5.39586 2.03003 5.48383 1.99585 5.57543 1.99585C5.66702 1.99585 5.755 2.03003 5.82058 2.09109C5.85474 2.12074 5.88203 2.15688 5.90071 2.1972C5.91939 2.23751 5.92904 2.28111 5.92904 2.32519C5.92904 2.36928 5.91939 2.41287 5.90071 2.45319C5.88203 2.4935 5.85474 2.52964 5.82058 2.5593L4.26355 4.04933C4.19791 4.11027 4.10995 4.14433 4.0184 4.14424L4.00515 4.15373Z" fill="#0593FC"/>
<path d="M4.00584 4.31854C3.90269 4.31917 3.80168 4.29049 3.71564 4.23616C3.6296 4.18182 3.56242 4.10428 3.52265 4.0134C3.48287 3.92252 3.47229 3.82239 3.49226 3.72575C3.51222 3.62911 3.56182 3.54032 3.63476 3.47067C3.7077 3.40102 3.80068 3.35365 3.90188 3.33459C4.00308 3.31552 4.10793 3.32562 4.2031 3.36361C4.29827 3.40159 4.37947 3.46574 4.43637 3.5479C4.49326 3.63006 4.52329 3.72653 4.52264 3.82503C4.52264 3.88984 4.50927 3.95401 4.4833 4.01389C4.45733 4.07376 4.41926 4.12817 4.37127 4.17399C4.32328 4.21982 4.26631 4.25617 4.20361 4.28098C4.14091 4.30578 4.07371 4.31854 4.00584 4.31854Z" fill="#26A6FE"/>
<path d="M4.00521 2.23669C3.97476 2.23669 3.9446 2.23097 3.91647 2.21984C3.88833 2.20871 3.86277 2.1924 3.84124 2.17183C3.8197 2.15127 3.80262 2.12686 3.79097 2.09999C3.77931 2.07312 3.77332 2.04433 3.77332 2.01525V1.4806C3.77332 1.42187 3.79775 1.36555 3.84124 1.32402C3.88473 1.28249 3.94371 1.25916 4.00521 1.25916C4.06672 1.25916 4.1257 1.28249 4.16919 1.32402C4.21268 1.36555 4.23711 1.42187 4.23711 1.4806V2.01525C4.23625 2.07372 4.21155 2.12957 4.16824 2.17093C4.12494 2.21228 4.06645 2.23588 4.00521 2.23669Z" fill="#F7CB15"/>
<path d="M4.00521 6.27332C3.94371 6.27332 3.88473 6.24998 3.84124 6.20845C3.79775 6.16692 3.77332 6.1106 3.77332 6.05187V5.51723C3.77332 5.45849 3.79775 5.40217 3.84124 5.36064C3.88473 5.31911 3.94371 5.29578 4.00521 5.29578C4.06672 5.29578 4.1257 5.31911 4.16919 5.36064C4.21268 5.40217 4.23711 5.45849 4.23711 5.51723V6.05187C4.23625 6.11034 4.21155 6.1662 4.16824 6.20755C4.12494 6.2489 4.06645 6.2725 4.00521 6.27332Z" fill="#F7CB15"/>
<path d="M5.60938 3.76795C5.60938 3.70922 5.63381 3.65289 5.6773 3.61136C5.72079 3.56983 5.77977 3.5465 5.84127 3.5465H6.39783C6.43038 3.54277 6.4634 3.54567 6.49469 3.55501C6.52599 3.56435 6.55485 3.57993 6.57938 3.6007C6.60391 3.62148 6.62354 3.64699 6.63699 3.67555C6.65044 3.7041 6.65739 3.73506 6.65739 3.76637C6.65739 3.79768 6.65044 3.82864 6.63699 3.85719C6.62354 3.88575 6.60391 3.91126 6.57938 3.93204C6.55485 3.95281 6.52599 3.96839 6.49469 3.97773C6.4634 3.98707 6.43038 3.98997 6.39783 3.98624H5.84127C5.81098 3.98666 5.7809 3.98132 5.75278 3.97054C5.72466 3.95976 5.69907 3.94374 5.67749 3.92343C5.65591 3.90312 5.63878 3.87892 5.62709 3.85222C5.61539 3.82553 5.60937 3.79689 5.60938 3.76795Z" fill="#F7CB15"/>
<path d="M1.38088 3.76795C1.38044 3.73902 1.38603 3.7103 1.39732 3.68345C1.40861 3.6566 1.42538 3.63216 1.44665 3.61155C1.46792 3.59095 1.49327 3.57458 1.52122 3.56342C1.54917 3.55225 1.57917 3.5465 1.60947 3.5465H2.16934C2.20189 3.54277 2.2349 3.54567 2.2662 3.55501C2.29749 3.56435 2.32636 3.57993 2.35089 3.6007C2.37542 3.62148 2.39505 3.64699 2.4085 3.67555C2.42195 3.7041 2.4289 3.73506 2.4289 3.76637C2.4289 3.79768 2.42195 3.82864 2.4085 3.85719C2.39505 3.88575 2.37542 3.91126 2.35089 3.93204C2.32636 3.95281 2.29749 3.96839 2.2662 3.97773C2.2349 3.98707 2.20189 3.98997 2.16934 3.98624H1.60947C1.57945 3.98624 1.54973 3.98059 1.52199 3.96962C1.49426 3.95865 1.46906 3.94257 1.44783 3.9223C1.42661 3.90203 1.40977 3.87797 1.39828 3.85149C1.3868 3.825 1.38088 3.79662 1.38088 3.76795Z" fill="#F7CB15"/>
</g>
<defs>
<clipPath id="clip0_1_2349">
<rect width="14" height="10" fill="white"/>
</clipPath>
</defs>
</svg>
