<svg width="25" height="25" viewBox="0 0 25 25" fill="none" xmlns="http://www.w3.org/2000/svg">
<path d="M13.6369 12.2032L18.0097 7.84062C18.2012 7.64913 18.3088 7.38942 18.3088 7.11861C18.3088 6.8478 18.2012 6.58809 18.0097 6.3966C17.8182 6.20511 17.5585 6.09753 17.2877 6.09753C17.0169 6.09753 16.7572 6.20511 16.5657 6.3966L12.2031 10.7693L7.84053 6.3966C7.64904 6.20511 7.38932 6.09753 7.11852 6.09753C6.84771 6.09753 6.58799 6.20511 6.39651 6.3966C6.20502 6.58809 6.09744 6.8478 6.09744 7.11861C6.09744 7.38942 6.20502 7.64913 6.39651 7.84062L10.7692 12.2032L6.39651 16.5658C6.30119 16.6603 6.22554 16.7728 6.17391 16.8967C6.12228 17.0206 6.0957 17.1535 6.0957 17.2878C6.0957 17.422 6.12228 17.5549 6.17391 17.6789C6.22554 17.8028 6.30119 17.9152 6.39651 18.0098C6.49104 18.1051 6.60351 18.1807 6.72743 18.2324C6.85135 18.284 6.98427 18.3106 7.11852 18.3106C7.25276 18.3106 7.38568 18.284 7.5096 18.2324C7.63352 18.1807 7.74599 18.1051 7.84053 18.0098L12.2031 13.637L16.5657 18.0098C16.6602 18.1051 16.7727 18.1807 16.8966 18.2324C17.0205 18.284 17.1534 18.3106 17.2877 18.3106C17.4219 18.3106 17.5548 18.284 17.6788 18.2324C17.8027 18.1807 17.9151 18.1051 18.0097 18.0098C18.105 17.9152 18.1807 17.8028 18.2323 17.6789C18.2839 17.5549 18.3105 17.422 18.3105 17.2878C18.3105 17.1535 18.2839 17.0206 18.2323 16.8967C18.1807 16.7728 18.105 16.6603 18.0097 16.5658L13.6369 12.2032Z" fill="#001D3D"/>
</svg>
