<svg width="82" height="82" viewBox="0 0 82 82" fill="none" xmlns="http://www.w3.org/2000/svg">
<circle cx="41" cy="41" r="41" fill="#003566"/>
<g clip-path="url(#clip0_430_1071)">
<path d="M61.542 41.6885V42.8192C61.542 49.1558 50.8992 54.2713 37.7736 54.2713C30.5252 54.2856 24.0276 52.6964 19.6777 50.2533C21.148 55.9793 31.137 60.684 43.2558 60.684C56.3814 60.6792 67.0004 55.1348 67.0004 48.8068C67.0004 46.0203 64.9373 43.5581 61.5191 41.6875" fill="#FCC62D"/>
<path d="M43.2547 60.6799C30.1244 60.6799 19.4863 55.1355 19.4863 48.8027V56.5136C19.4863 62.8454 30.1292 67.9657 43.2547 67.9657C56.3803 67.9657 66.9993 62.8549 66.9993 56.5136V48.8075C66.9993 55.1393 56.3565 60.6847 43.2357 60.6847" fill="#E4AF18"/>
<path d="M22.2266 61.9106C22.7985 62.4346 23.4094 62.913 24.0556 63.3419V55.7499C23.4085 55.3077 22.7975 54.817 22.2266 54.2806V61.9106ZM62.4493 55.7499V63.3229C63.0964 62.8949 63.7073 62.4165 64.2783 61.8916V54.2568C63.7073 54.7932 63.0964 55.2849 62.4493 55.7262M25.8846 64.387C26.4641 64.6857 27.0731 64.971 27.7136 65.241V57.7547C27.0741 57.4732 26.4622 57.1726 25.8846 56.8626V64.388V64.387ZM58.797 65.241C59.4412 64.9738 60.0484 64.6876 60.626 64.387V56.8617C60.0274 57.1822 59.4174 57.4798 58.797 57.7537V65.2401V65.241ZM29.5426 65.9334C30.1297 66.134 30.7406 66.3195 31.3668 66.4964V59.0861C30.7416 58.8997 30.1297 58.7 29.5426 58.485V65.9334ZM55.1399 66.4916C55.7699 66.3195 56.377 66.1293 56.9689 65.9286V58.485C56.377 58.7 55.7661 58.9006 55.1399 59.0861V66.4916ZM34.1169 67.1545C34.7088 67.2734 35.3198 67.3837 35.9412 67.4788V60.1255C35.3207 60.0209 34.7088 59.9059 34.1169 59.7775V67.1545ZM50.5703 67.4883C51.1908 67.3884 51.8026 67.2829 52.3993 67.164V59.7775C51.8007 59.9078 51.1917 60.0238 50.5703 60.1255V67.4883ZM39.5982 67.8991C40.1996 67.9419 40.8106 67.9752 41.4272 67.999V60.6838C40.8172 60.661 40.2073 60.6258 39.5982 60.5792V67.8991ZM45.0843 67.999C45.7 67.999 46.3118 67.9467 46.9133 67.8991V60.5792C46.3118 60.6267 45.7009 60.66 45.0843 60.6838V67.999Z" fill="#CE9912"/>
<path d="M37.7684 46.9703C24.6428 46.9703 14 41.4258 14 35.094V42.8096C14 49.1462 24.6428 54.2617 37.7684 54.2617C50.894 54.2617 61.5368 49.1272 61.5368 42.8096V35.094C61.5416 41.4258 50.8987 46.9712 37.7684 46.9712" fill="#E4AF18"/>
<path d="M16.7402 48.2064C17.3122 48.7304 17.9231 49.2087 18.5692 49.6376V42.0362C17.9231 41.5978 17.3112 41.1089 16.7402 40.5764V48.2064ZM56.9725 42.0362V49.6139C57.6158 49.184 58.2257 48.7047 58.7967 48.1826V40.5479C58.2295 41.0918 57.6196 41.5892 56.9725 42.0362ZM20.403 50.6781C20.9759 50.9738 21.5915 51.2553 22.2272 51.5273V44.0409C21.5877 43.7594 20.9759 43.4637 20.403 43.1536V50.679V50.6781ZM53.3107 51.5273C53.9501 51.2648 54.5858 50.9786 55.1397 50.6781V43.1527C54.5639 43.4713 53.954 43.767 53.3107 44.04V51.5264V51.5273ZM24.0562 52.2196C24.6434 52.4203 25.2591 52.6105 25.8805 52.7874V45.3723C25.2553 45.1859 24.6434 44.991 24.0562 44.7761V52.2196ZM49.6536 52.7874C50.2836 52.6153 50.8907 52.4203 51.4826 52.2196V44.7761C50.8907 44.991 50.2798 45.1869 49.6536 45.3723V52.7874ZM28.6306 53.4407C29.2273 53.5596 29.8335 53.6747 30.4549 53.765V46.4166C29.8344 46.3119 29.2273 46.1969 28.6306 46.0685V53.4407ZM45.084 53.765C45.7044 53.6699 46.3163 53.5596 46.913 53.4455V46.0685C46.3144 46.1988 45.7054 46.3148 45.084 46.4166V53.765ZM34.1167 54.1854C34.7133 54.2329 35.3243 54.2615 35.9409 54.2852V46.97C35.3252 46.97 34.7133 46.9177 34.1167 46.8702V54.1854ZM39.5979 54.2852C40.2136 54.2852 40.8255 54.2377 41.4269 54.1854V46.8702C40.8255 46.913 40.2146 46.951 39.5979 46.97V54.2852Z" fill="#CE9912"/>
<path d="M60.9163 45.4248C58.4621 50.5022 49.0364 54.2863 37.7684 54.2863C33.8592 54.3177 29.9633 53.8355 26.1797 52.855C29.4979 55.0832 35.3998 56.9919 43.2544 56.9919C55.7596 56.9919 63.3658 52.1389 63.3658 48.8037C63.3658 47.6872 62.5112 46.5042 60.9163 45.4209M42.3428 45.149C29.2125 45.149 18.5744 40.0144 18.5744 33.6969V28.5195C15.6996 30.3169 14 32.5747 14 35.1034C14 41.4305 24.6428 46.9711 37.7684 46.9711C44.0804 46.9711 49.8101 45.6872 54.1076 43.6311C50.2764 44.6497 46.3262 45.1537 42.3618 45.1299" fill="#FFD949"/>
<path d="M42.3435 37.8376C29.2131 37.8376 18.5703 32.2931 18.5703 25.9746V33.6759C18.5703 40.0125 29.2131 45.128 42.3387 45.128C55.4643 45.128 66.1071 39.9935 66.1071 33.6759V25.9746C66.1071 32.3112 55.4643 37.8566 42.3387 37.8566" fill="#E4AF18"/>
<path d="M21.3105 39.0682C21.8825 39.5922 22.4934 40.0706 23.1395 40.4995V32.9028C22.4934 32.4624 21.8815 31.9727 21.3105 31.4382V39.0682ZM61.5428 32.9028V40.4757C62.1861 40.0458 62.7961 39.5665 63.367 39.0444V31.4097C62.7989 31.9451 62.1889 32.4349 61.5428 32.8742M24.9828 41.5446C25.5557 41.8404 26.1714 42.1219 26.8071 42.3939V34.9075C26.1676 34.626 25.5557 34.3302 24.9828 34.0202V41.5456V41.5446ZM57.881 42.3891C58.5252 42.1219 59.1371 41.8404 59.71 41.5399V34.0193C59.1342 34.3378 58.5243 34.6336 57.881 34.9065V42.3882V42.3891ZM28.6313 43.0815C29.2184 43.2821 29.8341 43.4723 30.4555 43.6492V36.2342C29.8303 36.0478 29.2184 35.8528 28.6313 35.6379V43.0815ZM54.2239 43.6302C54.8539 43.4581 55.461 43.2631 56.0529 43.0624V35.6379C55.461 35.8528 54.8501 36.0487 54.2239 36.2342V43.6302ZM33.2009 44.3026C33.7976 44.4214 34.4038 44.5365 35.0252 44.6269V37.2831C34.4047 37.1785 33.7976 37.0634 33.2009 36.9351V44.3026ZM49.6543 44.6316C50.2747 44.5365 50.8866 44.4262 51.4833 44.3121V36.9493C50.8847 37.0796 50.2757 37.1956 49.6543 37.2974V44.6316ZM38.687 45.0615C39.2836 45.109 39.8946 45.1376 40.5112 45.1613V37.8366C39.8955 37.8366 39.2836 37.7843 38.687 37.7368V45.0615ZM44.1683 45.1471C44.7839 45.1471 45.3958 45.0995 45.9972 45.0472V37.732C45.3958 37.7748 44.7849 37.8128 44.1683 37.8319V45.1471Z" fill="#CE9912"/>
<path d="M66.1119 25.9747C66.1119 32.3066 55.469 37.8519 42.3435 37.8519C29.2179 37.8519 18.5703 32.298 18.5703 25.9747C18.5703 19.6514 29.2131 15 42.3435 15C55.4738 15 66.1119 19.6286 66.1119 25.9747Z" fill="#FCC62D"/>
<path d="M42.3427 34.1583C29.8328 34.1583 22.2266 29.3148 22.2266 25.9748C22.2266 22.6348 29.8328 17.739 42.3427 17.739C54.8526 17.739 62.4493 22.6348 62.4493 25.9748C62.4493 29.3148 54.8478 34.1583 42.3427 34.1583Z" fill="#FFD949"/>
<path d="M44.8994 24.8338C44.9051 24.8462 44.9108 24.8595 44.9165 24.8728C45.0659 25.2104 45.2068 25.6355 45.3381 26.0359C45.4228 26.2917 45.5027 26.5371 45.5817 26.7444H46.6932C46.6856 26.6426 46.6171 26.4325 46.1879 26.4172L46.1156 26.4144L46.1099 26.3621C46.1099 26.3621 45.9386 25.2275 46.323 24.8271C46.3135 24.8633 46.3068 24.9013 46.304 24.9384C46.3011 24.9736 46.2954 25.0126 46.3078 25.0468C46.3125 25.0601 46.324 25.0687 46.3382 25.0716C46.1765 25.4482 46.244 26.1101 46.2669 26.2974C46.9359 26.3516 46.8569 26.81 46.8569 26.8119L46.8493 26.8671H45.457L45.4409 26.8224C45.3581 26.6103 45.2705 26.3431 45.1782 26.0625C45.0583 25.6992 44.9318 25.315 44.8004 25.0002C44.7833 24.9593 44.7671 24.9203 44.75 24.8823C44.7995 24.868 44.8499 24.8509 44.9004 24.8329L44.8994 24.8338Z" fill="#E4AF18"/>
<path d="M36.0799 24.0282C36.097 24.4 36.294 24.6672 36.5747 24.8204C36.7298 24.906 36.9097 24.9554 37.1 24.9668C37.2865 24.9782 37.4826 24.9526 37.671 24.8888C38.0849 24.7481 38.4589 24.4181 38.6159 23.8827C39.0042 22.5598 40.9217 22.6169 42.2321 22.6559L42.3729 22.6587C42.8021 22.672 43.1123 22.6254 43.3397 22.5455C43.5748 22.4637 43.7242 22.3496 43.8317 22.226L43.6928 22.1594C43.6005 22.265 43.4711 22.3639 43.2693 22.4352C43.0638 22.5065 42.7792 22.5484 42.3786 22.537L42.2378 22.5322C40.8732 22.4932 38.871 22.4333 38.4551 23.857C38.3105 24.3506 37.9726 24.6511 37.6025 24.7776C37.4416 24.8327 37.2732 24.8546 37.1143 24.8441C36.9554 24.8356 36.8022 24.7937 36.6727 24.7224C36.4234 24.5874 36.2512 24.343 36.2436 23.9996C36.3435 23.9673 36.5138 23.8836 36.4634 23.6696C36.4063 23.4319 36.2417 23.0144 36.2398 23.0134L36.0827 23.0115C36.0228 23.2797 35.468 23.8598 36.0799 24.0291V24.0282ZM36.019 23.8712C35.8191 23.7295 36.1218 23.3834 36.1541 23.2388C36.2007 23.4271 36.4567 23.8323 36.157 23.8941C36.1084 23.9045 36.0551 23.8969 36.019 23.8712Z" fill="#E4AF18"/>
<path d="M38.2695 25.5107L38.4989 26.8668H39.8264L39.8283 26.806C39.8378 26.5216 39.4229 26.4836 39.2573 26.4788C39.2126 26.3466 39.126 25.911 39.7988 25.5934C40.0985 25.4517 40.3793 25.1569 40.6124 24.8469C40.6781 24.7594 40.7409 24.6709 40.7989 24.5844C40.8275 24.5416 40.8551 24.4997 40.8817 24.4589C40.8198 24.4589 40.757 24.4608 40.6933 24.4636C40.6857 24.476 40.6781 24.4874 40.6695 24.4997C40.6067 24.5939 40.5391 24.6909 40.4678 24.787C40.246 25.0818 39.9815 25.3604 39.7084 25.4898C38.7929 25.9234 39.1184 26.5587 39.1184 26.5615L39.1403 26.6034L39.2012 26.6015C39.2012 26.6015 39.5818 26.5853 39.6522 26.7422H38.6445L38.4465 25.5687C38.6093 25.4802 39.1621 25.1255 39.0251 24.5102C39.0156 24.4608 38.9956 24.4084 38.9766 24.3523C38.9338 24.2259 38.7044 23.7589 38.7244 23.601L38.5598 23.5906C38.536 23.7694 38.7691 24.2468 38.8177 24.3847C38.8348 24.437 38.8529 24.4874 38.8633 24.5292C39.0042 25.1683 38.3162 25.4878 38.3143 25.4898L38.2714 25.5097L38.2695 25.5107Z" fill="#E4AF18"/>
<path d="M44.9179 24.8727L44.9227 24.9593C44.8818 24.9745 44.8408 24.9878 44.8009 25.0011C43.8968 25.2921 43.2212 25.0924 42.5056 24.8775C42.5027 24.8775 42.5008 24.8765 42.4989 24.8756C42.4494 24.8604 42.4009 24.8461 42.3505 24.8318C41.9717 24.7196 41.5749 24.614 41.1219 24.5893C41.0658 24.5855 41.0096 24.5846 40.9516 24.5836C40.9021 24.5836 40.8517 24.5836 40.7993 24.5855C40.7698 24.5855 40.7403 24.5874 40.7099 24.5893L40.6699 24.5009C40.6775 24.4885 40.6861 24.4771 40.6937 24.4647C40.7575 24.4609 40.8203 24.46 40.8821 24.46C41.5349 24.4581 42.0935 24.6026 42.5893 24.7653C43.2574 24.983 43.9463 25.1247 44.7495 24.8832C44.799 24.8689 44.8494 24.8518 44.8998 24.8337L44.917 24.8727H44.9179Z" fill="#E4AF18"/>
<path d="M43.9343 25.0268C43.8068 25.5689 43.7088 26.5228 43.7088 26.5256L43.7012 26.5922H45.1172L45.1286 26.5399C45.1286 26.538 45.2171 26.1814 44.6813 26.0691C44.7261 25.9617 44.8326 25.7192 45.003 25.3863L44.8973 25.2151C44.6623 25.6726 44.4986 26.0958 44.4986 26.0958L44.4729 26.1614L44.5614 26.1728C44.9069 26.2223 44.963 26.383 44.9678 26.4676H43.881C43.9067 26.2422 43.9905 25.4976 44.097 25.0459L43.9343 25.0259V25.0268Z" fill="#E4AF18"/>
<path d="M42.5455 24.7777C42.518 24.81 42.4846 24.8528 42.4513 24.8994C42.3495 25.0344 42.222 25.2047 42.1183 25.2598C41.3085 25.6982 41.8261 26.4172 41.828 26.4201L41.8518 26.4553L41.9051 26.4533C41.9051 26.4533 42.28 26.4372 42.4047 26.5941H41.4065L40.8688 25.334C41.0116 25.2541 41.3846 24.9973 41.2647 24.5532L41.102 24.576C41.2257 25.0392 40.7289 25.257 40.727 25.257L40.6699 25.2817L41.2837 26.7177H42.6169L42.6017 26.6455C42.537 26.3668 42.1078 26.3335 41.9527 26.3307C41.8699 26.1975 41.6158 25.6849 42.2153 25.3597C42.3467 25.2884 42.4837 25.1058 42.5941 24.9603C42.6274 24.9156 42.6588 24.8747 42.6864 24.8423L42.5455 24.7786V24.7777Z" fill="#E4AF18"/>
<path d="M46.6783 23.372C46.782 23.5679 46.6602 23.779 46.5137 24.0339C46.3548 24.3087 46.1682 24.6311 46.174 25.0543H46.1759C46.1759 25.0619 46.1759 25.0676 46.1778 25.0733L46.3386 25.0534V25.0305C46.3624 25.0049 46.4861 24.9012 46.6441 24.7471C46.8791 24.5189 47.1931 24.2155 47.4149 23.9426C47.6071 23.7029 47.7108 23.4956 47.6661 23.2968C47.6214 23.0962 47.4291 22.9145 47.0323 22.7319L46.9438 22.8365C47.2969 22.9973 47.4653 23.1532 47.5024 23.3168C47.5395 23.4823 47.4453 23.6649 47.2712 23.8789C47.0571 24.1461 46.7459 24.4466 46.5127 24.673C46.4556 24.7281 46.4033 24.7785 46.3557 24.8251C46.4052 24.5332 46.5441 24.2925 46.6659 24.0814C46.8287 23.7999 46.9619 23.5688 46.8325 23.3263L46.6774 23.371L46.6783 23.372Z" fill="#E4AF18"/>
<path d="M47.194 22.4534L47.2254 22.462C47.6117 22.5647 47.8858 22.7682 48.0352 23.0097C48.1846 23.2504 48.2075 23.528 48.0942 23.7791L48.0847 23.7991C47.9496 24.0768 47.5118 24.2698 47.0807 24.4581C46.8181 24.5742 46.5593 24.6892 46.3613 24.8224L46.4727 24.9137C46.6573 24.7872 46.9104 24.6759 47.1645 24.5637C47.6213 24.363 48.0837 24.1586 48.2389 23.839L48.2503 23.8172C48.3778 23.5366 48.3502 23.2266 48.1837 22.9574C48.0171 22.6873 47.7107 22.461 47.2796 22.345L47.2463 22.3364L47.193 22.4524L47.194 22.4534Z" fill="#E4AF18"/>
<path d="M47.2656 22.0538C47.5759 22.0538 47.9032 22.1565 48.1659 22.3239C48.3619 22.4475 48.5208 22.6044 48.6112 22.7785C48.6997 22.9497 48.7225 23.1389 48.6445 23.3291C48.5598 23.5355 48.3581 23.7428 47.9974 23.933L48.0935 24.0329C48.4875 23.8255 48.7092 23.5944 48.8034 23.3634C48.8938 23.1456 48.8681 22.9306 48.7663 22.7328C48.6645 22.5398 48.4875 22.3657 48.2743 22.2307C47.9822 22.0462 47.6158 21.9302 47.2666 21.9302V22.0538H47.2656Z" fill="#E4AF18"/>
<path d="M47.0698 21.643C47.2325 21.5584 47.4714 21.5327 47.7169 21.5603C47.9129 21.5821 48.1108 21.6373 48.2774 21.7257C48.4401 21.8132 48.5733 21.9321 48.6399 22.0814C48.7123 22.2459 48.7084 22.4485 48.579 22.6901L48.7341 22.7338C48.8769 22.4656 48.8816 22.2326 48.7969 22.0424C48.7189 21.8665 48.5638 21.7276 48.3735 21.6259C48.1851 21.526 47.9614 21.4633 47.7416 21.4385C47.4552 21.4062 47.1725 21.4404 46.9746 21.5412L47.0688 21.643H47.0698Z" fill="#E4AF18"/>
<path d="M46.7935 21.4719C46.8069 21.2589 46.9934 21.1048 47.2332 21.0344C47.335 21.004 47.4473 20.9897 47.5567 20.9907C47.6681 20.9935 47.7785 21.0126 47.8784 21.0506C48.1315 21.1467 48.3275 21.3597 48.3275 21.7239H48.4941C48.4941 21.3055 48.2571 21.0563 47.9526 20.9412C47.8289 20.8946 47.6957 20.8718 47.5624 20.869C47.4292 20.8661 47.296 20.8832 47.1723 20.9194C46.8763 21.0069 46.6451 21.198 46.6289 21.4652L46.7935 21.471V21.4719Z" fill="#E4AF18"/>
<path d="M45.8611 21.4338C45.7888 21.3406 45.7393 21.2379 45.7279 21.1409C45.7203 21.0658 45.7355 20.9944 45.7869 20.9393C45.8383 20.8822 45.9239 20.8375 46.0572 20.8128C46.2142 20.7852 46.4321 20.7833 46.7242 20.8242L46.7556 20.7034C46.4378 20.6597 46.197 20.6616 46.0181 20.693C45.8392 20.7262 45.7222 20.789 45.648 20.8698C45.5756 20.9516 45.5519 21.0486 45.5633 21.1504C45.5747 21.2655 45.6337 21.3853 45.7165 21.4947L45.8611 21.4338Z" fill="#E4AF18"/>
<path d="M46.3382 21.5367C46.3068 21.4407 46.2954 21.2971 46.3363 21.1611C46.3658 21.065 46.421 20.9756 46.5105 20.9129C46.6009 20.8501 46.7284 20.8111 46.9063 20.8168C47.0928 20.8225 47.3317 20.8767 47.6381 20.9956L47.7161 20.8881C47.3869 20.7588 47.1242 20.7008 46.912 20.6951C46.6846 20.6875 46.5162 20.7388 46.3963 20.8225C46.2783 20.9053 46.2097 21.0175 46.1745 21.1344C46.1279 21.2895 46.1412 21.4549 46.1764 21.5643L46.3373 21.5367H46.3382Z" fill="#E4AF18"/>
<path d="M45.4997 22.7319C45.1019 22.9145 44.9097 23.0962 44.8659 23.2968C44.8212 23.4956 44.923 23.7039 45.1171 23.9426C45.3332 24.2079 45.6329 24.5075 45.8622 24.7338C46.0231 24.8936 46.1506 25.0039 46.1744 25.0296V25.0524L46.3352 25.0724C46.3371 25.0667 46.339 25.061 46.3371 25.0534H46.339C46.3447 24.6311 46.1649 24.3087 46.0116 24.0358C45.867 23.779 45.749 23.5669 45.8527 23.371L45.6976 23.3263C45.5701 23.5688 45.6995 23.8009 45.8584 24.0843C45.9764 24.2935 46.1097 24.5313 46.1563 24.8204C46.1097 24.7728 46.0545 24.7177 45.9955 24.6596C45.768 24.4361 45.4702 24.1413 45.258 23.8789C45.0857 23.6658 44.9915 23.4823 45.0286 23.3168C45.0657 23.1523 45.2342 22.9973 45.5853 22.8365L45.4987 22.7319H45.4997Z" fill="#E4AF18"/>
<path d="M45.2646 21.9301C44.9172 21.9301 44.5547 22.0461 44.2625 22.2306C44.0465 22.3685 43.8686 22.5454 43.7667 22.7413C43.6649 22.9401 43.6392 23.1598 43.7277 23.3785C43.8219 23.6106 44.0437 23.8436 44.4376 24.049L44.5337 23.9501C44.1731 23.7599 43.9713 23.5507 43.8866 23.3433C43.8105 23.1512 43.8315 22.9582 43.9219 22.7841C44.0142 22.6072 44.175 22.4475 44.371 22.3219C44.6337 22.1565 44.9591 22.0519 45.2655 22.0519V21.9282L45.2646 21.9301Z" fill="#E4AF18"/>
<path d="M45.5539 21.5414C45.3579 21.4396 45.0733 21.4063 44.7888 21.4387C44.569 21.4634 44.3435 21.5262 44.155 21.626C43.9647 21.7278 43.8096 21.8666 43.7316 22.0426C43.6469 22.2328 43.6516 22.4648 43.7944 22.7339L43.9495 22.6902C43.822 22.4496 43.8163 22.2461 43.8905 22.0816C43.9571 21.9322 44.0884 21.8134 44.2531 21.7259C44.4177 21.6374 44.6156 21.5823 44.8116 21.5604C45.0591 21.5328 45.2979 21.5585 45.4587 21.6431L45.553 21.5414H45.5539Z" fill="#E4AF18"/>
<path d="M45.7063 21.0983C45.5807 20.9928 45.4084 20.9195 45.22 20.8882C45.0478 20.8577 44.8594 20.8634 44.6862 20.9081C44.512 20.9528 44.3531 21.0384 44.2351 21.1697C44.1152 21.3047 44.0391 21.4873 44.0391 21.7241H44.2056C44.2056 21.5139 44.2703 21.3542 44.374 21.2372C44.4701 21.1297 44.5996 21.0603 44.7404 21.0222C44.8831 20.9861 45.0383 20.9814 45.1839 21.0061C45.3371 21.0337 45.4798 21.0917 45.5816 21.1792L45.7053 21.0974L45.7063 21.0983Z" fill="#E4AF18"/>
<path d="M45.2751 22.3374L45.2418 22.346C44.8108 22.462 44.5043 22.6883 44.3378 22.9584C44.1713 23.2266 44.1437 23.5376 44.2712 23.8181L44.2826 23.84C44.4377 24.1595 44.9021 24.364 45.357 24.5656C45.612 24.6778 45.8632 24.7891 46.0469 24.9156L46.1582 24.8243C45.9622 24.6912 45.7034 24.5761 45.4426 24.461C45.0115 24.2708 44.5719 24.0759 44.4368 23.7991L44.4273 23.7791C44.3131 23.5281 44.3369 23.2504 44.4882 23.0098C44.6357 22.7692 44.9097 22.5656 45.2961 22.462L45.3275 22.4534L45.2742 22.3374H45.2751Z" fill="#E4AF18"/>
<path d="M46.3347 25.0741H46.1777L46.2624 24.979" fill="#E4AF18"/>
<path d="M46.2443 23.5699C46.2833 23.5718 46.3442 23.5728 46.3794 23.5718C46.4717 23.569 46.6126 23.5519 46.7287 23.4748C46.8048 23.4225 46.8695 23.3445 46.8933 23.2276L46.7306 23.2104C46.7125 23.2951 46.6697 23.3502 46.6164 23.3845C46.5403 23.4349 46.4403 23.4482 46.3728 23.4501C46.3452 23.4501 46.2947 23.4501 46.2567 23.4482V23.4463L46.2386 23.4482L46.2129 23.4463V23.4482C46.1872 23.4501 46.1577 23.4501 46.1349 23.4501C46.0683 23.4473 45.9683 23.4358 45.8941 23.3835C45.8408 23.3483 45.798 23.2951 45.7799 23.2104L45.6172 23.2276C45.641 23.3436 45.7038 23.4225 45.7818 23.4748C45.8932 23.55 46.0349 23.569 46.1272 23.5718C46.1644 23.5737 46.2138 23.5718 46.2433 23.5699H46.2443Z" fill="#E4AF18"/>
<path d="M45.7818 23.2093C45.7447 23.0571 45.543 22.6064 45.4659 22.5036C45.3812 22.3905 45.3032 22.2811 45.2993 22.1242C45.3051 22.0861 45.3717 21.6772 45.6724 21.5612C45.9721 21.4433 46.1996 21.5964 46.2015 21.5964L46.2567 21.6325L46.3119 21.5964C46.3119 21.5964 46.5412 21.4442 46.841 21.5612C47.1407 21.6772 47.2073 22.0871 47.214 22.1242C47.2102 22.284 47.1293 22.3971 47.0475 22.5151C46.9713 22.6206 46.7591 23.0876 46.722 23.2388L46.8847 23.2607C46.9161 23.1285 47.1236 22.671 47.1921 22.5721C47.2863 22.4399 47.3767 22.3125 47.3786 22.1223V22.1166C47.3786 22.1166 47.312 21.6059 46.9199 21.4528C46.6164 21.3348 46.3651 21.4233 46.2567 21.4746C46.1491 21.4242 45.8979 21.3348 45.5934 21.4528C45.2013 21.6049 45.1347 22.1147 45.1347 22.1166L45.1328 22.1223C45.1366 22.3125 45.227 22.4342 45.3212 22.5626C45.3917 22.6587 45.5858 23.0999 45.6191 23.2321L45.7818 23.2102V23.2093Z" fill="#E4AF18"/>
<path d="M37.373 28.9905V30.3209H38.4055V30.8259H36.5527V28.9905H37.373Z" fill="#E4AF18"/>
<path d="M39.4378 28.9849C39.4378 29.1599 39.2713 29.2835 39.0343 29.2835C38.7974 29.2835 38.6309 29.1608 38.6309 28.9849C38.6309 28.809 38.7974 28.6863 39.0343 28.6863C39.2713 28.6863 39.4378 28.809 39.4378 28.9849ZM39.4312 29.3929V30.8251H38.6356V29.3929H39.4312Z" fill="#E4AF18"/>
<path d="M40.7434 30.3488C40.7996 30.3488 40.8605 30.3355 40.9204 30.3146L40.9661 30.8043C40.8462 30.8357 40.7149 30.8538 40.5912 30.8538C40.1706 30.8538 39.7852 30.6626 39.7852 30.2309V28.8823H40.5807V30.2175C40.5807 30.3117 40.6511 30.3488 40.7434 30.3488Z" fill="#E4AF18"/>
<path d="M41.9362 29.3936V30.8258H41.1406V29.3936H41.9362Z" fill="#E4AF18"/>
<path d="M44.5468 29.4538C44.5468 29.6345 44.3841 29.7886 44.13 29.8466C44.4269 29.8961 44.621 30.0796 44.621 30.3098C44.621 30.6236 44.2289 30.8252 43.6237 30.8252H42.3086V28.9897H43.5638C44.1614 28.9897 44.5468 29.1733 44.5468 29.4529V29.4538ZM43.7056 29.5642C43.7056 29.4852 43.6313 29.4358 43.5181 29.4358H43.126V29.6973H43.5181C43.6313 29.6973 43.7056 29.645 43.7056 29.5642ZM43.7693 30.2346C43.7693 30.1538 43.6703 30.1015 43.5181 30.1015H43.126V30.382H43.5181C43.6703 30.382 43.7693 30.324 43.7693 30.2356V30.2346Z" fill="#E4AF18"/>
<path d="M45.6878 28.9847C45.6878 29.1596 45.5213 29.2833 45.2843 29.2833C45.0474 29.2833 44.8809 29.1606 44.8809 28.9847C44.8809 28.8087 45.0474 28.686 45.2843 28.686C45.5213 28.686 45.6878 28.8087 45.6878 28.9847ZM45.6812 29.3926V30.8249H44.8856V29.3926H45.6812Z" fill="#E4AF18"/>
<path d="M48.1041 28.8828V30.8257H47.3086V30.6821C47.1849 30.7896 47.0155 30.8467 46.8175 30.8467C46.2799 30.8467 45.9297 30.5537 45.9297 30.1001C45.9297 29.6465 46.2694 29.3726 46.7957 29.3726C47.0041 29.3726 47.1811 29.4325 47.3086 29.54V28.8828H48.1041ZM47.3086 30.1163C47.3086 29.9489 47.1953 29.8386 47.0221 29.8386C46.8489 29.8386 46.7319 29.9489 46.7319 30.1163C46.7319 30.2837 46.8451 30.394 47.0221 30.394C47.1991 30.394 47.3086 30.2837 47.3086 30.1163Z" fill="#E4AF18"/>
<path d="M40.8809 28.5217L41.587 29.2273L43.2723 27.4194L41.5765 28.6358L40.8809 28.5217Z" fill="#E4AF18"/>
</g>
<defs>
<clipPath id="clip0_430_1071">
<rect width="53" height="53" fill="white" transform="translate(14 15)"/>
</clipPath>
</defs>
</svg>
