<svg version="1.2" xmlns="http://www.w3.org/2000/svg" viewBox="0 0 34 35" width="34" height="35">
	<title>company-svg</title>
	<defs>
		<clipPath clipPathUnits="userSpaceOnUse" id="cp1">
			<path d="m0 0h34v41h-34z"/>
		</clipPath>
	</defs>
	<style>
		.s0 { fill: #001d3d } 
	</style>
	<g id="Clip-Path" clip-path="url(#cp1)">
		<g id="Layer">
			<path id="Layer" fill-rule="evenodd" class="s0" d="m4.1 6.2c0-2.3 2-3.9 4.2-3.4l9.6 2.3c1.6 0.4 2.6 1.8 2.6 3.4v4.6c0 0.4-0.3 0.7-0.6 0.7-0.4 0-0.7-0.3-0.7-0.7v-4.6c0-1-0.7-1.8-1.6-2l-9.6-2.3c-1.3-0.3-2.5 0.6-2.5 2v21.9c0 1.1 0.9 2 2 2h11.7v-11.6c0-0.3 0.3-0.6 0.7-0.6 0.3 0 0.6 0.3 0.6 0.6v12.3c0 0.4-0.3 0.7-0.6 0.7h-12.4c-1.9 0-3.4-1.6-3.4-3.4z"/>
			<path id="Layer" fill-rule="evenodd" class="s0" d="m7.7 9.5c0-0.3 0.3-0.6 0.7-0.6h2.1c0.4 0 0.7 0.3 0.7 0.6 0 0.4-0.3 0.7-0.7 0.7h-2.1c-0.4 0-0.7-0.3-0.7-0.7zm5.8 0c0-0.3 0.3-0.6 0.6-0.6h2.2c0.4 0 0.7 0.3 0.7 0.6 0 0.4-0.3 0.7-0.7 0.7h-2.2c-0.3 0-0.6-0.3-0.6-0.7zm-5.8 5.1c0-0.4 0.3-0.7 0.7-0.7h2.1c0.4 0 0.7 0.3 0.7 0.7 0 0.4-0.3 0.7-0.7 0.7h-2.1c-0.4 0-0.7-0.3-0.7-0.7zm5.8 0c0-0.4 0.3-0.7 0.6-0.7h2.2c0.4 0 0.7 0.3 0.7 0.7 0 0.4-0.3 0.7-0.7 0.7h-2.2c-0.3 0-0.6-0.3-0.6-0.7zm-5.8 5.7c0-0.3 0.3-0.6 0.7-0.6h2.1c0.4 0 0.7 0.3 0.7 0.6 0 0.4-0.3 0.7-0.7 0.7h-2.1c-0.4 0-0.7-0.3-0.7-0.7zm5.8 0c0-0.3 0.3-0.6 0.6-0.6h2.2c0.4 0 0.7 0.3 0.7 0.6 0 0.4-0.3 0.7-0.7 0.7h-2.2c-0.3 0-0.6-0.3-0.6-0.7z"/>
			<path id="Layer" fill-rule="evenodd" class="s0" d="m19.2 18.2c0-2.4 2.4-4 4.6-3.2l3.9 1.5c1.3 0.6 2.2 1.8 2.2 3.2v8.4c0 1.8-1.5 3.4-3.4 3.4h-3.3c-0.4 0-0.7-0.3-0.7-0.7 0-0.4 0.3-0.7 0.7-0.7h3.3c1.1 0 2-0.9 2-2v-8.4c0-0.8-0.5-1.6-1.3-1.9l-3.9-1.5c-1.3-0.5-2.8 0.5-2.8 1.9v12.6c0 0.4-0.3 0.7-0.6 0.7-0.4 0-0.7-0.3-0.7-0.7z"/>
			<path id="Layer" fill-rule="evenodd" class="s0" d="m24.4 5.4c0-0.3-0.3-0.6-0.7-0.6h-1.3c-0.4 0-0.7 0.3-0.7 0.6 0 0.4 0.3 0.7 0.7 0.7h1.3c0.4 0 0.7-0.3 0.7-0.7z"/>
			<path id="Layer" fill-rule="evenodd" class="s0" d="m21 1.4c-0.4-0.1-0.8 0.1-0.9 0.4l-0.3 1.3c-0.1 0.4 0.1 0.7 0.5 0.8 0.3 0.1 0.7-0.1 0.8-0.5l0.3-1.2c0.1-0.4-0.1-0.8-0.4-0.8z"/>
			<path id="Layer" fill-rule="evenodd" class="s0" d="m23 21h3.1c0.3 0 0.6-0.3 0.6-0.7 0-0.3-0.3-0.6-0.6-0.6h-3.1c-0.4 0-0.7 0.3-0.7 0.6 0 0.4 0.3 0.7 0.7 0.7zm0 3.6h3.1c0.3 0 0.6-0.3 0.6-0.7 0-0.3-0.3-0.6-0.6-0.6h-3.1c-0.4 0-0.7 0.3-0.7 0.6 0 0.4 0.3 0.7 0.7 0.7z"/>
			<path id="Layer" fill-rule="evenodd" class="s0" d="m10.9 25.8c-0.4 0-0.7 0.3-0.7 0.7v3.6c0 0.3-0.3 0.7-0.7 0.7-0.3 0-0.7-0.4-0.7-0.7v-3.6c0-1.2 1-2.1 2.1-2.1h2.9c1.1 0 2 0.9 2 2.1v3.6c0 0.3-0.3 0.7-0.7 0.7-0.4 0-0.7-0.4-0.7-0.7v-3.6c0-0.4-0.3-0.7-0.6-0.7z"/>
		</g>
	</g>
</svg>