<svg width="79" height="71" viewBox="0 0 79 71" fill="none" xmlns="http://www.w3.org/2000/svg">
<path d="M43 35.7734C43.4369 35.7734 43.791 35.4193 43.791 34.9824C43.791 34.5456 43.4369 34.1914 43 34.1914C42.5631 34.1914 42.209 34.5456 42.209 34.9824C42.209 35.4193 42.5631 35.7734 43 35.7734Z" fill="black"/>
<path d="M43 52.0156C43.4369 52.0156 43.791 51.6615 43.791 51.2246C43.791 50.7877 43.4369 50.4336 43 50.4336C42.5631 50.4336 42.209 50.7877 42.209 51.2246C42.209 51.6615 42.5631 52.0156 43 52.0156Z" fill="black"/>
<path d="M65.4512 43.5465C65.888 43.5465 66.2422 43.1924 66.2422 42.7555C66.2422 42.3186 65.888 41.9645 65.4512 41.9645C65.0143 41.9645 64.6602 42.3186 64.6602 42.7555C64.6602 43.1924 65.0143 43.5465 65.4512 43.5465Z" fill="black"/>
<path d="M20.5488 43.5465C20.9857 43.5465 21.3398 43.1924 21.3398 42.7555C21.3398 42.3186 20.9857 41.9645 20.5488 41.9645C20.112 41.9645 19.7578 42.3186 19.7578 42.7555C19.7578 43.1924 20.112 43.5465 20.5488 43.5465Z" fill="black"/>
<path d="M55.2148 41.3452C55.6517 41.3452 56.0059 40.9911 56.0059 40.5542C56.0059 40.1173 55.6517 39.7632 55.2148 39.7632C54.778 39.7632 54.4238 40.1173 54.4238 40.5542C54.4238 40.9911 54.778 41.3452 55.2148 41.3452Z" fill="black"/>
<path d="M30.7852 41.3452C31.222 41.3452 31.5762 40.9911 31.5762 40.5542C31.5762 40.1173 31.222 39.7632 30.7852 39.7632C30.3483 39.7632 29.9941 40.1173 29.9941 40.5542C29.9941 40.9911 30.3483 41.3452 30.7852 41.3452Z" fill="black"/>
<path d="M65.7812 58.3965H20.2188C18.9082 58.3965 17.8457 59.4589 17.8457 60.7695C17.8457 62.0801 18.9082 63.1426 20.2188 63.1426H65.7812C67.0918 63.1426 68.1543 62.0801 68.1543 60.7695C68.1543 59.4589 67.0918 58.3965 65.7812 58.3965Z" fill="#FED030"/>
<path d="M65.7812 58.3965H64.1992C64.8286 58.3965 65.4322 58.6465 65.8772 59.0915C66.3222 59.5366 66.5723 60.1402 66.5723 60.7695C66.5723 61.3989 66.3222 62.0025 65.8772 62.4475C65.4322 62.8926 64.8286 63.1426 64.1992 63.1426H65.7812C66.4106 63.1426 67.0142 62.8926 67.4592 62.4475C67.9043 62.0025 68.1543 61.3989 68.1543 60.7695C68.1543 60.1402 67.9043 59.5366 67.4592 59.0915C67.0142 58.6465 66.4106 58.3965 65.7812 58.3965Z" fill="#F8BE32"/>
<path d="M20.7725 58.3965C20.1136 54.7332 19.4537 51.0703 18.7928 47.4077L16.791 38.1992L23.9365 41.2051L23.9154 41.243C23.5998 41.6104 23.3963 42.0606 23.3289 42.5403C23.2615 43.0199 23.3331 43.5088 23.5352 43.9489C23.7374 44.389 24.0615 44.7619 24.4693 45.0234C24.877 45.2848 25.3512 45.4237 25.8355 45.4237C26.3198 45.4237 26.794 45.2848 27.2017 45.0234C27.6094 44.7619 27.9336 44.389 28.1357 43.9489C28.3379 43.5088 28.4095 43.0199 28.3421 42.5403C28.2747 42.0606 28.0711 41.6104 27.7555 41.243L27.7334 41.2051C28.2059 38.484 28.6788 35.7625 29.152 33.0407L33.9561 39.9395C33.8039 40.4024 33.7557 40.8932 33.8147 41.377C34.0257 43.0255 35.4621 43.8798 35.6309 43.9768C36.2589 44.332 36.9743 44.5029 37.6951 44.4697C38.4158 44.4365 39.1125 44.2006 39.7052 43.7891C41.3642 42.6162 41.3009 40.5997 41.2872 40.3814C41.207 38.7487 40.1049 37.2774 38.4786 36.6172L42.9726 24.8574H43.0274L47.5183 36.6172C45.892 37.2774 44.7898 38.7487 44.7096 40.3814C44.6991 40.5997 44.6358 42.6162 46.2917 43.7891C46.8844 44.2004 47.5812 44.4361 48.3019 44.4691C49.0227 44.5022 49.7381 44.3311 50.3659 43.9757C50.5347 43.8787 51.9712 43.0265 52.1821 41.3759C52.2412 40.8922 52.1929 40.4014 52.0408 39.9384L56.8449 33.0397C57.3174 35.7608 57.7902 38.4822 58.2634 41.204L58.2413 41.242C57.9257 41.6094 57.7221 42.0596 57.6547 42.5392C57.5873 43.0188 57.659 43.5077 57.8611 43.9479C58.0632 44.388 58.3874 44.7609 58.7951 45.0223C59.2029 45.2837 59.677 45.4227 60.1613 45.4227C60.6457 45.4227 61.1198 45.2837 61.5276 45.0223C61.9353 44.7609 62.2595 44.388 62.4616 43.9479C62.6637 43.5077 62.7354 43.0188 62.668 42.5392C62.6006 42.0596 62.397 41.6094 62.0814 41.242L62.0603 41.204L69.209 38.1992L67.2051 47.413C66.5448 51.0762 65.885 54.7392 65.2254 58.4018L20.7725 58.3965Z" fill="#FED030"/>
<path d="M39.149 36.9515C38.999 36.6978 38.8242 36.4597 38.6269 36.2407C38.5784 36.3662 38.5309 36.4927 38.4824 36.6182C38.7128 36.7121 38.9357 36.8235 39.149 36.9515ZM56.6853 39.623L56.6631 39.661C56.3934 39.9749 56.2047 40.3501 56.1136 40.7538C56.0226 41.1576 56.0319 41.5775 56.1407 41.9768C56.2496 42.376 56.4547 42.7425 56.7381 43.0442C57.0215 43.3458 57.3746 43.5733 57.7663 43.7068C57.6248 43.2901 57.5943 42.8437 57.6779 42.4117C57.7615 41.9796 57.9563 41.5768 58.243 41.243L58.2652 41.2051C57.792 38.484 57.3198 35.7625 56.8487 33.0407C56.5007 33.5421 56.152 34.0427 55.8025 34.5426L56.6853 39.623ZM45.937 35.0352C44.3106 35.6954 43.2085 37.1667 43.1283 38.7993C43.1178 39.0177 43.0545 41.0342 44.7104 42.207C44.8554 42.3093 45.0077 42.401 45.166 42.4812C44.8439 41.8292 44.6864 41.1083 44.7072 40.3814C44.7873 38.7487 45.8895 37.2774 47.5158 36.6172L43.0281 24.8574H42.9733L42.5113 26.0703L45.937 35.0352Z" fill="#F8BE32"/>
<path d="M67.0896 39.0871C66.6017 41.3371 66.1137 43.5832 65.6257 45.8254L63.9583 55.0793C63.8704 55.5664 63.614 56.0071 63.234 56.3243C62.854 56.6415 62.3745 56.8149 61.8795 56.8142H20.4883L20.773 58.3963H65.2281L67.2078 47.4075L69.2117 38.1937L67.0896 39.0871ZM32.3746 38.3572C32.2225 38.8202 32.1742 39.311 32.2333 39.7947C32.4442 41.4432 33.8807 42.2975 34.0495 42.3946C34.0853 42.4146 34.1212 42.4325 34.1549 42.4515C33.9769 42.1168 33.8607 41.7527 33.8121 41.3768C33.7531 40.893 33.8013 40.4022 33.9535 39.9392L29.1525 33.0405L29.0566 33.5921L32.3746 38.3572ZM21.7455 41.6521C21.8091 42.1181 22.0012 42.5571 22.3004 42.92C22.5996 43.2829 22.994 43.5553 23.4393 43.7066C23.2977 43.2899 23.2673 42.8435 23.3509 42.4115C23.4345 41.9794 23.6292 41.5766 23.916 41.2428L23.9371 41.2049L21.9068 40.3516C21.7398 40.7634 21.6842 41.2119 21.7455 41.6521Z" fill="#F8BE32"/>
<path d="M43 54.5996C44.8931 54.5996 46.4277 53.065 46.4277 51.1719C46.4277 49.2788 44.8931 47.7441 43 47.7441C41.1069 47.7441 39.5723 49.2788 39.5723 51.1719C39.5723 53.065 41.1069 54.5996 43 54.5996Z" fill="#EB304A"/>
<path d="M43 47.7441C42.7336 47.7443 42.4682 47.7754 42.209 47.837C42.9594 48.0152 43.6278 48.4414 44.1061 49.0466C44.5843 49.6518 44.8445 50.4005 44.8445 51.1719C44.8445 51.9432 44.5843 52.692 44.1061 53.2972C43.6278 53.9023 42.9594 54.3285 42.209 54.5068C42.6797 54.6186 43.1688 54.6295 43.6441 54.5388C44.1193 54.448 44.57 54.2577 44.9664 53.9803C45.3629 53.7029 45.6961 53.3447 45.9442 52.9293C46.1922 52.5139 46.3495 52.0507 46.4058 51.5701C46.462 51.0895 46.4158 50.6025 46.2703 50.141C46.1248 49.6796 45.8832 49.2542 45.5615 48.8928C45.2398 48.5314 44.8452 48.2422 44.4037 48.0442C43.9623 47.8462 43.4838 47.744 43 47.7441Z" fill="#E4222E"/>
<path d="M61.0352 52.7539C61.9089 52.7539 62.6172 52.0456 62.6172 51.1719C62.6172 50.2981 61.9089 49.5898 61.0352 49.5898C60.1614 49.5898 59.4531 50.2981 59.4531 51.1719C59.4531 52.0456 60.1614 52.7539 61.0352 52.7539Z" fill="#EB304A"/>
<path d="M61.036 49.5898C60.9214 49.5901 60.8071 49.6028 60.6953 49.6278C61.0464 49.7062 61.3603 49.9018 61.5853 50.1825C61.8102 50.4632 61.9328 50.8122 61.9328 51.1719C61.9328 51.5316 61.8102 51.8806 61.5853 52.1613C61.3603 52.442 61.0464 52.6376 60.6953 52.7159C60.9125 52.7644 61.1375 52.7665 61.3555 52.7221C61.5736 52.6777 61.7798 52.5877 61.9608 52.4582C62.1417 52.3286 62.2933 52.1624 62.4056 51.9703C62.5179 51.7781 62.5884 51.5645 62.6125 51.3433C62.6366 51.122 62.6138 50.8982 62.5455 50.6864C62.4772 50.4746 62.365 50.2796 62.2162 50.1141C62.0674 49.9486 61.8854 49.8164 61.682 49.7261C61.4787 49.6357 61.2585 49.5893 61.036 49.5898Z" fill="#E4222E"/>
<path d="M24.9648 52.7539C25.8386 52.7539 26.5469 52.0456 26.5469 51.1719C26.5469 50.2981 25.8386 49.5898 24.9648 49.5898C24.0911 49.5898 23.3828 50.2981 23.3828 51.1719C23.3828 52.0456 24.0911 52.7539 24.9648 52.7539Z" fill="#EB304A"/>
<path d="M33.5073 54.7355L30.7852 51.1717L33.5073 47.6079L36.2295 51.1717L33.5073 54.7355Z" fill="#1CABE1"/>
<path d="M33.5078 47.6081L32.7168 48.6406L34.1596 50.5285C34.3001 50.7124 34.3761 50.9373 34.3761 51.1687C34.3761 51.4001 34.3001 51.625 34.1596 51.8089L32.7168 53.7031L33.5078 54.7388L36.23 51.1719L33.5078 47.6081Z" fill="#199AD5"/>
<path d="M52.4917 54.7355L49.7695 51.1717L52.4917 47.6079L55.2138 51.1717L52.4917 54.7355Z" fill="#1CABE1"/>
<path d="M52.4922 47.6081L51.7012 48.6406L53.144 50.5285C53.2844 50.7124 53.3605 50.9373 53.3605 51.1687C53.3605 51.4001 53.2844 51.625 53.144 51.8089L51.7012 53.7031L52.4922 54.7388L55.2143 51.1719L52.4922 47.6081Z" fill="#199AD5"/>
<path d="M43 35.7734C43.4369 35.7734 43.791 35.4193 43.791 34.9824C43.791 34.5456 43.4369 34.1914 43 34.1914C42.5631 34.1914 42.209 34.5456 42.209 34.9824C42.209 35.4193 42.5631 35.7734 43 35.7734Z" fill="#EB304A"/>
<path d="M43 52.0156C43.4369 52.0156 43.791 51.6615 43.791 51.2246C43.791 50.7877 43.4369 50.4336 43 50.4336C42.5631 50.4336 42.209 50.7877 42.209 51.2246C42.209 51.6615 42.5631 52.0156 43 52.0156Z" fill="white"/>
<path d="M65.4512 43.5465C65.888 43.5465 66.2422 43.1924 66.2422 42.7555C66.2422 42.3186 65.888 41.9645 65.4512 41.9645C65.0143 41.9645 64.6602 42.3186 64.6602 42.7555C64.6602 43.1924 65.0143 43.5465 65.4512 43.5465Z" fill="#EB304A"/>
<path d="M20.5488 43.5465C20.9857 43.5465 21.3398 43.1924 21.3398 42.7555C21.3398 42.3186 20.9857 41.9645 20.5488 41.9645C20.112 41.9645 19.7578 42.3186 19.7578 42.7555C19.7578 43.1924 20.112 43.5465 20.5488 43.5465Z" fill="#EB304A"/>
<path d="M55.2148 41.3452C55.6517 41.3452 56.0059 40.9911 56.0059 40.5542C56.0059 40.1173 55.6517 39.7632 55.2148 39.7632C54.778 39.7632 54.4238 40.1173 54.4238 40.5542C54.4238 40.9911 54.778 41.3452 55.2148 41.3452Z" fill="#1CABE1"/>
<path d="M30.7852 41.3452C31.222 41.3452 31.5762 40.9911 31.5762 40.5542C31.5762 40.1173 31.222 39.7632 30.7852 39.7632C30.3483 39.7632 29.9941 40.1173 29.9941 40.5542C29.9941 40.9911 30.3483 41.3452 30.7852 41.3452Z" fill="#1CABE1"/>
<path d="M24.9657 49.5898C24.8511 49.5901 24.7368 49.6028 24.625 49.6278C24.9761 49.7062 25.29 49.9018 25.515 50.1825C25.7399 50.4632 25.8625 50.8122 25.8625 51.1719C25.8625 51.5316 25.7399 51.8806 25.515 52.1613C25.29 52.442 24.9761 52.6376 24.625 52.7159C24.8422 52.7644 25.0672 52.7665 25.2852 52.7221C25.5033 52.6777 25.7095 52.5877 25.8905 52.4582C26.0714 52.3286 26.223 52.1624 26.3353 51.9703C26.4476 51.7781 26.5181 51.5645 26.5422 51.3433C26.5663 51.122 26.5435 50.8982 26.4752 50.6864C26.4069 50.4746 26.2947 50.2796 26.1459 50.1141C25.9971 49.9486 25.8151 49.8164 25.6117 49.7261C25.4083 49.6357 25.1882 49.5893 24.9657 49.5898Z" fill="#E4222E"/>
<g clip-path="url(#clip0_409_1067)">
<path d="M76.3394 9.34727C76.0395 9.58462 74.1152 8.08011 73.7467 8.0768C73.3781 8.07352 71.4322 9.54342 71.1358 9.30075C70.8394 9.05807 71.5362 6.56552 71.4252 6.17618C71.3141 5.78684 69.4511 4.19058 69.5678 3.80326C69.6845 3.41595 72.0394 3.37997 72.3393 3.14263C72.6392 2.90531 73.4337 0.448873 73.8022 0.452152C74.1707 0.455458 74.9293 2.92578 75.2257 3.16846C75.5221 3.4111 77.8762 3.48921 77.9873 3.87855C78.0983 4.26788 76.2123 5.83063 76.0955 6.21794C75.9788 6.60525 76.6393 9.10993 76.3394 9.34727Z" fill="url(#paint0_linear_409_1067)"/>
</g>
<g clip-path="url(#clip1_409_1067)">
<path d="M55.1548 13.3473C54.8216 13.5846 52.6836 12.0801 52.2741 12.0768C51.8646 12.0735 49.7025 13.5434 49.3731 13.3007C49.0438 13.0581 49.818 10.5655 49.6947 10.1762C49.5713 9.78684 47.5012 8.19058 47.6308 7.80326C47.7605 7.41595 50.3771 7.37997 50.7103 7.14263C51.0435 6.90531 51.9263 4.44887 52.3358 4.45215C52.7453 4.45546 53.5881 6.92578 53.9175 7.16846C54.2468 7.4111 56.8625 7.48921 56.9859 7.87855C57.1093 8.26788 55.0136 9.83063 54.8839 10.2179C54.7542 10.6053 55.4881 13.1099 55.1548 13.3473Z" fill="url(#paint1_linear_409_1067)"/>
</g>
<g clip-path="url(#clip2_409_1067)">
<path d="M77.1548 28.3473C76.8216 28.5846 74.6836 27.0801 74.2741 27.0768C73.8646 27.0735 71.7025 28.5434 71.3731 28.3007C71.0438 28.0581 71.818 25.5655 71.6947 25.1762C71.5713 24.7868 69.5012 23.1906 69.6308 22.8033C69.7605 22.4159 72.3771 22.38 72.7103 22.1426C73.0435 21.9053 73.9263 19.4489 74.3358 19.4522C74.7453 19.4555 75.5881 21.9258 75.9175 22.1685C76.2468 22.4111 78.8625 22.4892 78.9859 22.8785C79.1093 23.2679 77.0136 24.8306 76.8839 25.2179C76.7542 25.6053 77.4881 28.1099 77.1548 28.3473Z" fill="url(#paint2_linear_409_1067)"/>
</g>
<g clip-path="url(#clip3_409_1067)">
<path d="M33.1548 25.4128C32.8216 25.6264 30.6836 24.2724 30.2741 24.2694C29.8646 24.2665 27.7025 25.5894 27.3731 25.371C27.0438 25.1526 27.818 22.9093 27.6947 22.5589C27.5713 22.2084 25.5012 20.7718 25.6308 20.4232C25.7605 20.0746 28.3771 20.0423 28.7103 19.8287C29.0435 19.6151 29.9263 17.4043 30.3358 17.4072C30.7453 17.4102 31.5881 19.6335 31.9175 19.8519C32.2468 20.0703 34.8625 20.1406 34.9859 20.491C35.1093 20.8414 33.0136 22.2479 32.8839 22.5964C32.7542 22.945 33.4881 25.1992 33.1548 25.4128Z" fill="url(#paint3_linear_409_1067)"/>
</g>
<g clip-path="url(#clip4_409_1067)">
<path d="M16.1548 13.4128C15.8216 13.6264 13.6836 12.2724 13.2741 12.2694C12.8646 12.2665 10.7025 13.5894 10.3731 13.371C10.0438 13.1526 10.818 10.9093 10.6947 10.5589C10.5713 10.2084 8.50117 8.77181 8.63084 8.42323C8.76055 8.07465 11.3771 8.04227 11.7103 7.82866C12.0435 7.61508 12.9263 5.40428 13.3358 5.40723C13.7453 5.41021 14.5881 7.6335 14.9175 7.8519C15.2468 8.07028 17.8625 8.14058 17.9859 8.49098C18.1093 8.84139 16.0136 10.2479 15.8839 10.5964C15.7542 10.945 16.4881 13.1992 16.1548 13.4128Z" fill="url(#paint4_linear_409_1067)"/>
</g>
<path d="M8.03945 36.9744C7.68369 37.2138 5.40093 35.6959 4.96373 35.6926C4.52652 35.6893 2.21807 37.1723 1.86645 36.9274C1.51483 36.6826 2.34147 34.1678 2.20973 33.775C2.078 33.3822 -0.13221 31.7717 0.00623934 31.381C0.144719 30.9902 2.93836 30.9539 3.29413 30.7145C3.6499 30.475 4.59239 27.9967 5.02962 28C5.46679 28.0033 6.36671 30.4957 6.71833 30.7405C7.06994 30.9853 9.86264 31.0641 9.99441 31.4569C10.1261 31.8497 7.88867 33.4264 7.75019 33.8172C7.61174 34.2079 8.39522 36.7349 8.03945 36.9744Z" fill="url(#paint5_linear_409_1067)"/>
<defs>
<linearGradient id="paint0_linear_409_1067" x1="69.5625" y1="4.91241" x2="77.992" y2="4.91241" gradientUnits="userSpaceOnUse">
<stop stop-color="#FCD635"/>
<stop offset="1" stop-color="#F7A928"/>
</linearGradient>
<linearGradient id="paint1_linear_409_1067" x1="47.625" y1="8.91241" x2="56.9911" y2="8.91241" gradientUnits="userSpaceOnUse">
<stop stop-color="#FCD635"/>
<stop offset="1" stop-color="#F7A928"/>
</linearGradient>
<linearGradient id="paint2_linear_409_1067" x1="69.625" y1="23.9124" x2="78.9911" y2="23.9124" gradientUnits="userSpaceOnUse">
<stop stop-color="#FCD635"/>
<stop offset="1" stop-color="#F7A928"/>
</linearGradient>
<linearGradient id="paint3_linear_409_1067" x1="25.625" y1="21.4215" x2="34.9911" y2="21.4215" gradientUnits="userSpaceOnUse">
<stop stop-color="#FCD635"/>
<stop offset="1" stop-color="#F7A928"/>
</linearGradient>
<linearGradient id="paint4_linear_409_1067" x1="8.62501" y1="9.42146" x2="17.9911" y2="9.42146" gradientUnits="userSpaceOnUse">
<stop stop-color="#FCD635"/>
<stop offset="1" stop-color="#F7A928"/>
</linearGradient>
<linearGradient id="paint5_linear_409_1067" x1="1.28e-05" y1="32.5" x2="9.99999" y2="32.5" gradientUnits="userSpaceOnUse">
<stop stop-color="#FCD635"/>
<stop offset="1" stop-color="#F7A928"/>
</linearGradient>
<clipPath id="clip0_409_1067">
<rect width="9" height="10" fill="white" transform="translate(69)"/>
</clipPath>
<clipPath id="clip1_409_1067">
<rect width="10" height="10" fill="white" transform="translate(47 4)"/>
</clipPath>
<clipPath id="clip2_409_1067">
<rect width="10" height="10" fill="white" transform="translate(69 19)"/>
</clipPath>
<clipPath id="clip3_409_1067">
<rect width="10" height="9" fill="white" transform="translate(25 17)"/>
</clipPath>
<clipPath id="clip4_409_1067">
<rect width="10" height="9" fill="white" transform="translate(8 5)"/>
</clipPath>
</defs>
</svg>
