<svg version="1.2" xmlns="http://www.w3.org/2000/svg" viewBox="0 0 172 154" width="172" height="154">
	<title>cup-svg</title>
	<defs>
		<clipPath clipPathUnits="userSpaceOnUse" id="cp1">
			<path d="m35 31h102v91h-102z"/>
		</clipPath>
	</defs>
	<style>
		.s0 { fill: #ffd039 } 
		.s1 { fill: #f4b70c } 
		.s2 { fill: #ffbb64 } 
		.s3 { fill: #ffae47 } 
		.s4 { fill: #ffdf65 } 
		.s5 { fill: #ffcd2c } 
		.s6 { fill: #ffffff } 
	</style>
	<g id="Clip-Path" clip-path="url(#cp1)">
		<g id="Layer">
			<path id="Layer" class="s0" d="m134.5 47.4c-1.1-1.2-2.5-2.2-4-2.8-1.6-0.7-3.3-1-5.1-1h-10.8q-0.3 0-0.6 0.1-0.3 0.1-0.5 0.3-0.2 0.1-0.3 0.4-0.1 0.2-0.1 0.5v5.8q0 0.3 0.1 0.5 0.1 0.3 0.3 0.5 0.2 0.2 0.5 0.3 0.3 0.1 0.6 0.1h10.8q0.5 0 0.8 0.1 0.4 0.2 0.7 0.5 0.2 0.3 0.3 0.6 0.1 0.3 0 0.7c-0.9 4.1-3.1 7.9-6.2 11.2-2 2-4.6 3.5-7.6 4.4q-0.3 0.1-0.6 0.3-0.3 0.3-0.3 0.6c-0.6 2.3-1.5 4.4-2.7 6.4q-0.3 0.3-0.3 0.7 0 0.3 0.3 0.7 0.2 0.2 0.5 0.4 0.3 0.1 0.7 0.1h0.3c6.5-0.9 12.4-3.7 16.9-7.9 4.2-4.3 7.1-9.4 8.4-14.9 0.4-1.5 0.5-3 0.1-4.5-0.4-1.5-1.1-2.9-2.2-4.1z"/>
			<path id="Layer" class="s1" d="m121.5 65.4v-0.8l-0.5 0.4c-2 2-4.6 3.6-7.6 4.4q-0.3 0.2-0.6 0.4-0.3 0.3-0.3 0.6c-0.6 2.2-1.5 4.3-2.7 6.3q-0.3 0.3-0.3 0.7 0 0.4 0.3 0.7 0.2 0.3 0.5 0.4 0.3 0.2 0.7 0.2h0.3q3.6-0.6 7.1-1.8c2-3.6 3.1-7.5 3.1-11.5z"/>
			<path id="Layer" class="s1" d="m113.1 45v5.7q0 0.3 0.1 0.5 0.1 0.3 0.3 0.5 0.2 0.2 0.5 0.3 0.3 0.1 0.6 0.1h6.9v-8.4h-6.9q-0.3 0-0.6 0.1-0.3 0.1-0.5 0.3-0.2 0.1-0.3 0.4-0.1 0.2-0.1 0.5z"/>
			<path id="Layer" class="s2" d="m97.5 109.5c-0.5-0.3-4.6-3.3-5.1-19.6q0-0.3-0.1-0.6-0.2-0.2-0.4-0.4c-0.4-0.2-0.8-0.3-1.3-0.3q-2.3 0.4-4.6 0.4-2.3 0-4.6-0.4c-0.5 0-0.9 0.1-1.3 0.3q-0.2 0.2-0.4 0.4-0.1 0.3-0.1 0.6c-0.5 16.2-4.6 19.2-5.1 19.6-0.3 0.1-0.6 0.3-0.8 0.5q-0.3 0.4-0.2 0.9 0.1 0.5 0.5 0.8c0.3 0.2 0.7 0.4 1.1 0.4h21.8c0.4 0 0.8-0.2 1.1-0.4q0.4-0.3 0.5-0.8 0.1-0.5-0.2-0.9c-0.2-0.2-0.5-0.4-0.8-0.5z"/>
			<path id="Layer" class="s3" d="m97.5 109.5c-0.5-0.3-4.6-3.3-5.1-19.6q0-0.3-0.1-0.6-0.2-0.2-0.4-0.4c-0.4-0.2-0.8-0.3-1.3-0.3q-2.3 0.4-4.6 0.4h-1.5q0.3 0.2 0.4 0.4 0.1 0.3 0.2 0.6c0.5 16.2 4.5 19.2 5 19.5 0.4 0.1 0.7 0.3 0.8 0.6q0.3 0.4 0.2 0.8c0 0.4-0.2 0.7-0.5 0.9-0.3 0.2-0.7 0.4-1.1 0.4h7.4c0.4-0.1 0.7-0.2 1-0.4q0.5-0.3 0.6-0.8c0.1-0.3 0-0.7-0.2-0.9-0.2-0.3-0.5-0.5-0.8-0.6z"/>
			<path id="Layer" class="s0" d="m37.5 47.4c1.1-1.2 2.5-2.2 4-2.8 1.6-0.7 3.3-1 5.1-1h10.8q0.3 0 0.6 0.1 0.3 0.1 0.5 0.3 0.2 0.2 0.3 0.5 0.1 0.2 0.1 0.5v5.7q0 0.3-0.1 0.5-0.1 0.3-0.3 0.5-0.2 0.2-0.5 0.3-0.3 0.1-0.6 0.1h-10.8q-0.5 0-0.8 0.1-0.4 0.2-0.7 0.5-0.2 0.3-0.3 0.6-0.1 0.3 0 0.7c0.9 4.1 3.1 7.9 6.2 11.2 2 2 4.6 3.5 7.6 4.4q0.3 0.1 0.6 0.3 0.3 0.3 0.3 0.6c0.6 2.3 1.5 4.4 2.7 6.4q0.3 0.3 0.3 0.7 0 0.3-0.3 0.7-0.2 0.2-0.5 0.4-0.3 0.1-0.7 0.1h-0.4c-6.5-0.9-12.4-3.7-16.9-7.9-4.2-4.3-7.1-9.5-8.4-15-0.4-1.5-0.4-3 0-4.5 0.4-1.5 1.1-2.9 2.2-4z"/>
			<path id="Layer" class="s1" d="m50.5 65.4v-0.8l0.5 0.4c2 2 4.6 3.6 7.5 4.4q0.4 0.2 0.7 0.4 0.3 0.3 0.3 0.6c0.6 2.2 1.5 4.3 2.7 6.3q0.3 0.3 0.3 0.7 0 0.4-0.3 0.7-0.2 0.3-0.5 0.4-0.3 0.2-0.7 0.2h-0.4q-3.6-0.6-7.1-1.8c-2-3.6-3-7.6-3-11.5z"/>
			<path id="Layer" class="s1" d="m58.9 45v5.7q0 0.3-0.1 0.5-0.1 0.3-0.3 0.5-0.2 0.2-0.5 0.3-0.3 0.1-0.6 0.1h-6.9v-8.4h6.9c0.4 0 0.8 0.1 1.1 0.4 0.2 0.2 0.4 0.5 0.4 0.9z"/>
			<path id="Layer" class="s4" d="m114.6 38.7h-57.2q-0.3 0-0.6 0.1-0.3 0.1-0.5 0.3-0.2 0.2-0.3 0.4-0.1 0.3-0.1 0.6v25.2c-0.1 3.5 0.5 7 2 10.3 1.5 3.3 3.7 6.3 6.5 8.8 2.8 2.6 6.1 4.6 9.9 6 3.7 1.3 7.7 2 11.7 2 4.1 0 8.1-0.7 11.8-2 3.7-1.4 7.1-3.4 9.9-6 2.8-2.5 5-5.5 6.5-8.8 1.4-3.3 2.1-6.8 2-10.3v-25.2q0-0.3-0.1-0.6-0.2-0.2-0.4-0.4-0.2-0.2-0.5-0.3-0.3-0.1-0.6-0.1z"/>
			<path id="Layer" class="s5" d="m114.6 38.7h-7.1q0.3 0 0.6 0.1 0.3 0.1 0.5 0.3 0.2 0.2 0.3 0.5 0.1 0.2 0.1 0.5v25.2c0 6.4-2.7 12.6-7.6 17.4-4.9 4.8-11.7 7.9-19 8.7q1.8 0.2 3.6 0.2c8 0 15.7-2.8 21.3-7.7 5.7-5 8.8-11.7 8.8-18.6v-25.2q0-0.3-0.1-0.6-0.1-0.2-0.3-0.4-0.2-0.2-0.5-0.3-0.3-0.1-0.6-0.1z"/>
			<path id="Layer" class="s6" d="m99.3 62.3c0.4-0.4 0.8-0.9 0.9-1.4 0.2-0.6 0.1-1.1-0.1-1.7-0.1-0.5-0.5-1-1-1.3-0.5-0.4-1.1-0.6-1.7-0.7l-5.6-0.7q-0.1 0-0.1 0-0.1 0-0.1 0l-2.6-4.5c-0.2-0.5-0.7-0.9-1.2-1.2-0.5-0.3-1.2-0.4-1.8-0.4-0.6 0-1.2 0.1-1.8 0.4-0.5 0.3-1 0.7-1.2 1.2l-2.6 4.5q0 0-0.1 0 0 0-0.1 0l-5.6 0.7c-0.7 0.1-1.2 0.3-1.7 0.7-0.5 0.3-0.9 0.8-1.1 1.3-0.1 0.6-0.2 1.1 0 1.7 0.1 0.5 0.5 1 0.9 1.4l4 3.4q0 0.1 0 0.2 0 0 0 0.1l-1 4.9c-0.1 0.5 0 1.1 0.2 1.6 0.2 0.5 0.6 0.9 1.1 1.3 0.5 0.3 1.1 0.5 1.8 0.5 0.6 0.1 1.2-0.1 1.8-0.3l5-2.3h0.7l5 2.3q0.7 0.3 1.6 0.3c0.7 0 1.4-0.2 2-0.5 0.5-0.3 0.9-0.8 1.1-1.3 0.2-0.5 0.3-1 0.2-1.5l-1-4.9q0-0.2 0-0.3z"/>
			<path id="Layer" class="s6" d="m97.4 57.2l-1.5-0.1-7.3 6.1q-0.3 0.3-0.4 0.6-0.2 0.4-0.1 0.8l1.7 8.7 1.4 0.7q0.7 0.3 1.5 0.3c0.8 0 1.5-0.2 2-0.5 0.5-0.3 0.9-0.8 1.2-1.3 0.2-0.5 0.3-1 0.2-1.5l-1-4.9q0-0.2 0-0.3l4.1-3.5c0.4-0.3 0.8-0.8 0.9-1.4 0.2-0.5 0.1-1.1-0.1-1.6-0.1-0.5-0.4-1-0.9-1.4-0.5-0.3-1.1-0.6-1.7-0.7z"/>
			<path id="Layer" class="s4" d="m115.5 120.2c-0.8-2.9-2.8-5.6-5.5-7.6-2.7-1.9-6-3.1-9.5-3.2h-28.9c-3.5 0.1-6.8 1.3-9.5 3.2-2.7 2-4.6 4.6-5.5 7.6q-0.1 0.3-0.1 0.6 0.1 0.4 0.3 0.6 0.2 0.3 0.6 0.4 0.3 0.2 0.7 0.2h56.1q0.3 0 0.6-0.2 0.4-0.1 0.6-0.4 0.2-0.3 0.2-0.6 0-0.3-0.1-0.6z"/>
			<path id="Layer" class="s5" d="m115.5 120.2c-0.9-2.9-2.8-5.6-5.5-7.6-2.7-1.9-6-3.1-9.5-3.2h-11.8c3.5 0.1 6.9 1.3 9.6 3.2 2.7 2 4.6 4.6 5.5 7.6q0.1 0.3 0 0.6 0 0.3-0.3 0.6-0.2 0.3-0.5 0.4-0.3 0.2-0.7 0.2h11.8q0.3 0 0.6-0.2 0.4-0.1 0.6-0.4 0.2-0.2 0.2-0.6 0.1-0.3 0-0.6z"/>
			<path id="Layer" class="s0" d="m117.1 31h-62.2c-1.5 0.1-2.9 0.7-3.9 1.6-1.1 1-1.6 2.3-1.6 3.6 0 1.3 0.5 2.6 1.6 3.5 1 1 2.4 1.6 3.9 1.7h62.2c1.5-0.1 2.9-0.7 3.9-1.7 1.1-0.9 1.6-2.2 1.6-3.5 0-1.3-0.5-2.6-1.6-3.6-1-0.9-2.4-1.5-3.9-1.6z"/>
			<path id="Layer" class="s1" d="m117.1 31h-6.9q1.2-0.1 2.4 0.3 1.2 0.3 2.1 1.1 0.9 0.7 1.4 1.7 0.5 1 0.5 2.1 0 1.1-0.5 2.1-0.5 1-1.4 1.7-0.9 0.7-2.1 1.1-1.2 0.4-2.4 0.3h6.9c1.5-0.1 2.9-0.7 3.9-1.7 1.1-0.9 1.6-2.2 1.6-3.5 0-1.3-0.5-2.6-1.6-3.6-1-0.9-2.4-1.5-3.9-1.6z"/>
		</g>
	</g>
</svg>