<svg version="1.2" xmlns="http://www.w3.org/2000/svg" viewBox="0 0 38 36" width="38" height="36">
	<title>location-svg</title>
	<style>
		.s0 { fill: #000000 } 
	</style>
	<path id="Layer" fill-rule="evenodd" class="s0" d="m32.2 8c0.6 0.6 0.9 1.4 0.9 2.2v15.1c0 0.8-0.3 1.6-0.9 2.2-0.6 0.6-1.5 0.9-2.3 0.9h-26.8c-0.8 0-1.7-0.3-2.3-0.9-0.6-0.6-0.9-1.4-0.9-2.2v-15.1c0-0.8 0.3-1.6 0.9-2.2 0.6-0.6 1.5-0.9 2.3-0.9h26.8c0.8 0 1.7 0.3 2.3 0.9zm-0.9 1.6l-9.8 8.2 9.8 8.2q0.2-0.3 0.2-0.7v-15.1q0-0.3-0.2-0.6zm-1.4-0.9h-26.8l11.3 9.4c0.6 0.5 1.3 0.7 2.1 0.7 0.8 0 1.5-0.2 2.1-0.7l11.3-9.4zm-18.4 9.1l-9.8-8.3q-0.2 0.4-0.2 0.7v15.1q0 0.4 0.2 0.7zm-8.4 9.1h26.8l-9.7-8.1-0.5 0.5c-0.9 0.7-2.1 1.1-3.2 1.1-1.2 0-2.3-0.4-3.2-1.1l-0.6-0.5-9.6 8.1z"/>
</svg>