<svg width="100" height="102" viewBox="0 0 100 102" fill="none" xmlns="http://www.w3.org/2000/svg">
<g clip-path="url(#clip0_45_3244)">
<path d="M15.9987 20.884C18.0496 23.4751 20.349 25.8979 22.7924 28.1207C27.6382 32.5296 33.2178 36.1019 39.4809 38.1108C41.3491 38.7098 42.1491 35.7742 40.2895 35.1781C34.6692 33.3752 29.6279 30.1682 25.2488 26.2454C23.1031 24.3236 21.1003 22.2404 19.2328 20.0474C17.2483 17.7176 15.2351 15.0325 14.881 11.8958C14.664 9.97304 11.6199 9.95126 11.8394 11.8958C12.2283 15.3404 13.8782 18.2048 15.9987 20.884Z" fill="#001D3D"/>
<path d="M37.4457 53.4534C39.256 52.7623 38.4704 49.8197 36.6371 50.5207C27.4128 54.0445 17.5639 55.4118 7.7288 54.5286C5.77978 54.3534 5.79166 57.396 7.7288 57.5702C17.7934 58.4732 28.0061 57.0603 37.4457 53.4534Z" fill="#001D3D"/>
<path d="M56.8879 62.1033C58.6638 61.2845 57.1202 58.6627 55.3527 59.4765C48.794 62.4983 42.8511 66.8637 38.0151 72.2301C33.1372 77.642 28.4912 84.4173 27.8753 91.8668C27.714 93.8173 30.7565 93.8064 30.9169 91.8668C31.4802 85.0539 36.199 78.638 40.7132 73.7825C45.2903 68.8597 50.7854 64.9142 56.8879 62.1033Z" fill="#001D3D"/>
<path d="M8.10621 52.0118C8.79642 52.0764 9.48839 52.1212 10.1809 52.1574C10.6588 52.1824 11.0891 51.8666 11.213 51.4044L17.6634 27.3298C17.7536 26.9932 17.6646 26.6389 17.4261 26.3848C16.7134 25.6256 16.0085 24.8389 15.3074 24.0279C15.149 23.8447 14.4842 23.5276 14.3115 24.1723C13.0132 29.0211 7.46925 49.7242 7.2481 50.534C6.99755 51.4515 7.66333 51.9682 8.10621 52.0118Z" fill="#001D3D"/>
<path d="M24.4509 51.2921C25.2013 51.156 25.949 51.0053 26.6941 50.8421C27.0651 50.7608 27.3594 50.4765 27.4577 50.1097L30.725 37.9157C30.8437 37.4725 30.6485 37.0115 30.2516 36.7812C29.6641 36.4403 29.0798 36.0826 28.4985 35.71C27.916 35.3367 27.14 35.6254 26.961 36.2937L24.8609 44.1317L23.2796 50.033C23.0859 50.756 23.7143 51.4257 24.4509 51.2921Z" fill="#001D3D"/>
<path d="M92.3047 34.7691C91.1623 33.4483 89.4391 32.7748 87.6928 32.7749L82.2101 32.7751C81.4296 32.7751 80.9418 31.9302 81.3321 31.2542L84.3963 25.9478C85.1986 24.5584 85.452 22.8775 84.9233 21.3627C84.3329 19.6715 82.9841 18.424 81.274 17.9662L37.3064 6.18492C35.5917 5.72282 33.8021 6.13359 32.4467 7.30309C31.2333 8.35013 30.6122 9.93015 30.6122 11.5329L30.6123 17.671C30.6123 18.4486 29.7705 18.9348 29.097 18.546L23.8895 15.5404C22.7769 14.8966 21.5098 14.663 20.2745 14.8516C19.5306 14.9652 19.1743 15.8408 19.6162 16.45C20.1299 17.1583 20.6874 17.8425 21.24 18.4899C21.3789 18.6523 21.797 19.0147 21.8618 19.0523L29.6072 23.5232C30.0033 23.7518 30.1964 24.2179 30.078 24.6597L29.7474 25.8935C29.6406 26.2921 29.7862 26.7221 30.1161 26.9701C30.7208 27.4247 31.3286 27.8575 31.9394 28.269C32.5089 28.6528 33.2886 28.3465 33.4663 27.6832L33.8125 26.3916C33.9569 25.8526 34.5109 25.5328 35.0498 25.6772L49.6053 29.5771C50.1462 29.722 50.4672 30.278 50.3222 30.8188L43.0631 57.9087C42.9645 58.2765 42.6682 58.5581 42.2958 58.6377L25.746 62.1766C25.0078 62.3345 24.3635 61.6564 24.5589 60.9271C24.7474 60.2238 24.1541 59.5689 23.4335 59.6731C22.7185 59.7765 22.0021 59.8692 21.2841 59.9495C20.8731 59.9955 20.5328 60.2839 20.4257 60.6833L20.3816 60.848C20.2097 61.4897 19.4758 61.7937 18.9005 61.4615L17.1497 60.4505C16.985 60.3554 16.7969 60.3099 16.6069 60.3181C15.6312 60.36 14.6549 60.3813 13.6786 60.3813C12.6503 60.3813 11.6236 60.3265 10.5959 60.2999C9.93909 60.2999 10.1041 61.0658 10.3711 61.22L17.6699 65.4345C18.1531 65.7135 18.3187 66.3314 18.0397 66.8146L13.8603 74.0523C13.058 75.4417 12.8047 77.1225 13.3333 78.6373C13.9236 80.3286 15.2724 81.5761 16.9826 82.0339L26.964 84.7081C27.4371 83.4972 28.0129 82.2576 28.702 80.9764L18.0321 78.117C17.5093 77.9764 17.2816 77.5952 17.1925 77.3804C17.1033 77.1655 16.9944 76.7348 17.2657 76.2665L21.9058 68.2299C22.1345 67.8339 22.6006 67.6408 23.0423 67.7592L35.617 71.1288C36.6345 69.9724 37.6966 68.8556 38.8058 67.7853L31.6042 65.855C31.1927 65.7448 31.2078 65.1558 31.6244 65.0667C31.6244 65.0667 43.7639 62.4694 44.0983 62.4002C44.4327 62.331 44.3983 62.3633 44.8036 62.3725C45.2088 62.3816 45.6335 62.1521 45.8764 61.9835C48.5396 60.1345 51.3564 58.5145 54.2916 57.1657C56.0781 56.3447 58.2574 56.7974 59.3992 58.3981C60.936 60.5525 60.0816 63.4401 57.8016 64.4793C57.1734 64.7654 56.5534 65.0704 55.9381 65.3852L64.951 67.8001C65.4919 67.945 65.8129 68.501 65.6679 69.0418L64.4452 73.605C64.3003 74.1459 63.7444 74.4669 63.2035 74.322L48.2388 70.313C46.9528 71.3189 45.7144 72.3873 44.5359 73.519L62.8372 78.4216C63.2805 78.5404 63.5888 78.942 63.5888 79.401V88.6784C63.5888 89.22 63.2789 89.5378 63.0947 89.6794C62.9095 89.821 62.5175 90.0359 61.9996 89.8983L36.7971 83.1448C36.0062 84.4487 35.361 85.6675 34.8551 86.823L60.9501 93.8151C61.4105 93.9389 61.8769 93.9993 62.3392 93.9993C63.6841 93.9993 64.9939 93.4851 66.0177 92.5086C67.1071 91.4693 67.6445 89.9749 67.6444 88.4693L67.6442 80.1091C67.6442 79.5492 68.0982 79.0952 68.6581 79.0952H78.6245C81.2423 79.0952 83.5443 77.3289 84.2225 74.8001L93.5275 40.0712C94.0283 38.2033 93.5828 36.2467 92.3047 34.7691ZM65.9446 29.7573L55.5511 26.9722L53.863 26.5197L51.6342 25.9226L35.4167 21.5777C34.975 21.4594 34.6678 21.0591 34.6678 20.6018V11.3216C34.6678 10.78 34.9767 10.4612 35.1619 10.3206C35.345 10.179 35.7351 9.96414 36.2569 10.1018L80.2245 21.883C80.7473 22.0236 80.975 22.4048 81.0641 22.6197C81.1532 22.8345 81.2621 23.2652 80.9908 23.7335L76.3521 31.7678C76.1226 32.1652 75.6549 32.3589 75.2116 32.2402L65.9446 29.7573ZM89.6107 39.0207L80.3057 73.7496C80.1017 74.5091 79.4106 75.0398 78.6245 75.0398H69.5801C68.9135 75.0398 68.4283 74.4074 68.6008 73.7635L69.8472 69.112L78.2956 37.5821C78.4144 37.1388 78.8161 36.8306 79.275 36.8306H87.9305C88.476 36.8306 88.979 37.0791 89.3107 37.5118C89.6424 37.9445 89.7513 38.494 89.6107 39.0207Z" fill="#001D3D"/>
</g>
<defs>
<clipPath id="clip0_45_3244">
<rect width="100" height="102" fill="white"/>
</clipPath>
</defs>
</svg>
