<svg width="19" height="19" viewBox="0 0 19 19" fill="none" xmlns="http://www.w3.org/2000/svg">
<path d="M18.62 9.71076C18.62 8.92966 18.5566 8.35966 18.4194 7.76855H9.5V11.2941H14.7355C14.63 12.1702 14.06 13.4896 12.7933 14.3763L12.7755 14.4943L15.5957 16.679L15.7911 16.6985C17.5855 15.0413 18.62 12.603 18.62 9.71076Z" fill="#4285F4"/>
<path d="M9.50035 19C12.0653 19 14.2186 18.1555 15.7914 16.6989L12.7937 14.3766C11.9914 14.9361 10.9148 15.3266 9.50035 15.3266C6.98815 15.3266 4.85594 13.6695 4.09587 11.3789L3.98446 11.3884L1.05202 13.6578L1.01367 13.7644C2.57588 16.8677 5.78477 19 9.50035 19Z" fill="#34A853"/>
<path d="M4.09551 11.379C3.89496 10.7879 3.77889 10.1546 3.77889 9.50014C3.77889 8.84566 3.89496 8.21235 4.08496 7.62125L4.07964 7.49536L1.11045 5.18945L1.01331 5.23566C0.369448 6.52345 0 7.96959 0 9.50014C0 11.0307 0.369448 12.4768 1.01331 13.7645L4.09551 11.379Z" fill="#FBBC05"/>
<path d="M9.50035 3.6733C11.2842 3.6733 12.4875 4.44385 13.1737 5.08779L15.8548 2.47C14.2081 0.939447 12.0653 0 9.50035 0C5.78477 0 2.57588 2.1322 1.01367 5.23551L4.08532 7.62109C4.85594 5.33054 6.98815 3.6733 9.50035 3.6733Z" fill="#EB4335"/>
</svg>
