<svg width="34" height="36" viewBox="0 0 34 36" fill="none" xmlns="http://www.w3.org/2000/svg">
<g clip-path="url(#clip0_200_1266)">
<path d="M16.9999 6.68799C13.5287 6.68799 10.7046 9.54435 10.7046 13.0552C10.7046 16.566 13.5287 19.4218 16.9999 19.4218C20.4711 19.4218 23.2952 16.566 23.2952 13.0552C23.2952 9.54435 20.4711 6.68799 16.9999 6.68799ZM16.9999 18.3472C14.1147 18.3472 11.7671 15.9733 11.7671 13.0552C11.7671 10.137 14.1142 7.76262 16.9999 7.76262C19.8857 7.76262 22.2327 10.1365 22.2327 13.0552C22.2327 15.9738 19.8857 18.3472 16.9999 18.3472Z" fill="black"/>
<path d="M17 1.07458C10.4688 1.07458 5.15527 6.44879 5.15527 13.0545C5.15527 19.4985 16.1293 32.5714 16.5963 33.1248C16.6972 33.2446 16.8449 33.3134 17.0006 33.3134C17.1562 33.3134 17.3034 33.2446 17.4048 33.1248C17.8718 32.5714 28.8458 19.4985 28.8458 13.0545C28.8458 6.44879 23.5323 1.07458 17.0011 1.07458H17ZM17 31.9379C14.994 29.4845 6.21777 18.4416 6.21777 13.0545C6.21777 7.04145 11.0548 2.14921 17 2.14921C22.9452 2.14921 27.7823 7.04145 27.7823 13.0545C27.7823 18.44 19.006 29.484 17 31.9379Z" fill="black"/>
</g>
<defs>
<clipPath id="clip0_200_1266">
<rect width="34" height="36" fill="white"/>
</clipPath>
</defs>
</svg>
