<svg width="14" height="14" viewBox="0 0 14 14" fill="none" xmlns="http://www.w3.org/2000/svg">
<g clip-path="url(#clip0_1_2415)">
<path d="M13.9564 6.19079C13.928 6.12075 13.8852 6.0574 13.8309 6.00476L12.0999 4.2526C11.9897 4.14401 11.8413 4.08313 11.6866 4.08313C11.5319 4.08313 11.3834 4.14401 11.2733 4.2526C11.219 4.30684 11.1759 4.37125 11.1465 4.44214C11.1171 4.51303 11.102 4.58902 11.102 4.66576C11.102 4.7425 11.1171 4.81849 11.1465 4.88939C11.1759 4.96028 11.219 5.02469 11.2733 5.07893L12.0263 5.83171H8.75025C8.5953 5.83171 8.4467 5.89324 8.33713 6.00277C8.22757 6.11231 8.16602 6.26086 8.16602 6.41576C8.16602 6.57066 8.22757 6.71922 8.33713 6.82875C8.4467 6.93828 8.5953 6.99982 8.75025 6.99982H12.009L11.2516 7.7526C11.1707 7.83426 11.1157 7.93798 11.0935 8.05075C11.0713 8.16352 11.0828 8.28035 11.1267 8.38658C11.1706 8.49282 11.2449 8.58374 11.3403 8.64797C11.4356 8.7122 11.5478 8.74688 11.6628 8.74765C11.7426 8.7501 11.822 8.73642 11.8964 8.70742C11.9707 8.67843 12.0385 8.63473 12.0955 8.57893L13.8266 6.8484C13.8819 6.79493 13.9248 6.72994 13.9521 6.65804C13.9857 6.58486 14.0035 6.5054 14.0043 6.42488C14.005 6.34435 13.9887 6.26458 13.9564 6.19079Z" fill="#3D3A3A"/>
<path d="M9.91902 8.16396C9.76407 8.16396 9.61547 8.22549 9.5059 8.33502C9.39633 8.44455 9.33478 8.59311 9.33478 8.74801V11.6813H7.00217V2.33207C7.00086 2.20457 6.95785 2.081 6.87971 1.98023C6.80157 1.87946 6.69259 1.80702 6.5694 1.77397L4.55704 1.16828H9.31747V4.08423C9.31747 4.16093 9.33258 4.23688 9.36194 4.30774C9.3913 4.3786 9.43434 4.44298 9.48859 4.49722C9.54284 4.55145 9.60725 4.59447 9.67813 4.62383C9.74901 4.65318 9.82498 4.66828 9.9017 4.66828C9.97843 4.66828 10.0544 4.65318 10.1253 4.62383C10.1962 4.59447 10.2606 4.55145 10.3148 4.49722C10.3691 4.44298 10.4121 4.3786 10.4415 4.30774C10.4708 4.23688 10.4859 4.16093 10.4859 4.08423V0.58423C10.486 0.432281 10.4268 0.286288 10.321 0.177241C10.2151 0.0681934 10.0709 0.00467741 9.91902 0.000175246H0.58424C0.564095 -0.00184878 0.543797 -0.00184878 0.523652 0.000175246C0.491968 0.00289086 0.461108 0.0117053 0.432771 0.0261332C0.376895 0.0412383 0.324144 0.0661406 0.276975 0.0996808H0.233699C0.162821 0.156288 0.106449 0.228956 0.0692475 0.311671C0.0692475 0.311671 0.0605921 0.346281 0.0519368 0.363587C0.0300995 0.406406 0.0126984 0.451345 4.82449e-06 0.497703C4.82449e-06 0.497703 4.82449e-06 0.532314 4.82449e-06 0.549619C4.82449e-06 0.566924 4.82449e-06 0.571251 4.82449e-06 0.58423V12.2653C-0.00054431 12.4 0.0457999 12.5306 0.131084 12.6348C0.216368 12.739 0.335273 12.8103 0.467393 12.8364L6.30541 14.0045C6.34279 14.009 6.38056 14.009 6.41793 14.0045C6.57367 14.0022 6.72226 13.9388 6.83159 13.8279C6.94091 13.717 7.00219 13.5675 7.00217 13.4118V12.8321H9.91902C10.074 12.8321 10.2226 12.7705 10.3321 12.661C10.4417 12.5515 10.5033 12.4029 10.5033 12.248V8.74801C10.5021 8.59346 10.4402 8.44556 10.3309 8.33627C10.2216 8.22699 10.0736 8.16509 9.91902 8.16396Z" fill="#BABABA"/>
</g>
<defs>
<clipPath id="clip0_1_2415">
<rect width="14" height="14" fill="white"/>
</clipPath>
</defs>
</svg>
