<svg width="17" height="18" viewBox="0 0 17 18" fill="none" xmlns="http://www.w3.org/2000/svg">
<path d="M16.6011 15.7796L12.1811 11.3596C12.5211 10.9196 12.7811 10.4396 13.0011 9.93965C13.3411 9.11965 13.5211 8.23965 13.5211 7.33965C13.5211 6.43965 13.3411 5.55965 13.0011 4.73965C12.6611 3.93965 12.1811 3.21965 11.5611 2.59965C10.9411 1.97965 10.2211 1.49965 9.42109 1.15965C8.60109 0.819648 7.72109 0.639648 6.82109 0.639648C5.92109 0.639648 5.04109 0.819648 4.22109 1.15965C3.42109 1.49965 2.70109 1.97965 2.08109 2.59965C1.46109 3.21965 0.981094 3.93965 0.641094 4.73965C0.301094 5.55965 0.121094 6.43965 0.121094 7.33965C0.121094 8.23965 0.301094 9.11965 0.641094 9.93965C0.981094 10.7396 1.46109 11.4596 2.08109 12.0796C2.70109 12.6996 3.42109 13.1796 4.22109 13.5196C5.04109 13.8596 5.92109 14.0396 6.82109 14.0396C7.72109 14.0396 8.60109 13.8596 9.42109 13.5196C9.94109 13.2996 10.4011 13.0196 10.8411 12.6996L15.2611 17.1196C15.4411 17.2996 15.6811 17.3996 15.9211 17.3996C16.1611 17.3996 16.4011 17.2996 16.5811 17.1196C16.9611 16.7396 16.9611 16.1396 16.6011 15.7796ZM6.84109 12.5396C3.96109 12.5396 1.62109 10.1996 1.62109 7.31965C1.62109 4.43965 3.96109 2.09965 6.84109 2.09965C9.72109 2.09965 12.0611 4.43965 12.0611 7.31965C12.0611 8.57965 11.6211 9.71965 10.8811 10.6196C10.6611 10.8796 10.4211 11.1396 10.1411 11.3596C9.24109 12.0996 8.08109 12.5396 6.84109 12.5396Z" fill="black" fill-opacity="0.34"/>
</svg>
