<svg version="1.2" xmlns="http://www.w3.org/2000/svg" viewBox="0 0 34 36" width="34" height="36">
	<title>location-svg</title>
	<style>
		.s0 { fill: #000000 } 
	</style>
	<path id="Layer" fill-rule="evenodd" class="s0" d="m24.5 6.1q2.9 1.7 4.5 4.5 1.7 3 1.7 6.4h-1.9q0-2.9-1.4-5.4-1.5-2.4-3.8-3.8-2.5-1.4-5.4-1.4v-2q3.4 0 6.3 1.7zm-14.8 1.7l3.9 4.1q0.7 0.5 0.7 1.5 0 0.9-0.6 1.5l-1.9 2q1 2.3 2.6 3.9 1.7 1.6 4 2.7l1.9-1.9q0.6-0.6 1.5-0.6 0.9 0 1.5 0.6l4 3.9q0.6 0.6 0.6 1.6 0 0.8-0.6 1.4l-3.1 3.1q-0.7 0.6-1.6 0.8-0.8 0.1-1.7-0.2-6.6-2.5-11-7-2.7-2.7-4.7-6.1-1.4-2.4-2.3-4.8-0.3-0.9-0.1-1.8 0.3-0.9 1-1.6l-0.1 0.1 3.1-3.2q0.6-0.5 1.4-0.5 0.8 0 1.5 0.5zm3.9 4.1l0.1 0.1-0.1-0.1q0 0 0 0zm9-2.4q1.9 1.1 3.1 3.1 1.2 2 1.2 4.4h-1.9q0-1.9-1-3.4-0.9-1.6-2.4-2.5-1.6-0.9-3.4-0.9v-1.9q2.4 0 4.4 1.2zm-14.6-0.2l-3 3.1q-0.2 0.2-0.3 0.6-0.1 0.3 0 0.6 0.8 2.2 2.2 4.5 1.8 3.3 4.4 5.8 4.1 4.1 10.2 6.5 0.8 0.3 1.5-0.3l3-3q0 0 0 0 0-0.1 0-0.1l-4.1-4.1q-0.1-0.1-0.1-0.1 0 0-0.1 0.1l-2.9 2.9-0.6-0.3q-0.7-0.2-1.7-0.8-2-1.1-3.4-2.5-1-1-1.9-2.3-0.6-1-1.1-2l-0.4-0.9-0.2-0.6 2.8-2.8q0.1-0.1 0.1-0.2l-4-4.1q-0.1-0.1-0.2-0.1-0.1 0-0.2 0.1zm12.6 3.5q1.1 0.6 1.8 1.7 0.6 1.2 0.6 2.5h-1.9q0-1.2-0.8-2.1-0.9-0.8-2.1-0.8v-2q1.3 0 2.4 0.7z"/>
</svg>