<svg width="166" height="166" viewBox="0 0 166 166" fill="none" xmlns="http://www.w3.org/2000/svg">
<path fill-rule="evenodd" clip-rule="evenodd" d="M73.5607 112.578L49.5997 154.078C49.322 154.557 48.9022 154.938 48.3985 155.167C47.8947 155.397 47.3319 155.464 46.7882 155.36C46.2444 155.255 45.7467 154.984 45.3639 154.584C44.9812 154.184 44.7324 153.675 44.6521 153.127L41.799 133.703L23.5519 140.939C23.0331 141.145 22.4627 141.183 21.9212 141.047C21.3797 140.912 20.8946 140.609 20.5344 140.182C20.1743 139.756 19.9573 139.227 19.9142 138.67C19.8711 138.114 20.004 137.558 20.2942 137.081L44.0646 95.8947C44.2689 95.54 44.5522 95.2372 44.8925 95.0097C45.2328 94.7821 45.621 94.6361 46.0268 94.5828C46.4327 94.5294 46.8454 94.5704 47.2329 94.7023C47.6204 94.8342 47.9723 95.0537 48.2613 95.3436C51.4921 98.6069 55.1647 101.401 59.1719 103.644C63.1552 105.876 67.4339 107.536 71.8813 108.572C72.2946 108.667 72.6793 108.859 73.0036 109.133C73.3278 109.406 73.5823 109.753 73.7459 110.144C73.9095 110.536 73.9776 110.961 73.9445 111.383C73.9114 111.806 73.7781 112.215 73.5555 112.576M121.907 96.1347L145.753 137.438C146.028 137.917 146.147 138.469 146.094 139.019C146.041 139.569 145.818 140.089 145.457 140.506C145.095 140.924 144.613 141.219 144.076 141.35C143.54 141.481 142.976 141.442 142.462 141.239L124.215 134.002L121.362 153.427C121.28 153.987 121.022 154.507 120.626 154.911C120.229 155.315 119.715 155.582 119.156 155.675C118.597 155.768 118.024 155.681 117.518 155.426C117.012 155.172 116.601 154.763 116.342 154.259L92.25 112.545C92.0409 112.184 91.9196 111.778 91.8959 111.361C91.8721 110.944 91.9465 110.527 92.1132 110.144C92.2798 109.761 92.534 109.422 92.8553 109.155C93.1766 108.888 93.556 108.7 93.9632 108.607C98.4173 107.587 102.705 105.942 106.698 103.721C110.711 101.49 114.39 98.7051 117.627 95.4499C117.925 95.1491 118.291 94.9236 118.693 94.792C119.096 94.6604 119.524 94.6265 119.942 94.6932C120.36 94.7599 120.757 94.9251 121.098 95.1753C121.44 95.4255 121.717 95.7535 121.907 96.1321V96.1347Z" fill="#003566"/>
<path fill-rule="evenodd" clip-rule="evenodd" d="M82.9994 10.2866C93.1909 10.2866 103.153 13.3087 111.627 18.9708C120.101 24.6328 126.706 32.6805 130.606 42.0962C134.506 51.5118 135.526 61.8725 133.538 71.8681C131.55 81.8637 126.642 91.0452 119.436 98.2517C112.229 105.458 103.048 110.366 93.0522 112.354C83.0566 114.342 72.6959 113.322 63.2802 109.422C53.8646 105.522 45.8169 98.917 40.1549 90.4432C34.4928 81.9693 31.4707 72.0068 31.4707 61.8154C31.4705 55.0485 32.8032 48.3478 35.3927 42.096C37.9822 35.8441 41.7778 30.1636 46.5627 25.3787C51.3477 20.5937 57.0282 16.7982 63.28 14.2087C69.5319 11.6192 76.2325 10.2865 82.9994 10.2866Z" fill="#FCB912"/>
<path fill-rule="evenodd" clip-rule="evenodd" d="M82.9993 10.2866C82.3949 10.2866 81.7958 10.3113 81.1953 10.332C94.5428 10.7913 107.19 16.4166 116.47 26.0213C125.75 35.626 130.937 48.4593 130.937 61.8147C130.937 75.1701 125.75 88.0034 116.47 97.6081C107.19 107.213 94.5428 112.838 81.1953 113.297C81.7958 113.318 82.3936 113.343 82.9993 113.343C96.6206 113.274 109.661 107.815 119.268 98.1595C128.876 88.5035 134.269 75.4362 134.269 61.8147C134.269 48.1932 128.876 35.1259 119.268 25.4699C109.661 15.8139 96.6206 10.355 82.9993 10.2866Z" fill="#F2A31E"/>
<path d="M111.522 35.6549C105.47 29.6022 97.5063 25.8353 88.9879 24.9961C80.4696 24.1569 71.9238 26.2973 64.8066 31.0526C57.6895 35.8079 52.4414 42.8839 49.9566 51.0749C47.4718 59.2659 47.904 68.0651 51.1796 75.9732C54.4552 83.8812 60.3714 90.4089 67.9203 94.4438C75.4692 98.4787 84.1837 99.7713 92.5788 98.1014C100.974 96.4314 108.53 91.9022 113.96 85.2854C119.39 78.6687 122.358 70.3738 122.358 61.8142C122.364 56.9551 121.41 52.1426 119.551 47.6533C117.691 43.164 114.963 39.0865 111.522 35.6549ZM85.3632 19.4712C95.1598 19.4711 104.653 22.8678 112.226 29.0826C119.799 35.2974 124.983 43.9458 126.894 53.5542C128.806 63.1625 127.326 73.1364 122.708 81.7762C118.09 90.4161 110.619 97.1874 101.568 100.936C92.5175 104.685 82.4467 105.18 73.0719 102.336C63.6971 99.4926 55.5985 93.4862 50.1558 85.3405C44.7131 77.1949 42.2632 67.4141 43.2235 57.6647C44.1838 47.9153 48.4949 38.8004 55.4223 31.8732C59.3499 27.9355 64.0169 24.8128 69.1552 22.6844C74.2934 20.5561 79.8016 19.4641 85.3632 19.4712Z" fill="#F2A31E"/>
<path d="M88.5841 40.4002L92.5422 52.6609L105.458 52.6362C106.168 52.639 106.859 52.8659 107.433 53.2848C108.007 53.7036 108.434 54.2929 108.653 54.9687C108.871 55.6444 108.871 56.372 108.652 57.0477C108.433 57.7235 108.007 58.3127 107.433 58.7316V58.738L96.9736 66.3066L100.987 78.5789C101.216 79.2778 101.21 80.0322 100.97 80.7273C100.73 81.4223 100.269 82.0199 99.6584 82.4289C99.0474 82.838 98.3194 83.0361 97.5854 82.9931C96.8513 82.9501 96.1515 82.6683 95.5924 82.1907L85.3679 74.7259L74.9332 82.3386C74.3585 82.7573 73.666 82.9832 72.9549 82.9838C72.2439 82.9843 71.5509 82.7596 70.9756 82.3419C70.4002 81.9241 69.972 81.3348 69.7524 80.6585C69.5329 79.9822 69.5332 79.2537 69.7535 78.5776H69.7444L73.7647 66.3053L63.2989 58.7354C62.7039 58.3054 62.2655 57.6928 62.0504 56.9909C61.8352 56.2889 61.8551 55.5359 62.1069 54.8463C62.3586 54.1566 62.8287 53.568 63.4455 53.1698C64.0623 52.7716 64.7922 52.5857 65.5244 52.6401L78.1948 52.6648L82.1594 40.3808C82.3795 39.7007 82.8101 39.1082 83.3889 38.6888C83.9677 38.2694 84.6648 38.0448 85.3796 38.0474C86.0944 38.05 86.7899 38.2797 87.3656 38.7033C87.9414 39.1269 88.3676 39.7225 88.5828 40.4041" fill="#F2A31E"/>
<path d="M109.161 35.655C103.108 29.6022 95.1443 25.8353 86.626 24.9961C78.1076 24.1569 69.5618 26.2973 62.4447 31.0527C55.3275 35.808 50.0794 42.884 47.5946 51.075C45.1098 59.266 45.542 68.0652 48.8176 75.9732C52.0932 83.8813 58.0095 90.4089 65.5584 94.4439C73.1073 98.4788 81.8217 99.7714 90.2168 98.1014C98.6119 96.4314 106.168 91.9022 111.598 85.2855C117.028 78.6687 119.996 70.3739 119.996 61.8143C120.002 56.9551 119.048 52.1427 117.189 47.6534C115.329 43.1641 112.601 39.0866 109.161 35.655ZM83 19.4713C92.7966 19.4711 102.29 22.8679 109.863 29.0827C117.436 35.2975 122.62 43.9459 124.531 53.5542C126.442 63.1626 124.963 73.1364 120.345 81.7763C115.727 90.4162 108.256 97.1875 99.2051 100.937C90.1542 104.686 80.0834 105.18 70.7086 102.336C61.3339 99.4927 53.2352 93.4862 47.7925 85.3406C42.3498 77.195 39.8999 67.4142 40.8602 57.6648C41.8206 47.9153 46.1317 38.8005 53.059 31.8733C56.9866 27.9356 61.6536 24.8128 66.7919 22.6845C71.9301 20.5561 77.4383 19.4641 83 19.4713Z" fill="#FCF8CF"/>
<path d="M86.2208 40.4002L90.1789 52.6609L103.094 52.6362C103.805 52.639 104.496 52.8659 105.07 53.2848C105.644 53.7036 106.07 54.2929 106.289 54.9687C106.508 55.6444 106.508 56.372 106.289 57.0477C106.07 57.7235 105.643 58.3127 105.07 58.7316V58.738L94.6103 66.3066L98.6306 78.5789C98.8592 79.2778 98.853 80.0322 98.6131 80.7273C98.3731 81.4223 97.9126 82.0199 97.3016 82.4289C96.6906 82.838 95.9626 83.0361 95.2286 82.9931C94.4945 82.9501 93.7947 82.6683 93.2356 82.1907L83.0007 74.7259L72.5647 82.3386C71.9901 82.7573 71.2975 82.9832 70.5865 82.9838C69.8754 82.9843 69.1825 82.7596 68.6071 82.3419C68.0317 81.9241 67.6035 81.3348 67.384 80.6585C67.1644 79.9822 67.1648 79.2537 67.385 78.5776H67.3759L71.3962 66.3053L60.9357 58.7354C60.3406 58.3054 59.9023 57.6928 59.6871 56.9909C59.4719 56.2889 59.4918 55.5359 59.7436 54.8463C59.9954 54.1566 60.4654 53.568 61.0822 53.1698C61.699 52.7716 62.4289 52.5857 63.1611 52.6401L75.8316 52.6648L79.7961 40.3808C80.0163 39.7007 80.4468 39.1082 81.0256 38.6888C81.6044 38.2694 82.3016 38.0448 83.0163 38.0474C83.7311 38.05 84.4266 38.2797 85.0023 38.7033C85.5781 39.1269 86.0043 39.7225 86.2195 40.4041" fill="#FCF8CF"/>
</svg>
