<svg width="23" height="23" viewBox="0 0 23 23" fill="none" xmlns="http://www.w3.org/2000/svg">
<rect width="22.2354" height="22.2354" rx="5" fill="white"/>
<path d="M5.55664 6.05659C5.55664 5.68225 5.68184 5.37342 5.93224 5.13011C6.18263 4.88679 6.50816 4.76514 6.9088 4.76514C7.30228 4.76514 7.62064 4.88492 7.86389 5.1245C8.11428 5.37156 8.23949 5.69348 8.23949 6.09028C8.23949 6.44964 8.11787 6.7491 7.87462 6.98868C7.62422 7.23574 7.29513 7.35927 6.88733 7.35927H6.8766C6.48311 7.35927 6.16476 7.23574 5.92151 6.98868C5.67826 6.74162 5.55664 6.43092 5.55664 6.05659ZM6.88733 15.8829C6.22946 15.8829 5.69615 15.3495 5.69615 14.6917V9.57239C5.69615 8.91451 6.22946 8.3812 6.88733 8.3812C7.54521 8.3812 8.07852 8.91451 8.07852 9.57239V14.6917C8.07852 15.3495 7.54521 15.8829 6.88733 15.8829ZM9.40564 14.6878C9.40193 15.3465 9.9347 15.8829 10.5934 15.8829C11.2492 15.8829 11.7808 15.3512 11.7808 14.6954V11.6941C11.7808 11.432 11.8095 11.2299 11.8667 11.0876C11.9669 10.8331 12.1189 10.6178 12.3228 10.4419C12.5267 10.266 12.7824 10.178 13.0901 10.178C13.8914 10.178 14.292 10.7432 14.292 11.8737V14.6917C14.292 15.3495 14.8253 15.8829 15.4832 15.8829C16.141 15.8829 16.6744 15.3495 16.6744 14.6917V11.5818C16.6744 10.4737 16.424 9.63335 15.9232 9.06062C15.4224 8.48789 14.7606 8.20152 13.9379 8.20152C13.015 8.20152 12.296 8.61703 11.7808 9.44805V9.46636C11.7808 9.46866 11.779 9.47051 11.7767 9.47051C11.7736 9.47051 11.7716 9.46733 11.773 9.46458L11.7808 9.44805C11.7808 8.85885 11.3032 8.3812 10.714 8.3812H10.6252C9.95986 8.3812 9.41481 8.94214 9.41792 9.60747C9.41927 9.89602 9.41994 10.2322 9.41994 10.616C9.41994 11.6365 9.41517 12.9938 9.40564 14.6878Z" fill="#013361"/>
</svg>
