<svg width="24" height="23" viewBox="0 0 24 23" fill="none" xmlns="http://www.w3.org/2000/svg">
<rect x="0.175781" width="23.0296" height="22.2354" rx="5" fill="white"/>
<path d="M13.7102 11.5002C13.7102 10.4648 12.9443 9.62509 11.9993 9.62509C11.0543 9.62509 10.288 10.4648 10.288 11.5002C10.288 12.5357 11.0543 13.3754 11.9993 13.3754C12.9443 13.3754 13.7102 12.5357 13.7102 11.5002ZM14.6353 11.5002C14.6353 13.0955 13.4552 14.3886 11.9993 14.3886C10.5434 14.3886 9.36325 13.0955 9.36325 11.5002C9.36325 9.90498 10.5434 8.61187 11.9993 8.61187C13.4552 8.61187 14.6353 9.90498 14.6353 11.5002ZM9.87495 8.49737C9.87495 8.86994 9.5992 9.17255 9.25876 9.17255C8.91873 9.17255 8.64257 8.86994 8.64257 8.49737C8.64257 8.12479 8.91832 7.82264 9.25876 7.82264C9.5992 7.82264 9.87495 8.12479 9.87495 8.49737ZM14.0734 16.0788C14.5739 16.0539 14.8459 15.9625 15.0267 15.8853C15.2664 15.7831 15.4373 15.6613 15.6172 15.4646C15.7968 15.2678 15.9083 15.0806 16.0012 14.818C16.0717 14.6199 16.155 14.3218 16.1778 13.7734C16.2027 13.1805 16.2077 13.0024 16.2077 11.5002C16.2077 9.99812 16.2023 9.82047 16.1778 9.22707C16.155 8.67866 16.0713 8.38105 16.0012 8.18249C15.9079 7.91987 15.7968 7.73268 15.6172 7.53548C15.4377 7.33874 15.2668 7.21652 15.0267 7.11474C14.8459 7.0375 14.5739 6.94618 14.0734 6.92119C13.5323 6.89392 13.3697 6.88847 11.9993 6.88847C10.6284 6.88847 10.4663 6.89438 9.92471 6.92119C9.42421 6.94618 9.1526 7.03796 8.97139 7.11474C8.73172 7.21652 8.56088 7.33874 8.38091 7.53548C8.20136 7.73222 8.09023 7.91987 7.99693 8.18249C7.92644 8.3806 7.84309 8.67866 7.82029 9.22707C7.79541 9.82047 7.79043 9.99812 7.79043 11.5002C7.79043 13.0019 7.79541 13.18 7.82029 13.7734C7.84309 14.3218 7.92686 14.6199 7.99693 14.818C8.09023 15.0806 8.20136 15.2678 8.38091 15.4646C8.56046 15.6613 8.73172 15.7831 8.97139 15.8853C9.15219 15.9625 9.42421 16.0539 9.92471 16.0788C10.4658 16.1061 10.6284 16.1116 11.9993 16.1116C13.3697 16.1116 13.5323 16.1061 14.0734 16.0788ZM14.1157 5.90932C14.6622 5.93658 15.0354 6.03154 15.3618 6.17058C15.6993 6.31416 15.9854 6.50681 16.2711 6.81941C16.5564 7.13201 16.7322 7.44552 16.8633 7.81582C16.9902 8.17341 17.0768 8.58233 17.1017 9.18118C17.127 9.78094 17.1328 9.97268 17.1328 11.5002C17.1328 13.0278 17.127 13.2195 17.1017 13.8193C17.0768 14.4182 16.9902 14.8271 16.8633 15.1847C16.7322 15.5545 16.5568 15.8685 16.2711 16.1811C15.9859 16.4937 15.6997 16.6859 15.3618 16.8299C15.035 16.9689 14.6622 17.0639 14.1157 17.0912C13.5679 17.1184 13.3934 17.1252 11.9993 17.1252C10.6048 17.1252 10.4302 17.1189 9.88283 17.0912C9.3363 17.0639 8.9631 16.9689 8.63676 16.8299C8.29922 16.6859 8.01311 16.4937 7.7274 16.1811C7.44211 15.8685 7.26671 15.5545 7.13526 15.1847C7.00837 14.8271 6.9213 14.4182 6.89683 13.8193C6.87195 13.2191 6.86615 13.0278 6.86615 11.5002C6.86615 9.97268 6.87195 9.78094 6.89683 9.18118C6.92171 8.58233 7.00837 8.17341 7.13526 7.81582C7.26671 7.44597 7.44211 7.13246 7.7274 6.81941C8.01269 6.50681 8.29922 6.31416 8.63635 6.17058C8.9631 6.03154 9.3363 5.93613 9.88241 5.90932C10.4298 5.88206 10.6048 5.87524 11.9989 5.87524C13.3934 5.87524 13.5679 5.88161 14.1157 5.90932Z" fill="#013361"/>
</svg>
