<svg width="24" height="23" viewBox="0 0 24 23" fill="none" xmlns="http://www.w3.org/2000/svg">
<rect x="0.970703" width="23.0296" height="22.2354" rx="5" fill="white"/>
<path d="M14.7881 12.4119C14.6822 12.3589 13.9939 12.0413 13.888 11.9883C13.7822 11.9354 13.6763 11.9354 13.5704 12.0413C13.4645 12.1472 13.2528 12.4648 13.1469 12.5707C13.0939 12.6766 12.988 12.6766 12.8822 12.6236C12.5116 12.4648 12.141 12.253 11.8233 11.9883C11.5586 11.7236 11.2939 11.406 11.0821 11.0883C11.0292 10.9824 11.0821 10.8766 11.1351 10.8236C11.188 10.7707 11.241 10.6648 11.3469 10.6119C11.3998 10.5589 11.4527 10.453 11.4527 10.4001C11.5057 10.3472 11.5057 10.2413 11.4527 10.1883C11.3998 10.1354 11.1351 9.50009 11.0292 9.23538C10.9763 8.86479 10.8704 8.86479 10.7645 8.86479H10.4998C10.3939 8.86479 10.2351 8.97067 10.1821 9.02361C9.86449 9.34126 9.70567 9.71185 9.70567 10.1354C9.75861 10.6119 9.91744 11.0883 10.2351 11.5119C10.8174 12.3589 11.5586 13.0472 12.4586 13.4707C12.7233 13.5766 12.9351 13.6825 13.1998 13.7354C13.4645 13.8413 13.7292 13.8413 14.0469 13.7883C14.4175 13.7354 14.7351 13.4707 14.9469 13.1531C15.0528 12.9413 15.0528 12.7295 14.9998 12.5178L14.7881 12.4119ZM16.1116 7.59419C14.0469 5.52947 10.7116 5.52947 8.64684 7.59419C6.95271 9.28832 6.63506 11.8825 7.79978 13.9472L7.05859 16.6472L9.86449 15.906C10.6586 16.3295 11.5057 16.5413 12.3527 16.5413C15.2645 16.5413 17.594 14.2119 17.594 11.3001C17.6469 9.92362 17.0645 8.60008 16.1116 7.59419ZM14.6822 15.006C13.9939 15.4295 13.1998 15.6942 12.3527 15.6942C11.5586 15.6942 10.8174 15.4825 10.1292 15.1119L9.97038 15.006L8.32919 15.4295L8.75272 13.8413L8.64684 13.6825C7.37624 11.5648 8.01154 8.91773 10.0763 7.59419C12.141 6.27066 14.7881 6.9589 16.0587 8.97067C17.3292 11.0354 16.7469 13.7354 14.6822 15.006Z" fill="#013361"/>
</svg>
