<svg width="14" height="15" viewBox="0 0 14 15" fill="none" xmlns="http://www.w3.org/2000/svg">
<g clip-path="url(#clip0_1_2327)">
<path d="M12.7122 4.53704H12.477C12.1818 1.99074 9.76463 0 6.84008 0C3.91554 0 1.48918 1.99537 1.19857 4.5463C0.863845 4.58006 0.554218 4.73959 0.331783 4.99289C0.109349 5.24618 -0.00944469 5.57452 -0.000773671 5.91204V9.54167C-0.00817877 9.71793 0.0193418 9.89391 0.0801934 10.0594C0.141045 10.2249 0.234018 10.3767 0.353724 10.5059C0.473431 10.635 0.617491 10.7391 0.777558 10.812C0.937625 10.8849 1.11052 10.9252 1.28621 10.9306H2.76694C2.94263 10.9252 3.11552 10.8849 3.27559 10.812C3.43566 10.7391 3.57972 10.635 3.69942 10.5059C3.81913 10.3767 3.9121 10.2249 3.97295 10.0594C4.03381 9.89391 4.06133 9.71793 4.05392 9.54167V5.91204C4.05946 5.73692 4.03055 5.56242 3.96886 5.39852C3.90716 5.23463 3.81389 5.08454 3.69437 4.95684C3.57484 4.82914 3.43141 4.72634 3.27228 4.6543C3.11314 4.58227 2.94142 4.54242 2.76694 4.53704H2.08885C2.38868 2.50926 4.4045 0.925926 6.84008 0.925926C9.27567 0.925926 11.2869 2.5 11.5867 4.52778H11.2407C11.065 4.53313 10.8922 4.57343 10.7321 4.64633C10.572 4.71924 10.428 4.82329 10.3083 4.95248C10.1885 5.08166 10.0956 5.23341 10.0347 5.39891C9.97387 5.56442 9.94635 5.74041 9.95376 5.91667V9.5463C9.94635 9.72256 9.97387 9.89854 10.0347 10.064C10.0956 10.2296 10.1885 10.3813 10.3083 10.5105C10.428 10.6397 10.572 10.7437 10.7321 10.8166C10.8922 10.8895 11.065 10.9298 11.2407 10.9352H11.5314C11.4946 11.4981 11.2686 12.0319 10.8902 12.4491C10.3312 12.9399 9.60748 13.1996 8.86512 13.1759H8.40384C8.4113 12.8246 8.28029 12.4846 8.03929 12.2297C7.7983 11.9748 7.46679 11.8257 7.11685 11.8148H6.0928C5.91711 11.8202 5.74422 11.8605 5.58415 11.9334C5.42408 12.0063 5.28002 12.1103 5.16031 12.2395C5.04061 12.3687 4.94763 12.5204 4.88678 12.686C4.82593 12.8515 4.79841 13.0274 4.80582 13.2037V13.6667C4.79841 13.8429 4.82593 14.0189 4.88678 14.1844C4.94763 14.3499 5.04061 14.5017 5.16031 14.6309C5.28002 14.76 5.42408 14.8641 5.58415 14.937C5.74422 15.0099 5.91711 15.0502 6.0928 15.0556H7.11224C7.38457 15.0484 7.64767 14.9549 7.86391 14.7886C8.08015 14.6223 8.23845 14.3917 8.3162 14.1296H8.962C9.89656 14.1349 10.7983 13.7842 11.4852 13.1481C12.0457 12.55 12.3732 11.7695 12.4078 10.9491H12.6984C12.8741 10.9437 13.047 10.9034 13.2071 10.8305C13.3671 10.7576 13.5112 10.6536 13.6309 10.5244C13.7506 10.3952 13.8436 10.2434 13.9044 10.0779C13.9653 9.91243 13.9928 9.73644 13.9854 9.56018V5.91204C13.9928 5.73578 13.9653 5.55979 13.9044 5.39429C13.8436 5.22878 13.7506 5.07703 13.6309 4.94785C13.5112 4.81866 13.3671 4.71461 13.2071 4.6417C13.047 4.5688 12.8741 4.5285 12.6984 4.52315L12.7122 4.53704Z" fill="#2196F3"/>
</g>
<defs>
<clipPath id="clip0_1_2327">
<rect width="14" height="15" fill="white"/>
</clipPath>
</defs>
</svg>
