<svg width="56" height="56" viewBox="0 0 56 56" fill="none" xmlns="http://www.w3.org/2000/svg">
<path d="M41.9541 29.8971H46.811C47.1673 29.8971 47.4873 29.7299 47.6891 29.4384C47.9362 29.0813 47.9684 28.5857 47.7775 28.0787L47.7376 27.9728L47.6712 27.8813C47.6638 27.8711 46.9247 26.853 46.1655 25.8481C45.7162 25.2534 45.3466 24.7779 45.067 24.4349C44.5493 23.7996 44.2799 23.4942 43.8187 23.4942H41.9541C41.5215 23.4942 41.1272 23.7563 40.8996 24.1952C40.7538 24.4763 40.6768 24.8159 40.6768 25.1775V28.2137C40.6768 28.5753 40.7538 28.915 40.8995 29.1961C41.1272 29.635 41.5214 29.8971 41.9541 29.8971ZM42.3568 28.2137V25.1775C42.3568 25.1764 42.3568 25.1753 42.3568 25.1742H43.4963C43.91 25.6455 44.8979 26.9415 45.836 28.2171H42.3568C42.3568 28.216 42.3568 28.2148 42.3568 28.2137ZM6.93734 21.8785L10.8354 21.8785C11.2993 21.8785 11.6754 21.5024 11.6754 21.0385C11.6754 20.5746 11.2993 20.1985 10.8354 20.1985L6.93734 20.1985C6.47346 20.1985 6.09734 20.5746 6.09734 21.0385C6.09734 21.5024 6.47341 21.8785 6.93734 21.8785ZM11.6754 25.4794C11.6754 25.0155 11.2993 24.6394 10.8354 24.6394L3.17594 24.6394C2.71205 24.6394 2.33594 25.0155 2.33594 25.4794C2.33594 25.9433 2.71201 26.3194 3.17594 26.3194L10.8354 26.3194C11.2993 26.3194 11.6754 25.9433 11.6754 25.4794ZM11.6754 29.9204C11.6754 29.4565 11.2993 29.0804 10.8354 29.0804L6.93734 29.0804C6.47346 29.0804 6.09734 29.4565 6.09734 29.9204C6.09734 30.3843 6.47342 30.7604 6.93734 30.7604L10.8354 30.7604C11.2993 30.7604 11.6754 30.3843 11.6754 29.9204Z" fill="black"/>
<path d="M20.2832 38.0059C20.9347 38.0059 21.4629 37.4777 21.4629 36.8262C21.4629 36.1747 20.9347 35.6465 20.2832 35.6465C19.6317 35.6465 19.1035 36.1747 19.1035 36.8262C19.1035 37.4777 19.6317 38.0059 20.2832 38.0059Z" fill="white"/>
<path d="M44.8262 38.0059C45.4777 38.0059 46.0059 37.4777 46.0059 36.8262C46.0059 36.1747 45.4777 35.6465 44.8262 35.6465C44.1747 35.6465 43.6465 36.1747 43.6465 36.8262C43.6465 37.4777 44.1747 38.0059 44.8262 38.0059Z" fill="white"/>
<path d="M52.8866 34.003C52.4856 33.7171 51.9717 33.5557 51.4342 33.5449V27.9376C51.4342 27.5582 51.2705 27.0737 51.036 26.7594L46.4254 20.5792C46.1408 20.1977 45.5889 19.9312 45.0833 19.9312H39.2753V17.0707C39.2753 16.3441 38.7022 15.7529 37.9979 15.7529H13.855C13.1506 15.7529 12.5776 16.3441 12.5776 17.0707V33.5449C12.04 33.5557 11.5262 33.7171 11.1252 34.003C10.631 34.3552 10.3477 34.8701 10.3477 35.4156V35.7942C10.3477 36.3397 10.6311 36.8546 11.1252 37.2069C11.5405 37.5029 12.0766 37.6659 12.6349 37.6659H16.9683C17.3437 39.1472 18.688 40.2464 20.2843 40.2464C21.8806 40.2464 23.2249 39.1472 23.6003 37.6659H41.5111C41.8865 39.1472 43.2308 40.2464 44.8272 40.2464C46.4235 40.2464 47.7678 39.1472 48.1432 37.6659H51.3768C51.9352 37.6659 52.4713 37.5029 52.8866 37.2069C53.3807 36.8546 53.6641 36.3397 53.6641 35.7942V35.4156C53.6641 34.8701 53.3807 34.3552 52.8866 34.003ZM45.0704 21.6112C45.0815 21.6138 45.0974 21.6198 45.1104 21.626L49.6877 27.7617C49.7128 27.8001 49.7482 27.899 49.7542 27.9469V33.5439H47.4212H45.7908C45.485 33.4539 45.1617 33.4055 44.8272 33.4055C44.4927 33.4055 44.1693 33.4539 43.8635 33.5439H42.3016L39.2753 33.5386V21.6112L45.0704 21.6112ZM23.3056 35.2239H41.8058C41.6787 35.4626 41.579 35.718 41.5111 35.9859H23.6003C23.5324 35.718 23.4327 35.4626 23.3056 35.2239ZM14.2576 17.4329H37.5953V21.1369V33.5253H22.8648V33.5439H21.2479C20.9422 33.4539 20.6188 33.4054 20.2843 33.4054C19.9498 33.4054 19.6265 33.4539 19.3207 33.5439H17.7038V33.5253H14.2576V17.4329ZM12.0277 35.7721V35.4377C12.074 35.3674 12.2907 35.2239 12.6349 35.2239H17.263C17.1359 35.4626 17.0362 35.718 16.9683 35.9859H12.6349C12.2907 35.9859 12.074 35.8424 12.0277 35.7721ZM20.2843 38.5664C19.3246 38.5664 18.5438 37.7856 18.5438 36.8259C18.5438 35.8662 19.3246 35.0854 20.2843 35.0854C20.5222 35.0854 20.749 35.1335 20.9557 35.2203V35.2239H20.9643C21.5871 35.4892 22.0248 36.1074 22.0248 36.8259C22.0248 37.7856 21.244 38.5664 20.2843 38.5664ZM44.8272 38.5664C43.8674 38.5664 43.0866 37.7856 43.0866 36.8259C43.0866 35.8662 43.8674 35.0854 44.8272 35.0854C45.7869 35.0854 46.5677 35.8662 46.5677 36.8259C46.5677 37.7856 45.7869 38.5664 44.8272 38.5664ZM51.9841 35.7721C51.9377 35.8424 51.7211 35.9859 51.3768 35.9859H48.1432C48.0752 35.718 47.9756 35.4626 47.8485 35.2239H50.1343C50.1491 35.224 50.1659 35.2242 50.1843 35.2242C50.1976 35.2242 50.2118 35.2241 50.2268 35.2239H51.3768C51.7211 35.2239 51.9377 35.3674 51.9841 35.4377L51.9841 35.7721Z" fill="black"/>
</svg>
