<svg width="14" height="10" viewBox="0 0 14 10" fill="none" xmlns="http://www.w3.org/2000/svg">
<g clip-path="url(#clip0_1_2406)">
<path d="M5.00765 4.9975C5.70314 4.9975 6.33359 4.71293 6.79392 4.25362C7.0391 4.00399 7.23424 3.70444 7.35933 3.36995C7.4594 3.10035 7.51944 2.80579 7.51944 2.50125C7.51944 1.12831 6.38863 0 5.00765 0C3.63166 0 2.50586 1.12831 2.50586 2.50125C2.50586 3.87419 3.63166 4.9975 5.00765 4.9975Z" fill="#8D8D8D"/>
<path d="M9.02645 9.66549L8.76626 9.84023C8.62116 9.93508 8.45604 9.99 8.28091 9.99C8.05075 9.99 7.82559 9.90014 7.66547 9.73538L7.04503 9.11631C6.75482 8.82675 6.70979 8.35246 6.93996 8.01796L7.12509 7.74836L6.79485 7.68845C6.39457 7.61357 6.08935 7.24911 6.08935 6.83973V6.33548C5.68906 6.28057 5.3188 6.25061 4.99857 6.25061C3.31737 6.25061 0 7.06439 0 8.74687V9.99999H9.09149C9.08649 9.99499 9.08649 9.98501 9.08649 9.98002L9.02645 9.66549Z" fill="#8D8D8D"/>
<path d="M10.3914 7.23901C10.8556 7.23901 11.232 6.86349 11.232 6.40027C11.232 5.93704 10.8556 5.56152 10.3914 5.56152C9.92713 5.56152 9.55078 5.93704 9.55078 6.40027C9.55078 6.86349 9.92713 7.23901 10.3914 7.23901Z" fill="#8D8D8D"/>
<path d="M13.8541 5.78608L12.9835 5.62133C12.9284 5.44659 12.8634 5.27685 12.7733 5.11709L13.2737 4.38319C13.3187 4.31329 13.3087 4.21344 13.2537 4.15353L12.6382 3.54445C12.5782 3.48454 12.4781 3.47954 12.4081 3.52448L11.6726 4.02872C11.5074 3.93885 11.3373 3.86896 11.1522 3.81903L10.9921 2.95533C10.9771 2.87545 10.897 2.81055 10.8169 2.81055H9.94131C9.86126 2.81055 9.7812 2.87545 9.76619 2.95533L9.60107 3.82902C9.42595 3.88394 9.26083 3.94884 9.10572 4.03371L8.3802 3.53945C8.31015 3.49452 8.21008 3.50451 8.15003 3.55942L7.52959 4.17849C7.46955 4.2384 7.45954 4.33826 7.50958 4.40815L8.00994 5.13706C7.92487 5.29182 7.85983 5.46157 7.80479 5.63132L6.93417 5.79108C6.85411 5.80605 6.78906 5.88593 6.78906 5.96581V6.8395C6.78906 6.91938 6.85411 6.99926 6.93417 7.01424L7.80479 7.174C7.85983 7.34874 7.92487 7.51848 8.01494 7.67825L7.51958 8.39717C7.47455 8.46706 7.48456 8.56691 7.5396 8.62682L8.16004 9.24589C8.22009 9.3058 8.32016 9.31579 8.39021 9.26586L9.11072 8.7716C9.26583 8.85648 9.43095 8.92138 9.60107 8.9763L9.76619 9.84499C9.7812 9.92487 9.86126 9.98978 9.94131 9.98978H10.8169C10.897 9.98978 10.9771 9.92487 10.9921 9.84499L11.1522 8.98129C11.3323 8.92637 11.5024 8.86147 11.6625 8.7716L12.3931 9.27086C12.4631 9.31579 12.5632 9.3058 12.6232 9.25089L13.2437 8.63181C13.3037 8.5719 13.3137 8.47205 13.2637 8.40216L12.7683 7.67825C12.8584 7.51848 12.9284 7.34375 12.9785 7.16402L13.8491 7.00426C13.9292 6.98928 13.9942 6.9094 13.9942 6.82952V5.95583C13.9992 5.88094 13.9342 5.80106 13.8541 5.78608ZM10.3916 7.90291C9.56104 7.90291 8.88556 7.22892 8.88556 6.40016C8.88556 5.5714 9.56104 4.89742 10.3916 4.89742C11.2222 4.89742 11.8977 5.5714 11.8977 6.40016C11.8977 7.22892 11.2222 7.90291 10.3916 7.90291Z" fill="#C7CAC7"/>
</g>
<defs>
<clipPath id="clip0_1_2406">
<rect width="14" height="10" fill="white"/>
</clipPath>
</defs>
</svg>
