<svg width="18" height="20" viewBox="0 0 18 20" fill="none" xmlns="http://www.w3.org/2000/svg">
<path d="M12.0002 15V16C12.0002 17.6569 10.657 19 9.00014 19C7.34326 19 6.00009 17.6569 6.00009 16V15M12.0002 15H6.00009M12.0002 15H15.5908C15.9733 15 16.1655 15 16.3204 14.9478C16.6162 14.848 16.8477 14.6156 16.9475 14.3198C17 14.1643 17 13.9715 17 13.5859C17 13.4172 16.9998 13.3329 16.9866 13.2524C16.9617 13.1004 16.9027 12.9563 16.8128 12.8312C16.7654 12.7651 16.705 12.7048 16.5861 12.5858L16.1966 12.1963C16.0709 12.0706 16.0003 11.9001 16.0003 11.7224V8C16.0003 4.134 12.8662 0.999991 9.00014 1C5.13409 1.00001 2.00002 4.13401 2.00002 8V11.7224C2.00002 11.9002 1.92926 12.0706 1.80358 12.1963L1.41407 12.5858C1.29476 12.7051 1.23505 12.765 1.1875 12.8313C1.09766 12.9564 1.03815 13.1004 1.0132 13.2524C1 13.3329 1 13.4172 1 13.586C1 13.9715 1 14.1642 1.05245 14.3197C1.15225 14.6156 1.3848 14.848 1.68068 14.9478C1.83557 15 2.02703 15 2.40958 15H6.00009" stroke="#003566" stroke-linecap="round" stroke-linejoin="round"/>
</svg>
