<svg width="17" height="17" viewBox="0 0 17 17" fill="none" xmlns="http://www.w3.org/2000/svg">
<path d="M8.84225 9.27953L11.6651 12.109C11.789 12.2329 11.957 12.3025 12.1323 12.3025C12.3075 12.3025 12.4756 12.2329 12.5995 12.109C12.7234 11.985 12.793 11.817 12.793 11.6418C12.793 11.4665 12.7234 11.2985 12.5995 11.1746L9.77004 8.35174L12.5995 5.52891C12.7234 5.405 12.793 5.23695 12.793 5.06172C12.793 4.88649 12.7234 4.71844 12.5995 4.59454C12.4756 4.47063 12.3075 4.40103 12.1323 4.40103C11.957 4.40103 11.789 4.47063 11.6651 4.59454L8.84225 7.42396L6.01941 4.59454C5.95824 4.53286 5.88546 4.48391 5.80528 4.45051C5.7251 4.4171 5.63909 4.3999 5.55223 4.3999C5.46536 4.3999 5.37936 4.4171 5.29917 4.45051C5.21899 4.48391 5.14621 4.53286 5.08504 4.59454C5.02337 4.65571 4.97442 4.72848 4.94101 4.80867C4.90761 4.88885 4.89041 4.97486 4.89041 5.06172C4.89041 5.14859 4.90761 5.23459 4.94101 5.31478C4.97442 5.39496 5.02337 5.46774 5.08504 5.52891L7.91446 8.35174L5.08504 11.1746C5.02337 11.2358 4.97442 11.3085 4.94101 11.3887C4.90761 11.4689 4.89041 11.5549 4.89041 11.6418C4.89041 11.7286 4.90761 11.8146 4.94101 11.8948C4.97442 11.975 5.02337 12.0478 5.08504 12.1089C5.14621 12.1706 5.21899 12.2196 5.29917 12.253C5.37936 12.2864 5.46536 12.3036 5.55223 12.3036C5.63909 12.3036 5.7251 12.2864 5.80528 12.253C5.88546 12.2196 5.95824 12.1706 6.01941 12.1089L8.84225 9.27953Z" fill="#FFFCFF"/>
</svg>
