<svg width="34" height="41" viewBox="0 0 34 41" fill="none" xmlns="http://www.w3.org/2000/svg">
<g clip-path="url(#clip0_1_429)">
<path fill-rule="evenodd" clip-rule="evenodd" d="M4.09766 6.15246C4.09766 3.94628 6.14734 2.31846 8.28334 2.82828L17.9347 5.13185C19.4672 5.49761 20.5491 6.87322 20.5491 8.45604V13.1026C20.5491 13.48 20.2446 13.7859 19.8691 13.7859C19.4934 13.7859 19.1891 13.48 19.1891 13.1026V8.45604C19.1891 7.50634 18.5399 6.68098 17.6204 6.46152L7.96907 4.15795C6.68746 3.85206 5.45766 4.82875 5.45766 6.15246V28.0559C5.45766 29.1881 6.371 30.1059 7.49766 30.1059H19.1891V18.5426C19.1891 18.1652 19.4934 17.8592 19.8691 17.8592C20.2446 17.8592 20.5491 18.1652 20.5491 18.5426V30.7893C20.5491 31.1668 20.2446 31.4726 19.8691 31.4726H7.49766C5.61989 31.4726 4.09766 29.9429 4.09766 28.0559V6.15246Z" fill="#001D3D"/>
<path fill-rule="evenodd" clip-rule="evenodd" d="M7.67969 9.5377C7.67969 9.16031 7.98414 8.85437 8.35969 8.85437H10.5103C10.8859 8.85437 11.1903 9.16031 11.1903 9.5377C11.1903 9.91509 10.8859 10.221 10.5103 10.221H8.35969C7.98414 10.221 7.67969 9.91509 7.67969 9.5377ZM13.4516 9.5377C13.4516 9.16031 13.7561 8.85437 14.1316 8.85437H16.2822C16.6578 8.85437 16.9622 9.16031 16.9622 9.5377C16.9622 9.91509 16.6578 10.221 16.2822 10.221H14.1316C13.7561 10.221 13.4516 9.91509 13.4516 9.5377ZM7.67969 14.5805C7.67969 14.203 7.98414 13.8972 8.35969 13.8972H10.5103C10.8859 13.8972 11.1903 14.203 11.1903 14.5805C11.1903 14.9578 10.8859 15.2638 10.5103 15.2638H8.35969C7.98414 15.2638 7.67969 14.9578 7.67969 14.5805ZM13.4516 14.5805C13.4516 14.203 13.7561 13.8972 14.1316 13.8972H16.2822C16.6578 13.8972 16.9622 14.203 16.9622 14.5805C16.9622 14.9578 16.6578 15.2638 16.2822 15.2638H14.1316C13.7561 15.2638 13.4516 14.9578 13.4516 14.5805ZM7.67969 20.3436C7.67969 19.9662 7.98414 19.6602 8.35969 19.6602H10.5103C10.8859 19.6602 11.1903 19.9662 11.1903 20.3436C11.1903 20.7211 10.8859 21.0269 10.5103 21.0269H8.35969C7.98414 21.0269 7.67969 20.7211 7.67969 20.3436ZM13.4516 20.3436C13.4516 19.9662 13.7561 19.6602 14.1316 19.6602H16.2822C16.6578 19.6602 16.9622 19.9662 16.9622 20.3436C16.9622 20.7211 16.6578 21.0269 16.2822 21.0269H14.1316C13.7561 21.0269 13.4516 20.7211 13.4516 20.3436Z" fill="#001D3D"/>
<path fill-rule="evenodd" clip-rule="evenodd" d="M19.1895 18.2315C19.1895 15.8357 21.5794 14.1838 23.8057 15.041L27.7221 16.5487C29.0373 17.055 29.9057 18.3238 29.9057 19.7392V28.056C29.9057 29.943 28.3835 31.4727 26.5057 31.4727H23.1876C22.8119 31.4727 22.5076 31.1667 22.5076 30.7893C22.5076 30.4119 22.8119 30.106 23.1876 30.106H26.5057C27.6323 30.106 28.5457 29.1882 28.5457 28.056V19.7392C28.5457 18.8899 28.0247 18.1287 27.2355 17.8249L23.3192 16.3172C21.9834 15.8029 20.5495 16.794 20.5495 18.2315V30.7893C20.5495 31.1667 20.2449 31.4727 19.8695 31.4727C19.4938 31.4727 19.1895 31.1667 19.1895 30.7893V18.2315Z" fill="#001D3D"/>
<path fill-rule="evenodd" clip-rule="evenodd" d="M24.3819 5.44603C24.3819 5.06864 24.0774 4.7627 23.7019 4.7627H22.4085C22.033 4.7627 21.7285 5.06864 21.7285 5.44603C21.7285 5.82343 22.033 6.12936 22.4085 6.12936H23.7019C24.0774 6.12936 24.3819 5.82343 24.3819 5.44603Z" fill="#001D3D"/>
<path fill-rule="evenodd" clip-rule="evenodd" d="M20.9565 1.3506C20.5938 1.25292 20.2209 1.46926 20.1238 1.83379L19.7889 3.08921C19.6918 3.45374 19.9071 3.82844 20.2698 3.92612C20.6325 4.02379 21.0054 3.80747 21.1027 3.44292L21.4374 2.18751C21.5346 1.82297 21.3193 1.44828 20.9565 1.3506Z" fill="#001D3D"/>
<path fill-rule="evenodd" clip-rule="evenodd" d="M22.3418 20.3436C22.3418 19.9661 22.6463 19.6603 23.0218 19.6603H26.0696C26.4452 19.6603 26.7496 19.9661 26.7496 20.3436C26.7496 20.7209 26.4452 21.0269 26.0696 21.0269H23.0218C22.6463 21.0269 22.3418 20.7209 22.3418 20.3436ZM22.3418 23.9456C22.3418 23.5681 22.6463 23.2623 23.0218 23.2623H26.0696C26.4452 23.2623 26.7496 23.5681 26.7496 23.9456C26.7496 24.3229 26.4452 24.6289 26.0696 24.6289H23.0218C22.6463 24.6289 22.3418 24.3229 22.3418 23.9456Z" fill="#001D3D"/>
<path fill-rule="evenodd" clip-rule="evenodd" d="M10.8857 25.775C10.5102 25.775 10.2057 26.081 10.2057 26.4583V30.0689C10.2057 30.4464 9.90127 30.7523 9.5257 30.7523C9.15015 30.7523 8.8457 30.4464 8.8457 30.0689V26.4583C8.8457 25.3262 9.75905 24.4083 10.8857 24.4083H13.7574C14.884 24.4083 15.7974 25.3262 15.7974 26.4583V30.0689C15.7974 30.4464 15.493 30.7523 15.1174 30.7523C14.7419 30.7523 14.4374 30.4464 14.4374 30.0689V26.4583C14.4374 26.081 14.133 25.775 13.7574 25.775H10.8857Z" fill="#001D3D"/>
</g>
<defs>
<clipPath id="clip0_1_429">
<rect width="34" height="41" fill="white"/>
</clipPath>
</defs>
</svg>
