<svg width="36" height="34" viewBox="0 0 36 34" fill="none" xmlns="http://www.w3.org/2000/svg">
<g clip-path="url(#clip0_1_439)">
<path d="M22.8423 13.2176C22.8423 14.9124 24.2211 16.2935 25.9131 16.2935C27.6051 16.2935 28.9839 14.9124 28.9839 13.2176C28.9839 11.5227 27.6051 10.1416 25.9131 10.1416C24.2211 10.1416 22.8423 11.5227 22.8423 13.2176ZM25.9131 10.9025C27.1875 10.9025 28.2243 11.941 28.2243 13.2176C28.2243 14.4941 27.1875 15.5327 25.9131 15.5327C24.6387 15.5327 23.6019 14.4941 23.6019 13.2176C23.6019 11.941 24.6387 10.9025 25.9131 10.9025Z" fill="#001D3D"/>
<path d="M23.2778 25.316V24.6308V19.5066V19.027C23.2778 17.1014 21.7154 15.5327 19.7966 15.5327H16.103C14.1842 15.5327 12.6218 17.1014 12.6218 19.027V19.4994C12.6218 19.503 12.6182 19.5066 12.6182 19.5102V25.3196C12.6182 26.0624 13.223 26.6682 13.9646 26.6682C14.177 26.6682 14.375 26.6141 14.5514 26.5276V32.3514C14.5514 32.5605 14.7206 32.7336 14.933 32.7336C15.1418 32.7336 15.3146 32.5641 15.3146 32.3514V25.2006V25.197V19.5066C15.3146 19.2974 15.1454 19.1244 14.933 19.1244C14.7242 19.1244 14.5514 19.2938 14.5514 19.5066V25.316C14.5514 25.6405 14.2886 25.9037 13.9646 25.9037C13.6406 25.9037 13.3778 25.6405 13.3778 25.316V24.6416C13.3778 24.638 13.3814 24.6344 13.3814 24.6308V19.027C13.3814 17.5197 14.6018 16.2972 16.103 16.2972H19.7966C21.2978 16.2972 22.5182 17.5233 22.5182 19.027V19.5102V24.6344V25.3196C22.5182 25.6441 22.2554 25.9074 21.9314 25.9074C21.6074 25.9074 21.3482 25.6441 21.3446 25.3232V25.2006V25.197V19.5066C21.3446 19.2974 21.1754 19.1244 20.963 19.1244C20.7506 19.1244 20.5814 19.2938 20.5814 19.5066V25.316C20.5814 25.3196 20.5814 25.3196 20.5814 25.3232V32.3478C20.5814 32.5569 20.7506 32.73 20.963 32.73C21.1718 32.73 21.3446 32.5605 21.3446 32.3478V26.524C21.521 26.6105 21.719 26.6646 21.9314 26.6646C22.673 26.6646 23.2778 26.0588 23.2778 25.316Z" fill="#001D3D"/>
<path d="M31.2371 20.545C31.2371 18.623 29.6747 17.058 27.7559 17.058H24.0695C23.9363 17.058 23.8031 17.0652 23.6807 17.0832C23.4719 17.1121 23.3279 17.3068 23.3567 17.516C23.3855 17.7251 23.5763 17.8657 23.7887 17.8405C23.8787 17.8261 23.9723 17.8225 24.0695 17.8225H27.7559C29.2571 17.8225 30.4775 19.0449 30.4775 20.5487V26.1525C30.4775 26.1561 30.4811 26.1597 30.4811 26.1669V26.8412C30.4811 27.1658 30.2183 27.429 29.8943 27.429C29.5703 27.429 29.3111 27.1658 29.3075 26.8448V26.7222V26.7186V21.0319C29.3075 20.8227 29.1383 20.6496 28.9259 20.6496C28.7171 20.6496 28.5443 20.8191 28.5443 21.0319V26.8412C28.5443 26.8448 28.5443 26.8448 28.5443 26.8484V32.3513C28.5443 32.5604 28.7135 32.7335 28.9259 32.7335C29.1347 32.7335 29.3075 32.564 29.3075 32.3513V28.0493C29.4839 28.1358 29.6819 28.1899 29.8943 28.1899C30.6359 28.1899 31.2407 27.5841 31.2407 26.8412V21.0319C31.2407 21.0283 31.2371 21.0247 31.2371 21.0174V20.545Z" fill="#001D3D"/>
<path d="M22.9002 26.8125C22.6914 26.8125 22.5186 26.982 22.5186 27.1947V32.3514C22.5186 32.5606 22.6878 32.7337 22.9002 32.7337C23.109 32.7337 23.2818 32.5642 23.2818 32.3514V27.1947C23.2818 26.982 23.109 26.8125 22.9002 26.8125Z" fill="#001D3D"/>
<path d="M25.9094 28.1755C25.7006 28.1755 25.5278 28.345 25.5278 28.5578V32.3514C25.5278 32.5605 25.697 32.7336 25.9094 32.7336C26.1182 32.7336 26.291 32.5641 26.291 32.3514V28.5578C26.291 28.345 26.1218 28.1755 25.9094 28.1755Z" fill="#001D3D"/>
<path d="M14.8789 11.6958C14.8789 13.3907 16.2577 14.7718 17.9497 14.7718C19.6417 14.7718 21.0205 13.3907 21.0205 11.6958C21.0205 10.001 19.6417 8.61987 17.9497 8.61987C16.2577 8.61987 14.8789 9.99739 14.8789 11.6958ZM20.2609 11.6958C20.2609 12.9724 19.2241 14.0109 17.9497 14.0109C16.6753 14.0109 15.6385 12.9724 15.6385 11.6958C15.6385 10.4193 16.6753 9.38075 17.9497 9.38075C19.2241 9.38075 20.2609 10.4193 20.2609 11.6958Z" fill="#001D3D"/>
<path d="M13 3.88147C11.308 3.88147 9.9292 5.26259 9.9292 6.95744C9.9292 8.65229 11.308 10.0334 13 10.0334C14.692 10.0334 16.0708 8.65229 16.0708 6.95744C16.0708 5.26259 14.6956 3.88147 13 3.88147ZM13 9.27253C11.7256 9.27253 10.6888 8.23399 10.6888 6.95744C10.6888 5.68089 11.7256 4.64235 13 4.64235C14.2744 4.64235 15.3112 5.68089 15.3112 6.95744C15.3112 8.23399 14.2744 9.27253 13 9.27253Z" fill="#001D3D"/>
<path d="M22.9004 3.88147C21.2084 3.88147 19.8296 5.26259 19.8296 6.95744C19.8296 8.65229 21.2084 10.0334 22.9004 10.0334C24.5924 10.0334 25.9712 8.65229 25.9712 6.95744C25.9712 5.26259 24.5924 3.88147 22.9004 3.88147ZM22.9004 9.27253C21.626 9.27253 20.5892 8.23399 20.5892 6.95744C20.5892 5.68089 21.626 4.64235 22.9004 4.64235C24.1748 4.64235 25.2116 5.68089 25.2116 6.95744C25.2116 8.23399 24.1748 9.27253 22.9004 9.27253Z" fill="#001D3D"/>
<path d="M17.9461 26.6538C17.7373 26.6538 17.5645 26.8233 17.5645 27.0361V32.3514C17.5645 32.5605 17.7337 32.7336 17.9461 32.7336C18.1585 32.7336 18.3277 32.5641 18.3277 32.3514V27.0324C18.3277 26.8233 18.1585 26.6538 17.9461 26.6538Z" fill="#001D3D"/>
<path d="M6.91504 13.2176C6.91504 14.9124 8.29384 16.2935 9.98584 16.2935C11.6778 16.2935 13.0566 14.9124 13.0566 13.2176C13.0566 11.5227 11.6778 10.1416 9.98584 10.1416C8.29384 10.1416 6.91504 11.5227 6.91504 13.2176ZM9.98584 10.9025C11.2602 10.9025 12.297 11.941 12.297 13.2176C12.297 14.4941 11.2602 15.5327 9.98584 15.5327C8.71144 15.5327 7.67464 14.4941 7.67464 13.2176C7.67464 11.941 8.71144 10.9025 9.98584 10.9025Z" fill="#001D3D"/>
<path d="M12.2192 17.0832C12.0968 17.0652 11.9636 17.058 11.8304 17.058H8.14398C6.22518 17.058 4.66278 18.623 4.66278 20.545V21.0066C4.66278 21.0138 4.65918 21.021 4.65918 21.0319V26.8412C4.65918 27.5841 5.26398 28.1899 6.00558 28.1899C6.21798 28.1899 6.41598 28.1358 6.59238 28.0493V32.3513C6.59238 32.5604 6.76158 32.7335 6.97398 32.7335C7.18278 32.7335 7.35558 32.564 7.35558 32.3513V26.7222C7.35558 26.7186 7.35558 26.7186 7.35558 26.715V21.0319C7.35558 20.8227 7.18638 20.6496 6.97398 20.6496C6.76518 20.6496 6.59238 20.8191 6.59238 21.0319V26.8412C6.59238 27.1658 6.32958 27.429 6.00558 27.429C5.68158 27.429 5.41878 27.1658 5.41878 26.8412V26.1777C5.41878 26.1705 5.42238 26.1633 5.42238 26.1525V20.545C5.42238 19.0413 6.64278 17.8189 8.14398 17.8189H11.8304C11.9276 17.8189 12.0212 17.8261 12.1112 17.8369C12.32 17.8657 12.5108 17.7215 12.5432 17.5123C12.572 17.3068 12.428 17.1157 12.2192 17.0832Z" fill="#001D3D"/>
<path d="M9.98219 28.1755C9.77339 28.1755 9.60059 28.345 9.60059 28.5578V32.3514C9.60059 32.5605 9.76979 32.7336 9.98219 32.7336C10.191 32.7336 10.3638 32.5641 10.3638 32.3514V28.5578C10.3638 28.345 10.1946 28.1755 9.98219 28.1755Z" fill="#001D3D"/>
<path d="M13.0027 26.8125C12.7939 26.8125 12.6211 26.982 12.6211 27.1947V32.3514C12.6211 32.5606 12.7903 32.7337 13.0027 32.7337C13.2151 32.7337 13.3843 32.5642 13.3843 32.3514V27.1947C13.3807 26.982 13.2115 26.8125 13.0027 26.8125Z" fill="#001D3D"/>
</g>
<defs>
<clipPath id="clip0_1_439">
<rect width="36" height="34" fill="white"/>
</clipPath>
</defs>
</svg>
