<svg width="7" height="5" viewBox="0 0 7 5" fill="none" xmlns="http://www.w3.org/2000/svg">
<path fill-rule="evenodd" clip-rule="evenodd" d="M0.104667 0.807293C0.0326665 0.713293 -1.77439e-07 0.607293 -1.81985e-07 0.503293C-1.93321e-07 0.243959 0.204 -4.05401e-05 0.499333 -4.0553e-05L6.16667 -4.08007e-05C6.46333 -4.08137e-05 6.66667 0.244626 6.66667 0.503293C6.66667 0.607959 6.63333 0.713959 6.56067 0.807959C5.75867 1.84396 4.39267 3.60729 3.722 4.47329C3.62733 4.59596 3.482 4.66663 3.32733 4.66663C3.174 4.66663 3.028 4.59529 2.93333 4.47263C2.26533 3.60663 0.904 1.84263 0.104667 0.807293Z" fill="#4E879B"/>
</svg>
